<svg width="150" height="150" viewBox="0 0 150 150" fill="none" xmlns="http://www.w3.org/2000/svg">
<circle cx="75" cy="82" r="60" fill="url(#paint0_linear_1_1691)"/>
<path d="M64.1392 99V95.1818L75.9517 82.9432C77.2131 81.6136 78.2528 80.4489 79.071 79.4489C79.9006 78.4375 80.5199 77.4773 80.929 76.5682C81.3381 75.6591 81.5426 74.6932 81.5426 73.6705C81.5426 72.5114 81.2699 71.5114 80.7244 70.6705C80.179 69.8182 79.4347 69.1648 78.4915 68.7102C77.5483 68.2443 76.4858 68.0114 75.304 68.0114C74.054 68.0114 72.9631 68.267 72.0312 68.7784C71.0994 69.2898 70.3835 70.0114 69.8835 70.9432C69.3835 71.875 69.1335 72.9659 69.1335 74.2159H64.1051C64.1051 72.0909 64.5938 70.233 65.571 68.642C66.5483 67.0511 67.8892 65.8182 69.5938 64.9432C71.2983 64.0568 73.2358 63.6136 75.4062 63.6136C77.5994 63.6136 79.5313 64.0511 81.2017 64.9261C82.8835 65.7898 84.196 66.9716 85.1392 68.4716C86.0824 69.9602 86.554 71.642 86.554 73.517C86.554 74.8125 86.3097 76.0795 85.821 77.3182C85.3438 78.5568 84.5085 79.9375 83.3153 81.4602C82.1222 82.9716 80.4631 84.8068 78.3381 86.9659L71.4006 94.2273V94.483H87.1165V99H64.1392Z" fill="white"/>
<defs>
<linearGradient id="paint0_linear_1_1691" x1="75" y1="22" x2="75" y2="142" gradientUnits="userSpaceOnUse">
<stop stop-color="#10DBDB"/>
<stop offset="1" stop-color="#0047A5"/>
</linearGradient>
</defs>
</svg>
