<svg width="150" height="150" viewBox="0 0 150 150" fill="none" xmlns="http://www.w3.org/2000/svg">
<circle cx="75" cy="82" r="60" fill="url(#paint0_linear_1_1698)"/>
<path d="M75.5426 99.4773C73.2017 99.4773 71.1108 99.0739 69.2699 98.267C67.4403 97.4602 65.9915 96.3409 64.9233 94.9091C63.8665 93.4659 63.2983 91.7955 63.2188 89.8977H68.571C68.6392 90.9318 68.9858 91.8295 69.6108 92.5909C70.2472 93.3409 71.0767 93.9205 72.0994 94.3295C73.1222 94.7386 74.2585 94.9432 75.5085 94.9432C76.8835 94.9432 78.0994 94.7045 79.1562 94.2273C80.2244 93.75 81.0597 93.0852 81.6619 92.233C82.2642 91.3693 82.5653 90.375 82.5653 89.25C82.5653 88.0795 82.2642 87.0511 81.6619 86.1648C81.071 85.267 80.2017 84.5625 79.054 84.0511C77.9176 83.5398 76.5426 83.2841 74.929 83.2841H71.9801V78.9886H74.929C76.2244 78.9886 77.3608 78.7557 78.3381 78.2898C79.3267 77.8239 80.0994 77.1761 80.6562 76.3466C81.2131 75.5057 81.4915 74.5227 81.4915 73.3977C81.4915 72.3182 81.2472 71.3807 80.7585 70.5852C80.2813 69.7784 79.5994 69.1477 78.7131 68.6932C77.8381 68.2386 76.804 68.0114 75.6108 68.0114C74.4744 68.0114 73.4119 68.2216 72.4233 68.642C71.446 69.0511 70.6506 69.642 70.0369 70.4148C69.4233 71.1761 69.0938 72.0909 69.0483 73.1591H63.9517C64.0085 71.2727 64.5653 69.6136 65.6222 68.1818C66.6903 66.75 68.0994 65.6307 69.8494 64.8239C71.5994 64.017 73.5426 63.6136 75.679 63.6136C77.9176 63.6136 79.8494 64.0511 81.4744 64.9261C83.1108 65.7898 84.3722 66.9432 85.2585 68.3864C86.1563 69.8295 86.5994 71.4091 86.5881 73.125C86.5994 75.0795 86.054 76.7386 84.9517 78.1023C83.8608 79.4659 82.4063 80.3807 80.5881 80.8466V81.1193C82.9063 81.4716 84.7017 82.392 85.9744 83.8807C87.2585 85.3693 87.8949 87.2159 87.8835 89.4205C87.8949 91.3409 87.3608 93.0625 86.2812 94.5852C85.2131 96.108 83.7528 97.3068 81.9006 98.1818C80.0483 99.0455 77.929 99.4773 75.5426 99.4773Z" fill="white"/>
<defs>
<linearGradient id="paint0_linear_1_1698" x1="75" y1="22" x2="75" y2="142" gradientUnits="userSpaceOnUse">
<stop stop-color="#10DBDB"/>
<stop offset="1" stop-color="#0047A5"/>
</linearGradient>
</defs>
</svg>
