<svg width="24" height="24" viewBox="0 0 24 24" fill="none" xmlns="http://www.w3.org/2000/svg">
<path d="M13.2471 18.8183C12.5443 18.8183 11.8458 18.8183 11.143 18.8183C11.0499 18.8183 10.9525 18.8099 10.8594 18.7887C10.5588 18.7167 10.4021 18.5008 10.4148 18.1875C10.436 17.7388 10.7493 17.3705 11.1853 17.2731C11.2531 17.2562 11.3251 17.2519 11.3928 17.2519C11.7992 17.2519 12.2056 17.2519 12.6121 17.2519C12.9338 17.2519 13.1878 17.3959 13.3826 17.6456C13.4037 17.6753 13.4291 17.688 13.4672 17.688C14.0642 17.6922 14.6611 17.6964 15.2623 17.7049C15.8592 17.7134 16.3545 17.4763 16.7863 17.0783C17.1166 16.7693 17.379 16.4094 17.5738 16.003C17.7008 15.7448 17.8405 15.495 17.9548 15.2325C18.1792 14.7203 18.3189 14.1868 18.3951 13.6322C18.4586 13.175 18.4755 12.7136 18.4374 12.2521C18.2977 10.6137 17.6415 9.21664 16.4561 8.07781C15.6136 7.26921 14.623 6.73578 13.4884 6.46483C12.8703 6.31666 12.248 6.26162 11.6172 6.30396C9.83908 6.4352 8.34887 7.16337 7.16347 8.49694C6.41413 9.33941 5.93574 10.3258 5.7029 11.435C5.59283 11.9642 5.55049 12.5019 5.57589 13.0438C5.62669 14.0556 5.89764 15.0081 6.39297 15.8972C6.43954 15.9819 6.4861 16.0665 6.50304 16.1597C6.56231 16.4433 6.37603 16.7185 6.07968 16.7947C5.83837 16.8582 5.60976 16.7735 5.48275 16.5534C5.38961 16.3967 5.30918 16.2316 5.22451 16.0665C5.21181 16.0411 5.19911 16.02 5.15677 16.0242C4.21692 16.1258 3.2432 15.4738 3.02306 14.4451C2.99343 14.3054 2.97649 14.1572 2.97649 14.0133C2.97226 13.1665 2.97649 12.3241 2.97649 11.4774C2.97649 10.5502 3.59882 9.75007 4.50057 9.51722C4.70801 9.46219 4.92392 9.43255 5.13984 9.46642C5.19064 9.47489 5.21181 9.45795 5.23297 9.41138C5.52085 8.81869 5.88494 8.26832 6.321 7.773C7.21004 6.76118 8.2896 6.03301 9.5639 5.59272C10.0677 5.41914 10.5842 5.3006 11.1134 5.24134C11.5664 5.1863 12.0236 5.16936 12.4766 5.199C14.2335 5.32177 15.7787 5.96104 17.0912 7.13797C17.8109 7.78147 18.3781 8.54774 18.8015 9.41562C18.8184 9.44948 18.8311 9.47489 18.8819 9.46642C19.2037 9.42408 19.517 9.47912 19.8133 9.61036C20.5076 9.91518 20.9183 10.4486 21.0411 11.2022C21.0538 11.2868 21.0622 11.3715 21.0622 11.4604C21.0622 12.3241 21.0622 13.1835 21.0622 14.0471C21.0622 14.9192 20.4653 15.7067 19.6313 15.9565C19.3815 16.0327 19.1233 16.0708 18.865 16.0327C18.8269 16.0284 18.8184 16.0538 18.8057 16.0792C18.6914 16.3036 18.5814 16.5322 18.4586 16.7566C18.0987 17.4213 17.6161 17.9801 16.9641 18.378C16.4688 18.6786 15.9269 18.831 15.3469 18.8353C14.6526 18.8353 13.9541 18.8353 13.2598 18.8353L13.2471 18.8183Z" fill="url(#paint0_linear_1_620)"/>
<path d="M17.1629 13.1749C17.1587 13.5559 17.0825 14.1528 16.8751 14.7286C16.8073 14.9191 16.7184 15.0969 16.5914 15.2536C16.4771 15.3933 16.3289 15.461 16.1469 15.4737C15.8209 15.4949 15.5034 15.4568 15.1901 15.3975C14.6186 15.2874 14.047 15.1689 13.4755 15.063C12.8532 14.9487 12.2266 14.9022 11.5958 14.936C11.0709 14.9657 10.5544 15.0503 10.0379 15.1519C9.59334 15.2409 9.14459 15.334 8.70006 15.4187C8.45452 15.4652 8.20051 15.4864 7.95073 15.4779C7.76445 15.4695 7.62051 15.389 7.49774 15.262C7.32416 15.08 7.21832 14.8598 7.13365 14.627C6.99394 14.2502 6.91774 13.8607 6.87964 13.4628C6.85 13.1452 6.84577 12.8235 6.87117 12.506C6.91774 11.9302 7.05745 11.3756 7.28183 10.8464C7.53584 10.2453 7.88722 9.71183 8.32751 9.22921C8.63656 8.89052 9.01758 8.74235 9.47057 8.75928C9.81349 8.77198 10.1437 8.85666 10.4782 8.93286C10.8084 9.00906 11.1428 9.0895 11.4773 9.14877C11.8033 9.20804 12.1377 9.20381 12.4679 9.16147C12.9336 9.1022 13.3824 8.96673 13.8396 8.86089C14.1275 8.79739 14.4154 8.74658 14.7117 8.75928C15.0673 8.77622 15.3764 8.90322 15.6262 9.16147C16.2316 9.78804 16.6634 10.5162 16.9259 11.346C17.091 11.8667 17.1714 12.4001 17.1672 13.1791L17.1629 13.1749ZM8.39102 12.1207C8.39102 12.6457 8.81014 13.069 9.33933 13.069C9.86006 13.069 10.2834 12.6457 10.2834 12.125C10.2834 11.6 9.86429 11.1809 9.34356 11.1766C8.81437 11.1766 8.39525 11.5958 8.39525 12.1207H8.39102ZM15.6219 12.125C15.6219 11.6 15.207 11.1766 14.6821 11.1766C14.1613 11.1766 13.7338 11.5915 13.7295 12.1038C13.7295 12.6372 14.1402 13.0606 14.6694 13.0648C15.1943 13.069 15.6219 12.6499 15.6219 12.125Z" fill="url(#paint1_linear_1_620)"/>
<defs>
<linearGradient id="paint0_linear_1_620" x1="12.0184" y1="5.18457" x2="12.0184" y2="18.8353" gradientUnits="userSpaceOnUse">
<stop stop-color="#10DBDB"/>
<stop offset="1" stop-color="#0047A5"/>
</linearGradient>
<linearGradient id="paint1_linear_1_620" x1="12.0109" y1="8.75732" x2="12.0109" y2="15.4798" gradientUnits="userSpaceOnUse">
<stop stop-color="#10DBDB"/>
<stop offset="1" stop-color="#0047A5"/>
</linearGradient>
</defs>
</svg>
