<svg width="24" height="24" viewBox="0 0 24 24" fill="none" xmlns="http://www.w3.org/2000/svg">
<path d="M15.06 5.28289L20.717 10.9399C20.9979 11.2211 21.1557 11.6024 21.1557 11.9999C21.1557 12.3974 20.9979 12.7786 20.717 13.0599L15.061 18.7179C14.7796 18.9993 14.398 19.1574 14 19.1574C13.602 19.1574 13.2204 18.9993 12.939 18.7179C12.6576 18.4365 12.4995 18.0548 12.4995 17.6569C12.4995 17.2589 12.6576 16.8773 12.939 16.5959L16.035 13.4999H4.5C4.10218 13.4999 3.72064 13.3419 3.43934 13.0605C3.15804 12.7792 3 12.3977 3 11.9999C3 11.6021 3.15804 11.2205 3.43934 10.9392C3.72064 10.6579 4.10218 10.4999 4.5 10.4999H16.035L12.94 7.40389C12.6587 7.12249 12.5008 6.74089 12.5009 6.34304C12.501 5.94518 12.6591 5.56365 12.9405 5.28239C13.2219 5.00113 13.6035 4.84317 14.0014 4.84326C14.3992 4.84336 14.7807 5.00149 15.062 5.28289H15.06Z" fill="url(#paint0_linear_350_375)"/>
<defs>
<linearGradient id="paint0_linear_350_375" x1="12.0778" y1="4.84326" x2="12.0778" y2="19.1574" gradientUnits="userSpaceOnUse">
<stop stop-color="#10DBDB"/>
<stop offset="1" stop-color="#0047A5"/>
</linearGradient>
</defs>
</svg>
