<svg width="25" height="24" viewBox="0 0 25 24" fill="none" xmlns="http://www.w3.org/2000/svg">
<path d="M14.957 5.63585L20.614 11.2929C20.8015 11.4804 20.9068 11.7347 20.9068 11.9999C20.9068 12.265 20.8015 12.5193 20.614 12.7069L14.957 18.3639C14.7684 18.546 14.5158 18.6468 14.2536 18.6445C13.9914 18.6423 13.7406 18.5371 13.5552 18.3517C13.3698 18.1663 13.2646 17.9155 13.2623 17.6533C13.26 17.3911 13.3608 17.1385 13.543 16.9499L17.493 12.9999H4.25C3.98478 12.9999 3.73043 12.8945 3.54289 12.707C3.35536 12.5194 3.25 12.2651 3.25 11.9999C3.25 11.7346 3.35536 11.4803 3.54289 11.2927C3.73043 11.1052 3.98478 10.9999 4.25 10.9999H17.493L13.543 7.04985C13.4475 6.95761 13.3713 6.84726 13.3189 6.72526C13.2665 6.60325 13.2389 6.47204 13.2377 6.33926C13.2366 6.20648 13.2619 6.0748 13.3122 5.9519C13.3625 5.829 13.4367 5.71735 13.5306 5.62346C13.6245 5.52957 13.7361 5.45531 13.859 5.40503C13.9819 5.35475 14.1136 5.32945 14.2464 5.3306C14.3792 5.33176 14.5104 5.35934 14.6324 5.41175C14.7544 5.46416 14.8648 5.54034 14.957 5.63585Z" fill="white"/>
</svg>
