<svg width="48" height="48" viewBox="0 0 48 48" fill="none" xmlns="http://www.w3.org/2000/svg">
<rect width="48" height="48" rx="10" fill="url(#paint0_linear_462_1224)" fill-opacity="0.05"/>
<g filter="url(#filter0_di_462_1224)">
<path d="M24.0008 14C24.7706 13.9992 25.5352 14.1256 26.2638 14.374C25.5733 15.0879 25.1384 16.0101 25.0268 16.997C24.9152 17.9838 25.1332 18.9799 25.6468 19.8299C26.1605 20.68 26.9409 21.3362 27.8665 21.6963C28.792 22.0565 29.8107 22.1003 30.7638 21.821L31.0008 21.743V24.527C31.001 24.643 31.0213 24.758 31.0608 24.867L31.1068 24.974L32.8228 28.407C32.9023 28.566 32.9421 28.7419 32.9388 28.9196C32.9355 29.0974 32.8891 29.2717 32.8037 29.4276C32.7183 29.5835 32.5963 29.7164 32.4483 29.8148C32.3003 29.9133 32.1306 29.9744 31.9538 29.993L31.8388 29.999H16.1628C15.985 29.9991 15.8098 29.956 15.6522 29.8735C15.4947 29.791 15.3595 29.6715 15.2582 29.5254C15.157 29.3792 15.0927 29.2106 15.0708 29.0341C15.049 28.8576 15.0703 28.6785 15.1328 28.512L15.1788 28.407L16.8958 24.974C16.9474 24.8702 16.9806 24.7582 16.9938 24.643L17.0008 24.528V21C17.0008 19.1435 17.7383 17.363 19.0511 16.0503C20.3638 14.7375 22.1443 14 24.0008 14ZM29.5008 15C30.1639 15 30.7998 15.2634 31.2686 15.7322C31.7374 16.2011 32.0008 16.837 32.0008 17.5C32.0008 18.163 31.7374 18.7989 31.2686 19.2678C30.7998 19.7366 30.1639 20 29.5008 20C28.8378 20 28.2019 19.7366 27.7331 19.2678C27.2642 18.7989 27.0008 18.163 27.0008 17.5C27.0008 16.837 27.2642 16.2011 27.7331 15.7322C28.2019 15.2634 28.8378 15 29.5008 15ZM24.0008 33C23.3802 33.0002 22.7748 32.8079 22.268 32.4498C21.7611 32.0916 21.3778 31.5851 21.1708 31H26.8308C26.6238 31.5851 26.2405 32.0916 25.7337 32.4498C25.2269 32.8079 24.6214 33.0002 24.0008 33Z" fill="url(#paint1_linear_462_1224)"/>
</g>
<defs>
<filter id="filter0_di_462_1224" x="6.0625" y="8" width="35.877" height="37" filterUnits="userSpaceOnUse" color-interpolation-filters="sRGB">
<feFlood flood-opacity="0" result="BackgroundImageFix"/>
<feColorMatrix in="SourceAlpha" type="matrix" values="0 0 0 0 0 0 0 0 0 0 0 0 0 0 0 0 0 0 127 0" result="hardAlpha"/>
<feOffset dy="3"/>
<feGaussianBlur stdDeviation="4.5"/>
<feComposite in2="hardAlpha" operator="out"/>
<feColorMatrix type="matrix" values="0 0 0 0 1 0 0 0 0 1 0 0 0 0 1 0 0 0 0.2 0"/>
<feBlend mode="normal" in2="BackgroundImageFix" result="effect1_dropShadow_462_1224"/>
<feBlend mode="normal" in="SourceGraphic" in2="effect1_dropShadow_462_1224" result="shape"/>
<feColorMatrix in="SourceAlpha" type="matrix" values="0 0 0 0 0 0 0 0 0 0 0 0 0 0 0 0 0 0 127 0" result="hardAlpha"/>
<feOffset/>
<feGaussianBlur stdDeviation="1.24444"/>
<feComposite in2="hardAlpha" operator="arithmetic" k2="-1" k3="1"/>
<feColorMatrix type="matrix" values="0 0 0 0 1 0 0 0 0 1 0 0 0 0 1 0 0 0 1 0"/>
<feBlend mode="normal" in2="shape" result="effect2_innerShadow_462_1224"/>
</filter>
<linearGradient id="paint0_linear_462_1224" x1="24" y1="0" x2="24" y2="48" gradientUnits="userSpaceOnUse">
<stop stop-color="#10DBDB"/>
<stop offset="1" stop-color="#0047A5"/>
</linearGradient>
<linearGradient id="paint1_linear_462_1224" x1="24.0007" y1="14" x2="24.0007" y2="33" gradientUnits="userSpaceOnUse">
<stop stop-color="#10DBDB"/>
<stop offset="1" stop-color="#0047A5"/>
</linearGradient>
</defs>
</svg>
