<svg width="114" height="102" viewBox="0 0 114 102" fill="none" xmlns="http://www.w3.org/2000/svg">
<g filter="url(#filter0_dddd_53_5281)">
<path d="M60.3249 53.1819C58.4509 53.1819 56.5881 53.1819 54.714 53.1819C54.4657 53.1819 54.206 53.1593 53.9576 53.1029C53.1561 52.9109 52.7384 52.3352 52.7723 51.4998C52.8287 50.3031 53.6641 49.3209 54.8269 49.0612C55.0076 49.0161 55.1995 49.0048 55.3801 49.0048C56.4639 49.0048 57.5477 49.0048 58.6315 49.0048C59.4895 49.0048 60.1669 49.3886 60.6862 50.0547C60.7426 50.1337 60.8104 50.1676 60.912 50.1676C62.5038 50.1789 64.0956 50.1902 65.6987 50.2128C67.2905 50.2353 68.6114 49.6031 69.7629 48.5419C70.6435 47.7178 71.3434 46.7582 71.8627 45.6744C72.2014 44.9857 72.574 44.3197 72.8788 43.6197C73.4771 42.2537 73.8497 40.8312 74.0529 39.3523C74.2222 38.133 74.2674 36.9025 74.1658 35.6719C73.7932 31.3029 72.0434 27.5774 68.8823 24.5405C66.6357 22.3842 63.994 20.9618 60.9684 20.2392C59.3201 19.8441 57.6606 19.6973 55.9785 19.8102C51.2369 20.1602 47.263 22.102 44.1019 25.6582C42.1037 27.9048 40.828 30.5352 40.2071 33.4931C39.9136 34.9042 39.8007 36.338 39.8684 37.7831C40.0039 40.4812 40.7264 43.0214 42.0473 45.3922C42.1714 45.618 42.2956 45.8437 42.3408 46.0921C42.4988 46.8485 42.0021 47.5823 41.2118 47.7855C40.5683 47.9549 39.9587 47.7291 39.62 47.142C39.3717 46.7243 39.1572 46.284 38.9314 45.8437C38.8975 45.776 38.8636 45.7196 38.7507 45.7308C36.2445 46.0018 33.6479 44.2632 33.0608 41.5199C32.9818 41.1473 32.9367 40.7522 32.9367 40.3683C32.9254 38.1105 32.9367 35.8639 32.9367 33.606C32.9367 31.1336 34.5962 28.9999 37.0009 28.3789C37.5541 28.2322 38.1298 28.1531 38.7056 28.2435C38.8411 28.266 38.8975 28.2209 38.9539 28.0967C39.7216 26.5162 40.6925 25.0485 41.8553 23.7277C44.2261 21.0295 47.1049 19.0877 50.5031 17.9136C51.8465 17.4507 53.2238 17.1346 54.635 16.9766C55.843 16.8298 57.0623 16.7846 58.2702 16.8637C62.9554 17.1911 67.076 18.8958 70.5757 22.0343C72.495 23.7503 74.0077 25.7936 75.1367 28.108C75.1819 28.1983 75.2157 28.266 75.3512 28.2435C76.2092 28.1306 77.0446 28.2773 77.8349 28.6273C79.6863 29.4401 80.7814 30.8626 81.1088 32.8721C81.1427 33.0979 81.1653 33.3237 81.1653 33.5608C81.1653 35.8638 81.1653 38.1556 81.1653 40.4587C81.1653 42.7843 79.5735 44.8841 77.3494 45.5502C76.6833 45.7534 75.9947 45.855 75.306 45.7534C75.2044 45.7421 75.1819 45.8099 75.148 45.8776C74.8432 46.476 74.5496 47.0856 74.2222 47.6839C73.2626 49.4564 71.9756 50.9466 70.2371 52.0078C68.9162 52.8093 67.4711 53.2158 65.9245 53.2271C64.073 53.2271 62.2102 53.2271 60.3588 53.2271L60.3249 53.1819Z" fill="white"/>
</g>
<g filter="url(#filter1_dddd_53_5281)">
<path d="M70.7675 38.1327C70.7562 39.1487 70.553 40.7405 69.9998 42.2759C69.8192 42.7839 69.5821 43.2581 69.2434 43.6758C68.9386 44.0484 68.5435 44.229 68.058 44.2629C67.1887 44.3193 66.342 44.2177 65.5066 44.0597C63.9825 43.7661 62.4585 43.45 60.9344 43.1678C59.2748 42.863 57.604 42.7388 55.9218 42.8291C54.522 42.9081 53.1446 43.1339 51.7673 43.4049C50.5819 43.6419 49.3852 43.8903 48.1998 44.1161C47.5451 44.2403 46.8677 44.2967 46.2016 44.2742C45.7049 44.2516 45.321 44.0371 44.9936 43.6984C44.5308 43.2129 44.2485 42.6259 44.0227 42.005C43.6502 41.0002 43.447 39.9616 43.3454 38.9004C43.2664 38.0537 43.2551 37.1957 43.3228 36.3489C43.447 34.8136 43.8195 33.3347 44.4179 31.9235C45.0952 30.3204 46.0323 28.8979 47.2064 27.6109C48.0305 26.7077 49.0466 26.3126 50.2545 26.3578C51.169 26.3916 52.0496 26.6174 52.9414 26.8206C53.822 27.0238 54.7139 27.2383 55.6057 27.3964C56.475 27.5544 57.3669 27.5432 58.2475 27.4303C59.4893 27.2722 60.686 26.9109 61.9053 26.6287C62.6729 26.4594 63.4406 26.3239 64.2309 26.3578C65.1792 26.4029 66.0033 26.7416 66.6694 27.4303C68.2838 29.1011 69.4353 31.0429 70.1353 33.2556C70.5756 34.6442 70.7901 36.0667 70.7788 38.144L70.7675 38.1327ZM47.3757 35.3216C47.3757 36.7215 48.4934 37.8504 49.9046 37.8504C51.2932 37.8504 52.4221 36.7215 52.4221 35.3329C52.4221 33.933 51.3045 32.8153 49.9158 32.804C48.5047 32.804 47.387 33.9217 47.387 35.3216H47.3757ZM66.6581 35.3329C66.6581 33.933 65.5518 32.804 64.1519 32.804C62.7633 32.804 61.623 33.9104 61.6117 35.2764C61.6117 36.6989 62.7068 37.8279 64.118 37.8392C65.5179 37.8504 66.6581 36.7328 66.6581 35.3329Z" fill="white"/>
</g>
<defs>
<filter id="filter0_dddd_53_5281" x="0.931641" y="0.825195" width="112.233" height="100.402" filterUnits="userSpaceOnUse" color-interpolation-filters="sRGB">
<feFlood flood-opacity="0" result="BackgroundImageFix"/>
<feColorMatrix in="SourceAlpha" type="matrix" values="0 0 0 0 0 0 0 0 0 0 0 0 0 0 0 0 0 0 127 0" result="hardAlpha"/>
<feOffset dy="16"/>
<feGaussianBlur stdDeviation="16"/>
<feComposite in2="hardAlpha" operator="out"/>
<feColorMatrix type="matrix" values="0 0 0 0 1 0 0 0 0 1 0 0 0 0 1 0 0 0 0.48 0"/>
<feBlend mode="normal" in2="BackgroundImageFix" result="effect1_dropShadow_53_5281"/>
<feColorMatrix in="SourceAlpha" type="matrix" values="0 0 0 0 0 0 0 0 0 0 0 0 0 0 0 0 0 0 127 0" result="hardAlpha"/>
<feOffset dy="4"/>
<feGaussianBlur stdDeviation="4"/>
<feComposite in2="hardAlpha" operator="out"/>
<feColorMatrix type="matrix" values="0 0 0 0 1 0 0 0 0 1 0 0 0 0 1 0 0 0 0.12 0"/>
<feBlend mode="normal" in2="effect1_dropShadow_53_5281" result="effect2_dropShadow_53_5281"/>
<feColorMatrix in="SourceAlpha" type="matrix" values="0 0 0 0 0 0 0 0 0 0 0 0 0 0 0 0 0 0 127 0" result="hardAlpha"/>
<feOffset dy="2"/>
<feGaussianBlur stdDeviation="3"/>
<feComposite in2="hardAlpha" operator="out"/>
<feColorMatrix type="matrix" values="0 0 0 0 1 0 0 0 0 1 0 0 0 0 1 0 0 0 0.24 0"/>
<feBlend mode="normal" in2="effect2_dropShadow_53_5281" result="effect3_dropShadow_53_5281"/>
<feColorMatrix in="SourceAlpha" type="matrix" values="0 0 0 0 0 0 0 0 0 0 0 0 0 0 0 0 0 0 127 0" result="hardAlpha"/>
<feOffset dy="1"/>
<feGaussianBlur stdDeviation="1.5"/>
<feComposite in2="hardAlpha" operator="out"/>
<feColorMatrix type="matrix" values="0 0 0 0 1 0 0 0 0 1 0 0 0 0 1 0 0 0 0.24 0"/>
<feBlend mode="normal" in2="effect3_dropShadow_53_5281" result="effect4_dropShadow_53_5281"/>
<feBlend mode="normal" in="SourceGraphic" in2="effect4_dropShadow_53_5281" result="shape"/>
</filter>
<filter id="filter1_dddd_53_5281" x="11.2783" y="10.3525" width="91.501" height="81.9263" filterUnits="userSpaceOnUse" color-interpolation-filters="sRGB">
<feFlood flood-opacity="0" result="BackgroundImageFix"/>
<feColorMatrix in="SourceAlpha" type="matrix" values="0 0 0 0 0 0 0 0 0 0 0 0 0 0 0 0 0 0 127 0" result="hardAlpha"/>
<feOffset dy="16"/>
<feGaussianBlur stdDeviation="16"/>
<feComposite in2="hardAlpha" operator="out"/>
<feColorMatrix type="matrix" values="0 0 0 0 1 0 0 0 0 1 0 0 0 0 1 0 0 0 0.48 0"/>
<feBlend mode="normal" in2="BackgroundImageFix" result="effect1_dropShadow_53_5281"/>
<feColorMatrix in="SourceAlpha" type="matrix" values="0 0 0 0 0 0 0 0 0 0 0 0 0 0 0 0 0 0 127 0" result="hardAlpha"/>
<feOffset dy="4"/>
<feGaussianBlur stdDeviation="4"/>
<feComposite in2="hardAlpha" operator="out"/>
<feColorMatrix type="matrix" values="0 0 0 0 1 0 0 0 0 1 0 0 0 0 1 0 0 0 0.12 0"/>
<feBlend mode="normal" in2="effect1_dropShadow_53_5281" result="effect2_dropShadow_53_5281"/>
<feColorMatrix in="SourceAlpha" type="matrix" values="0 0 0 0 0 0 0 0 0 0 0 0 0 0 0 0 0 0 127 0" result="hardAlpha"/>
<feOffset dy="2"/>
<feGaussianBlur stdDeviation="3"/>
<feComposite in2="hardAlpha" operator="out"/>
<feColorMatrix type="matrix" values="0 0 0 0 1 0 0 0 0 1 0 0 0 0 1 0 0 0 0.24 0"/>
<feBlend mode="normal" in2="effect2_dropShadow_53_5281" result="effect3_dropShadow_53_5281"/>
<feColorMatrix in="SourceAlpha" type="matrix" values="0 0 0 0 0 0 0 0 0 0 0 0 0 0 0 0 0 0 127 0" result="hardAlpha"/>
<feOffset dy="1"/>
<feGaussianBlur stdDeviation="1.5"/>
<feComposite in2="hardAlpha" operator="out"/>
<feColorMatrix type="matrix" values="0 0 0 0 1 0 0 0 0 1 0 0 0 0 1 0 0 0 0.24 0"/>
<feBlend mode="normal" in2="effect3_dropShadow_53_5281" result="effect4_dropShadow_53_5281"/>
<feBlend mode="normal" in="SourceGraphic" in2="effect4_dropShadow_53_5281" result="shape"/>
</filter>
</defs>
</svg>
