<svg width="52" height="48" viewBox="0 0 52 48" fill="none" xmlns="http://www.w3.org/2000/svg">
<g filter="url(#filter0_di_590_1039)">
<path fill-rule="evenodd" clip-rule="evenodd" d="M31.0002 5.99993C32.7683 5.99993 34.464 6.70231 35.7142 7.95255C36.9644 9.20279 37.6668 10.8985 37.6668 12.6666V14.5433C39.338 14.9897 40.7703 16.068 41.6616 17.5504C42.5528 19.0329 42.8333 20.8036 42.4439 22.4889C42.0545 24.1743 41.0255 25.6424 39.5742 26.5835C38.1229 27.5247 36.3628 27.8652 34.6652 27.5333C34.4507 27.4897 34.2297 27.4888 34.0149 27.5307C33.8 27.5725 33.5955 27.6563 33.4131 27.7771C33.2306 27.898 33.0737 28.0536 32.9514 28.2351C32.8291 28.4166 32.7437 28.6204 32.7002 28.8349C32.6566 29.0494 32.6557 29.2704 32.6976 29.4852C32.7394 29.7001 32.8232 29.9045 32.944 30.087C33.0649 30.2695 33.2205 30.4263 33.402 30.5487C33.5835 30.671 33.7873 30.7564 34.0018 30.7999C35.1488 31.0328 36.3277 31.0633 37.4852 30.8899C37.1995 32.0765 36.5938 33.162 35.7339 34.0281C34.8741 34.8942 33.7931 35.5079 32.6086 35.8021C31.4241 36.0964 30.1816 36.06 29.0164 35.697C27.8512 35.334 26.8079 34.6582 26.0002 33.7433C25.1923 34.6577 24.1492 35.3331 22.9842 35.6959C21.8192 36.0586 20.577 36.0948 19.3928 35.8006C18.2086 35.5064 17.1279 34.8929 16.2681 34.0271C15.4084 33.1612 14.8027 32.0761 14.5168 30.8899C15.6738 31.0624 16.852 31.0319 17.9985 30.7999C18.213 30.7564 18.4168 30.671 18.5983 30.5487C18.7798 30.4263 18.9354 30.2695 19.0563 30.087C19.1772 29.9045 19.2609 29.7001 19.3027 29.4852C19.3446 29.2704 19.3437 29.0494 19.3002 28.8349C19.2566 28.6204 19.1712 28.4166 19.0489 28.2351C18.9266 28.0536 18.7697 27.898 18.5872 27.7771C18.4048 27.6563 18.2003 27.5725 17.9855 27.5307C17.7706 27.4888 17.5496 27.4897 17.3352 27.5333C16.3417 27.7351 15.3154 27.7089 14.3335 27.4566C12.9031 27.0859 11.6363 26.2506 10.7319 25.082C9.8276 23.9134 9.33691 22.4776 9.33691 20.9999C9.33691 19.5223 9.8276 18.0864 10.7319 16.9178C11.6363 15.7492 12.9031 14.914 14.3335 14.5433V12.6666C14.3334 11.3124 14.7457 9.99032 15.5155 8.87625C16.2854 7.76218 17.3762 6.90897 18.6429 6.43016C19.9096 5.95134 21.2921 5.86964 22.6064 6.19591C23.9207 6.52218 25.1044 7.24096 26.0002 8.25659C26.6251 7.54646 27.3944 6.97782 28.2566 6.58867C29.1188 6.19952 30.0542 5.99881 31.0002 5.99993ZM26.0002 10.9999C25.5919 11 25.1979 11.1499 24.8929 11.4211C24.5878 11.6924 24.3929 12.0662 24.3452 12.4716L24.3335 12.6666V20.2249C23.3204 19.639 22.1704 19.3314 21.0002 19.3333C20.5581 19.3333 20.1342 19.5089 19.8216 19.8214C19.5091 20.134 19.3335 20.5579 19.3335 20.9999C19.3335 21.442 19.5091 21.8659 19.8216 22.1784C20.1342 22.491 20.5581 22.6666 21.0002 22.6666C21.8411 22.6663 22.6511 22.9839 23.2677 23.5558C23.8844 24.1276 24.2621 24.9113 24.3252 25.7499L24.3335 25.9999V29.3333C24.334 29.7581 24.4966 30.1666 24.7882 30.4755C25.0798 30.7844 25.4784 30.9703 25.9025 30.9952C26.3265 31.0201 26.7441 30.8821 27.0699 30.6095C27.3956 30.3368 27.605 29.9501 27.6552 29.5283L27.6668 29.3333V25.9899C27.6695 25.1076 28.0218 24.2623 28.6467 23.6394C29.2715 23.0164 30.1178 22.6666 31.0002 22.6666C31.4422 22.6666 31.8661 22.491 32.1787 22.1784C32.4912 21.8659 32.6668 21.442 32.6668 20.9999C32.6668 20.5579 32.4912 20.134 32.1787 19.8214C31.8661 19.5089 31.4422 19.3333 31.0002 19.3333C29.9741 19.3325 28.9617 19.5687 28.0418 20.0233L27.6668 20.2249V12.6666C27.6668 12.2246 27.4912 11.8006 27.1787 11.4881C26.8661 11.1755 26.4422 10.9999 26.0002 10.9999Z" fill="url(#paint0_linear_590_1039)"/>
</g>
<defs>
<filter id="filter0_di_590_1039" x="0.336914" y="-0.000488281" width="51.2783" height="47.9995" filterUnits="userSpaceOnUse" color-interpolation-filters="sRGB">
<feFlood flood-opacity="0" result="BackgroundImageFix"/>
<feColorMatrix in="SourceAlpha" type="matrix" values="0 0 0 0 0 0 0 0 0 0 0 0 0 0 0 0 0 0 127 0" result="hardAlpha"/>
<feOffset dy="3"/>
<feGaussianBlur stdDeviation="4.5"/>
<feComposite in2="hardAlpha" operator="out"/>
<feColorMatrix type="matrix" values="0 0 0 0 1 0 0 0 0 1 0 0 0 0 1 0 0 0 0.2 0"/>
<feBlend mode="normal" in2="BackgroundImageFix" result="effect1_dropShadow_590_1039"/>
<feBlend mode="normal" in="SourceGraphic" in2="effect1_dropShadow_590_1039" result="shape"/>
<feColorMatrix in="SourceAlpha" type="matrix" values="0 0 0 0 0 0 0 0 0 0 0 0 0 0 0 0 0 0 127 0" result="hardAlpha"/>
<feOffset/>
<feGaussianBlur stdDeviation="1.24444"/>
<feComposite in2="hardAlpha" operator="arithmetic" k2="-1" k3="1"/>
<feColorMatrix type="matrix" values="0 0 0 0 1 0 0 0 0 1 0 0 0 0 1 0 0 0 1 0"/>
<feBlend mode="normal" in2="shape" result="effect2_innerShadow_590_1039"/>
</filter>
<linearGradient id="paint0_linear_590_1039" x1="25.976" y1="5.99951" x2="25.976" y2="35.9989" gradientUnits="userSpaceOnUse">
<stop stop-color="#10DBDB"/>
<stop offset="1" stop-color="#0047A5"/>
</linearGradient>
</defs>
</svg>
