<svg width="48" height="48" viewBox="0 0 48 48" fill="none" xmlns="http://www.w3.org/2000/svg">
<rect width="48" height="48" rx="10" fill="url(#paint0_linear_279_1621)" fill-opacity="0.05"/>
<g filter="url(#filter0_di_279_1621)">
<path fill-rule="evenodd" clip-rule="evenodd" d="M26.9999 14.9998C28.0608 14.9998 29.0782 15.4212 29.8283 16.1713C30.5785 16.9215 30.9999 17.9389 30.9999 18.9998V20.1258C32.0026 20.3937 32.862 21.0406 33.3967 21.9301C33.9315 22.8195 34.0998 23.882 33.8661 24.8932C33.6325 25.9044 33.0151 26.7852 32.1443 27.3499C31.2736 27.9146 30.2175 28.1189 29.1989 27.9198C29.0702 27.8936 28.9376 27.8931 28.8087 27.9182C28.6798 27.9433 28.5571 27.9936 28.4476 28.0661C28.3382 28.1386 28.244 28.232 28.1706 28.3409C28.0973 28.4498 28.046 28.5721 28.0199 28.7008C27.9938 28.8295 27.9932 28.962 28.0183 29.0909C28.0434 29.2198 28.0937 29.3425 28.1662 29.452C28.2387 29.5615 28.3321 29.6556 28.441 29.729C28.5499 29.8024 28.6722 29.8536 28.8009 29.8798C29.4891 30.0195 30.1964 30.0378 30.8909 29.9338C30.7195 30.6457 30.3561 31.297 29.8402 31.8167C29.3243 32.3364 28.6756 32.7045 27.965 32.8811C27.2543 33.0576 26.5088 33.0358 25.8096 32.818C25.1105 32.6002 24.4845 32.1947 23.9999 31.6458C23.5152 32.1944 22.8893 32.5997 22.1903 32.8173C21.4913 33.035 20.746 33.0567 20.0355 32.8802C19.325 32.7036 18.6765 32.3356 18.1607 31.8161C17.6448 31.2965 17.2814 30.6455 17.1099 29.9338C17.8041 30.0372 18.511 30.019 19.1989 29.8798C19.3276 29.8536 19.4499 29.8024 19.5588 29.729C19.6677 29.6556 19.7611 29.5615 19.8336 29.452C19.9061 29.3425 19.9563 29.2198 19.9815 29.0909C20.0066 28.962 20.006 28.8295 19.9799 28.7008C19.9538 28.5721 19.9025 28.4498 19.8291 28.3409C19.7558 28.232 19.6616 28.1386 19.5521 28.0661C19.4427 27.9936 19.32 27.9433 19.1911 27.9182C19.0622 27.8931 18.9296 27.8936 18.8009 27.9198C18.2048 28.0409 17.589 28.0252 16.9999 27.8738C16.1417 27.6513 15.3816 27.1502 14.839 26.449C14.2964 25.7479 14.002 24.8864 14.002 23.9998C14.002 23.1132 14.2964 22.2517 14.839 21.5505C15.3816 20.8493 16.1417 20.3482 16.9999 20.1258V18.9998C16.9998 18.1873 17.2472 17.394 17.7091 16.7256C18.171 16.0571 18.8255 15.5452 19.5856 15.2579C20.3456 14.9706 21.1751 14.9216 21.9636 15.1174C22.7522 15.3131 23.4625 15.7444 23.9999 16.3538C24.3749 15.9277 24.8364 15.5865 25.3538 15.353C25.8711 15.1195 26.4323 14.9991 26.9999 14.9998ZM23.9999 17.9998C23.755 17.9998 23.5186 18.0897 23.3355 18.2525C23.1525 18.4152 23.0356 18.6395 23.0069 18.8828L22.9999 18.9998V23.5348C22.3921 23.1832 21.7021 22.9986 20.9999 22.9998C20.7347 22.9998 20.4803 23.1051 20.2928 23.2927C20.1053 23.4802 19.9999 23.7345 19.9999 23.9998C19.9999 24.265 20.1053 24.5193 20.2928 24.7069C20.4803 24.8944 20.7347 24.9998 20.9999 24.9998C21.5045 24.9996 21.9905 25.1902 22.3604 25.5333C22.7304 25.8763 22.9571 26.3466 22.9949 26.8498L22.9999 26.9998V28.9998C23.0002 29.2546 23.0978 29.4998 23.2727 29.6851C23.4477 29.8705 23.6869 29.982 23.9413 29.9969C24.1957 30.0119 24.4463 29.9291 24.6417 29.7655C24.8372 29.6019 24.9628 29.3699 24.9929 29.1168L24.9999 28.9998V26.9938C25.0015 26.4644 25.2129 25.9572 25.5878 25.5834C25.9627 25.2096 26.4705 24.9998 26.9999 24.9998C27.2651 24.9998 27.5195 24.8944 27.707 24.7069C27.8945 24.5193 27.9999 24.265 27.9999 23.9998C27.9999 23.7345 27.8945 23.4802 27.707 23.2927C27.5195 23.1051 27.2651 22.9998 26.9999 22.9998C26.3843 22.9993 25.7768 23.141 25.2249 23.4138L24.9999 23.5348V18.9998C24.9999 18.7345 24.8945 18.4802 24.707 18.2927C24.5195 18.1051 24.2651 17.9998 23.9999 17.9998Z" fill="url(#paint1_linear_279_1621)"/>
</g>
<defs>
<filter id="filter0_di_279_1621" x="5.00195" y="8.99951" width="37.9668" height="35.9995" filterUnits="userSpaceOnUse" color-interpolation-filters="sRGB">
<feFlood flood-opacity="0" result="BackgroundImageFix"/>
<feColorMatrix in="SourceAlpha" type="matrix" values="0 0 0 0 0 0 0 0 0 0 0 0 0 0 0 0 0 0 127 0" result="hardAlpha"/>
<feOffset dy="3"/>
<feGaussianBlur stdDeviation="4.5"/>
<feComposite in2="hardAlpha" operator="out"/>
<feColorMatrix type="matrix" values="0 0 0 0 1 0 0 0 0 1 0 0 0 0 1 0 0 0 0.2 0"/>
<feBlend mode="normal" in2="BackgroundImageFix" result="effect1_dropShadow_279_1621"/>
<feBlend mode="normal" in="SourceGraphic" in2="effect1_dropShadow_279_1621" result="shape"/>
<feColorMatrix in="SourceAlpha" type="matrix" values="0 0 0 0 0 0 0 0 0 0 0 0 0 0 0 0 0 0 127 0" result="hardAlpha"/>
<feOffset/>
<feGaussianBlur stdDeviation="1.24444"/>
<feComposite in2="hardAlpha" operator="arithmetic" k2="-1" k3="1"/>
<feColorMatrix type="matrix" values="0 0 0 0 1 0 0 0 0 1 0 0 0 0 1 0 0 0 1 0"/>
<feBlend mode="normal" in2="shape" result="effect2_innerShadow_279_1621"/>
</filter>
<linearGradient id="paint0_linear_279_1621" x1="24" y1="0" x2="24" y2="48" gradientUnits="userSpaceOnUse">
<stop stop-color="#10DBDB"/>
<stop offset="1" stop-color="#0047A5"/>
</linearGradient>
<linearGradient id="paint1_linear_279_1621" x1="23.9854" y1="14.9995" x2="23.9854" y2="32.9992" gradientUnits="userSpaceOnUse">
<stop stop-color="#10DBDB"/>
<stop offset="1" stop-color="#0047A5"/>
</linearGradient>
</defs>
</svg>
