<svg width="50" height="58" viewBox="0 0 50 58" fill="none" xmlns="http://www.w3.org/2000/svg">
<g filter="url(#filter0_di_207_1684)">
<path d="M27 42C27.5304 42 28.0391 42.2107 28.4142 42.5858C28.7893 42.9609 29 43.4696 29 44C29 44.5304 28.7893 45.0391 28.4142 45.4142C28.0391 45.7893 27.5304 46 27 46H23C22.4696 46 21.9609 45.7893 21.5858 45.4142C21.2107 45.0391 21 44.5304 21 44C21 43.4696 21.2107 42.9609 21.5858 42.5858C21.9609 42.2107 22.4696 42 23 42H27ZM25 6C33.82 6 41 13.086 41 21.866C41 27.878 37.956 32.258 35.44 34.854L34.872 35.42L34.332 35.924L33.828 36.364L33.168 36.904L32.512 37.392C32.12 37.668 31.832 38.05 31.58 38.462L31.29 38.964L31.008 39.468C30.528 40.292 29.972 41 28.786 41H21.214C20.028 41 19.472 40.292 18.994 39.468L18.568 38.712C18.278 38.206 17.958 37.724 17.488 37.392L17.024 37.05L16.626 36.74L16.172 36.364L15.668 35.924L15.128 35.42L14.558 34.854C12.044 32.258 9 27.878 9 21.866C9 13.086 16.18 6 25 6ZM25 10C18.354 10 13 15.33 13 21.866C13 27.114 16.066 30.854 18.186 32.808L18.676 33.244L19.116 33.608L19.656 34.024L19.8 34.128C20.43 34.572 20.898 35.19 21.324 35.836L22.07 37H27.93L28.676 35.836C29.102 35.19 29.57 34.572 30.2 34.128L30.686 33.764L31.098 33.434L31.564 33.034C33.684 31.152 37 27.324 37 21.866C37 15.33 31.646 10 25 10ZM25.586 14.586C25.9459 14.2273 26.4289 14.0191 26.9368 14.0035C27.4447 13.988 27.9394 14.1664 28.3206 14.5025C28.7017 14.8386 28.9406 15.3071 28.9888 15.8129C29.037 16.3188 28.8908 16.824 28.58 17.226L28.414 17.414L25.828 20L28.4 22.572C29.128 23.3 29.184 24.446 28.568 25.238L28.4 25.428L24.414 29.414C24.0541 29.7727 23.5711 29.9809 23.0632 29.9965C22.5553 30.012 22.0606 29.8336 21.6794 29.4975C21.2983 29.1614 21.0594 28.6929 21.0112 28.1871C20.963 27.6812 21.1092 27.176 21.42 26.774L21.586 26.586L24.172 24L21.6 21.428C21.2523 21.0802 21.0433 20.6176 21.0124 20.1267C20.9815 19.6359 21.1307 19.1507 21.432 18.762L21.6 18.572L25.586 14.586Z" fill="url(#paint0_linear_207_1684)" shape-rendering="crispEdges"/>
</g>
<defs>
<filter id="filter0_di_207_1684" x="0" y="0" width="50" height="58" filterUnits="userSpaceOnUse" color-interpolation-filters="sRGB">
<feFlood flood-opacity="0" result="BackgroundImageFix"/>
<feColorMatrix in="SourceAlpha" type="matrix" values="0 0 0 0 0 0 0 0 0 0 0 0 0 0 0 0 0 0 127 0" result="hardAlpha"/>
<feOffset dy="3"/>
<feGaussianBlur stdDeviation="4.5"/>
<feComposite in2="hardAlpha" operator="out"/>
<feColorMatrix type="matrix" values="0 0 0 0 1 0 0 0 0 1 0 0 0 0 1 0 0 0 0.2 0"/>
<feBlend mode="normal" in2="BackgroundImageFix" result="effect1_dropShadow_207_1684"/>
<feBlend mode="normal" in="SourceGraphic" in2="effect1_dropShadow_207_1684" result="shape"/>
<feColorMatrix in="SourceAlpha" type="matrix" values="0 0 0 0 0 0 0 0 0 0 0 0 0 0 0 0 0 0 127 0" result="hardAlpha"/>
<feOffset/>
<feGaussianBlur stdDeviation="1.24444"/>
<feComposite in2="hardAlpha" operator="arithmetic" k2="-1" k3="1"/>
<feColorMatrix type="matrix" values="0 0 0 0 1 0 0 0 0 1 0 0 0 0 1 0 0 0 1 0"/>
<feBlend mode="normal" in2="shape" result="effect2_innerShadow_207_1684"/>
</filter>
<linearGradient id="paint0_linear_207_1684" x1="25" y1="47.9101" x2="25" y2="-43.2135" gradientUnits="userSpaceOnUse">
<stop stop-color="white"/>
<stop offset="1" stop-color="white" stop-opacity="0"/>
</linearGradient>
</defs>
</svg>
