<svg width="25" height="24" viewBox="0 0 25 24" fill="none" xmlns="http://www.w3.org/2000/svg">
<path d="M13.5 20C13.7549 20.0003 14 20.0979 14.1854 20.2728C14.3707 20.4478 14.4822 20.687 14.4972 20.9414C14.5121 21.1958 14.4293 21.4464 14.2657 21.6418C14.1021 21.8373 13.8701 21.9629 13.617 21.993L13.5 22H11.5C11.2451 21.9997 11 21.9021 10.8146 21.7272C10.6293 21.5522 10.5178 21.313 10.5028 21.0586C10.4879 20.8042 10.5707 20.5536 10.7343 20.3582C10.8979 20.1627 11.1299 20.0371 11.383 20.007L11.5 20H13.5ZM12.5 2C16.91 2 20.5 5.543 20.5 9.933C20.5 12.939 18.978 15.129 17.72 16.427L17.436 16.71L17.166 16.962L16.914 17.182L16.584 17.452L16.256 17.696C16.015 17.866 15.853 18.115 15.706 18.374L15.501 18.738C15.263 19.148 14.984 19.5 14.393 19.5H10.607C10.017 19.5 9.737 19.149 9.499 18.738L9.381 18.53C9.209 18.218 9.033 17.9 8.744 17.696L8.512 17.525L8.313 17.37L8.086 17.182L7.834 16.962L7.564 16.71L7.279 16.427C6.022 15.129 4.5 12.939 4.5 9.933C4.5 5.543 8.09 2 12.5 2ZM14.207 6.293C14.0348 6.12082 13.8057 6.01739 13.5627 6.00211C13.3197 5.98683 13.0794 6.06075 12.887 6.21L12.793 6.293L10.8 8.286C10.6261 8.45988 10.5217 8.69122 10.5062 8.93663C10.4907 9.18204 10.5653 9.42467 10.716 9.619L10.8 9.714L12.086 11L10.793 12.293C10.6137 12.473 10.5095 12.7144 10.5018 12.9684C10.494 13.2223 10.5832 13.4697 10.7512 13.6603C10.9193 13.8508 11.1536 13.9703 11.4065 13.9944C11.6594 14.0185 11.912 13.9454 12.113 13.79L12.207 13.707L14.2 11.714C14.3739 11.5401 14.4783 11.3088 14.4938 11.0634C14.5093 10.818 14.4347 10.5753 14.284 10.381L14.2 10.286L12.914 9L14.207 7.707C14.3945 7.51947 14.4998 7.26516 14.4998 7C14.4998 6.73484 14.3945 6.48053 14.207 6.293Z" fill="url(#paint0_linear_1_1073)"/>
<defs>
<linearGradient id="paint0_linear_1_1073" x1="12.5" y1="2" x2="12.5" y2="22" gradientUnits="userSpaceOnUse">
<stop stop-color="#10DBDB"/>
<stop offset="1" stop-color="#0047A5"/>
</linearGradient>
</defs>
</svg>
