<svg width="48" height="48" viewBox="0 0 48 48" fill="none" xmlns="http://www.w3.org/2000/svg">
<rect width="48" height="48" rx="10" fill="url(#paint0_linear_462_2361)" fill-opacity="0.05"/>
<g filter="url(#filter0_di_462_2361)">
<path fill-rule="evenodd" clip-rule="evenodd" d="M28 15C28.2652 15 28.5196 15.1054 28.7071 15.2929C28.8946 15.4804 29 15.7348 29 16V17H31C31.5304 17 32.0391 17.2107 32.4142 17.5858C32.7893 17.9609 33 18.4696 33 19V31C33 31.5304 32.7893 32.0391 32.4142 32.4142C32.0391 32.7893 31.5304 33 31 33H17C16.4696 33 15.9609 32.7893 15.5858 32.4142C15.2107 32.0391 15 31.5304 15 31V19C15 18.4696 15.2107 17.9609 15.5858 17.5858C15.9609 17.2107 16.4696 17 17 17H19V16C19 15.7348 19.1054 15.4804 19.2929 15.2929C19.4804 15.1054 19.7348 15 20 15C20.2652 15 20.5196 15.1054 20.7071 15.2929C20.8946 15.4804 21 15.7348 21 16V17H27V16C27 15.7348 27.1054 15.4804 27.2929 15.2929C27.4804 15.1054 27.7348 15 28 15ZM20.01 28H20C19.7451 28.0003 19.5 28.0979 19.3146 28.2728C19.1293 28.4478 19.0178 28.687 19.0028 28.9414C18.9879 29.1958 19.0707 29.4464 19.2343 29.6418C19.3979 29.8373 19.6299 29.9629 19.883 29.993L20.01 30C20.2752 30 20.5296 29.8946 20.7171 29.7071C20.9046 29.5196 21.01 29.2652 21.01 29C21.01 28.7348 20.9046 28.4804 20.7171 28.2929C20.5296 28.1054 20.2752 28 20.01 28ZM24.01 28H24C23.7451 28.0003 23.5 28.0979 23.3146 28.2728C23.1293 28.4478 23.0178 28.687 23.0028 28.9414C22.9879 29.1958 23.0707 29.4464 23.2343 29.6418C23.3979 29.8373 23.6299 29.9629 23.883 29.993L24.01 30C24.2752 30 24.5296 29.8946 24.7171 29.7071C24.9046 29.5196 25.01 29.2652 25.01 29C25.01 28.7348 24.9046 28.4804 24.7171 28.2929C24.5296 28.1054 24.2752 28 24.01 28ZM28.01 28H28C27.7451 28.0003 27.5 28.0979 27.3146 28.2728C27.1293 28.4478 27.0178 28.687 27.0028 28.9414C26.9879 29.1958 27.0707 29.4464 27.2343 29.6418C27.3979 29.8373 27.6299 29.9629 27.883 29.993L28.01 30C28.2752 30 28.5296 29.8946 28.7171 29.7071C28.9046 29.5196 29.01 29.2652 29.01 29C29.01 28.7348 28.9046 28.4804 28.7171 28.2929C28.5296 28.1054 28.2752 28 28.01 28ZM20.01 24H20C19.7451 24.0003 19.5 24.0979 19.3146 24.2728C19.1293 24.4478 19.0178 24.687 19.0028 24.9414C18.9879 25.1958 19.0707 25.4464 19.2343 25.6418C19.3979 25.8373 19.6299 25.9629 19.883 25.993L20.01 26C20.2752 26 20.5296 25.8946 20.7171 25.7071C20.9046 25.5196 21.01 25.2652 21.01 25C21.01 24.7348 20.9046 24.4804 20.7171 24.2929C20.5296 24.1054 20.2752 24 20.01 24ZM24.01 24H24C23.7451 24.0003 23.5 24.0979 23.3146 24.2728C23.1293 24.4478 23.0178 24.687 23.0028 24.9414C22.9879 25.1958 23.0707 25.4464 23.2343 25.6418C23.3979 25.8373 23.6299 25.9629 23.883 25.993L24.01 26C24.2752 26 24.5296 25.8946 24.7171 25.7071C24.9046 25.5196 25.01 25.2652 25.01 25C25.01 24.7348 24.9046 24.4804 24.7171 24.2929C24.5296 24.1054 24.2752 24 24.01 24ZM28.01 24H28C27.7451 24.0003 27.5 24.0979 27.3146 24.2728C27.1293 24.4478 27.0178 24.687 27.0028 24.9414C26.9879 25.1958 27.0707 25.4464 27.2343 25.6418C27.3979 25.8373 27.6299 25.9629 27.883 25.993L28.01 26C28.2752 26 28.5296 25.8946 28.7171 25.7071C28.9046 25.5196 29.01 25.2652 29.01 25C29.01 24.7348 28.9046 24.4804 28.7171 24.2929C28.5296 24.1054 28.2752 24 28.01 24ZM31 19H17V21H31V19Z" fill="url(#paint1_linear_462_2361)"/>
</g>
<defs>
<filter id="filter0_di_462_2361" x="6" y="9" width="36" height="36" filterUnits="userSpaceOnUse" color-interpolation-filters="sRGB">
<feFlood flood-opacity="0" result="BackgroundImageFix"/>
<feColorMatrix in="SourceAlpha" type="matrix" values="0 0 0 0 0 0 0 0 0 0 0 0 0 0 0 0 0 0 127 0" result="hardAlpha"/>
<feOffset dy="3"/>
<feGaussianBlur stdDeviation="4.5"/>
<feComposite in2="hardAlpha" operator="out"/>
<feColorMatrix type="matrix" values="0 0 0 0 1 0 0 0 0 1 0 0 0 0 1 0 0 0 0.2 0"/>
<feBlend mode="normal" in2="BackgroundImageFix" result="effect1_dropShadow_462_2361"/>
<feBlend mode="normal" in="SourceGraphic" in2="effect1_dropShadow_462_2361" result="shape"/>
<feColorMatrix in="SourceAlpha" type="matrix" values="0 0 0 0 0 0 0 0 0 0 0 0 0 0 0 0 0 0 127 0" result="hardAlpha"/>
<feOffset/>
<feGaussianBlur stdDeviation="1.24444"/>
<feComposite in2="hardAlpha" operator="arithmetic" k2="-1" k3="1"/>
<feColorMatrix type="matrix" values="0 0 0 0 1 0 0 0 0 1 0 0 0 0 1 0 0 0 1 0"/>
<feBlend mode="normal" in2="shape" result="effect2_innerShadow_462_2361"/>
</filter>
<linearGradient id="paint0_linear_462_2361" x1="24" y1="0" x2="24" y2="48" gradientUnits="userSpaceOnUse">
<stop stop-color="#10DBDB"/>
<stop offset="1" stop-color="#0047A5"/>
</linearGradient>
<linearGradient id="paint1_linear_462_2361" x1="24" y1="15" x2="24" y2="33" gradientUnits="userSpaceOnUse">
<stop stop-color="#10DBDB"/>
<stop offset="1" stop-color="#0047A5"/>
</linearGradient>
</defs>
</svg>
