<svg width="48" height="48" viewBox="0 0 48 48" fill="none" xmlns="http://www.w3.org/2000/svg">
<g filter="url(#filter0_di_398_4357)">
<path fill-rule="evenodd" clip-rule="evenodd" d="M30.6667 6C31.1087 6 31.5326 6.17559 31.8452 6.48816C32.1577 6.80072 32.3333 7.22464 32.3333 7.66667V9.33333H35.6667C36.5507 9.33333 37.3986 9.68452 38.0237 10.3096C38.6488 10.9348 39 11.7826 39 12.6667V32.6667C39 33.5507 38.6488 34.3986 38.0237 35.0237C37.3986 35.6488 36.5507 36 35.6667 36H12.3333C11.4493 36 10.6014 35.6488 9.97631 35.0237C9.35119 34.3986 9 33.5507 9 32.6667V12.6667C9 11.7826 9.35119 10.9348 9.97631 10.3096C10.6014 9.68452 11.4493 9.33333 12.3333 9.33333H15.6667V7.66667C15.6667 7.22464 15.8423 6.80072 16.1548 6.48816C16.4674 6.17559 16.8913 6 17.3333 6C17.7754 6 18.1993 6.17559 18.5118 6.48816C18.8244 6.80072 19 7.22464 19 7.66667V9.33333H29V7.66667C29 7.22464 29.1756 6.80072 29.4882 6.48816C29.8007 6.17559 30.2246 6 30.6667 6ZM17.35 27.6667H17.3333C16.9085 27.6671 16.4999 27.8298 16.1911 28.1214C15.8822 28.413 15.6963 28.8116 15.6714 29.2357C15.6465 29.6597 15.7845 30.0773 16.0571 30.4031C16.3298 30.7288 16.7165 30.9382 17.1383 30.9883L17.35 31C17.792 31 18.216 30.8244 18.5285 30.5118C18.8411 30.1993 19.0167 29.7754 19.0167 29.3333C19.0167 28.8913 18.8411 28.4674 18.5285 28.1548C18.216 27.8423 17.792 27.6667 17.35 27.6667ZM24.0167 27.6667H24C23.5752 27.6671 23.1666 27.8298 22.8577 28.1214C22.5488 28.413 22.3629 28.8116 22.338 29.2357C22.3132 29.6597 22.4511 30.0773 22.7238 30.4031C22.9964 30.7288 23.3832 30.9382 23.805 30.9883L24.0167 31C24.4587 31 24.8826 30.8244 25.1952 30.5118C25.5077 30.1993 25.6833 29.7754 25.6833 29.3333C25.6833 28.8913 25.5077 28.4674 25.1952 28.1548C24.8826 27.8423 24.4587 27.6667 24.0167 27.6667ZM30.6833 27.6667H30.6667C30.2419 27.6671 29.8333 27.8298 29.5244 28.1214C29.2155 28.413 29.0296 28.8116 29.0047 29.2357C28.9798 29.6597 29.1178 30.0773 29.3904 30.4031C29.6631 30.7288 30.0498 30.9382 30.4717 30.9883L30.6833 31C31.1254 31 31.5493 30.8244 31.8618 30.5118C32.1744 30.1993 32.35 29.7754 32.35 29.3333C32.35 28.8913 32.1744 28.4674 31.8618 28.1548C31.5493 27.8423 31.1254 27.6667 30.6833 27.6667ZM17.35 21H17.3333C16.9085 21.0005 16.4999 21.1631 16.1911 21.4547C15.8822 21.7464 15.6963 22.1449 15.6714 22.569C15.6465 22.9931 15.7845 23.4106 16.0571 23.7364C16.3298 24.0621 16.7165 24.2715 17.1383 24.3217L17.35 24.3333C17.792 24.3333 18.216 24.1577 18.5285 23.8452C18.8411 23.5326 19.0167 23.1087 19.0167 22.6667C19.0167 22.2246 18.8411 21.8007 18.5285 21.4882C18.216 21.1756 17.792 21 17.35 21ZM24.0167 21H24C23.5752 21.0005 23.1666 21.1631 22.8577 21.4547C22.5488 21.7464 22.3629 22.1449 22.338 22.569C22.3132 22.9931 22.4511 23.4106 22.7238 23.7364C22.9964 24.0621 23.3832 24.2715 23.805 24.3217L24.0167 24.3333C24.4587 24.3333 24.8826 24.1577 25.1952 23.8452C25.5077 23.5326 25.6833 23.1087 25.6833 22.6667C25.6833 22.2246 25.5077 21.8007 25.1952 21.4882C24.8826 21.1756 24.4587 21 24.0167 21ZM30.6833 21H30.6667C30.2419 21.0005 29.8333 21.1631 29.5244 21.4547C29.2155 21.7464 29.0296 22.1449 29.0047 22.569C28.9798 22.9931 29.1178 23.4106 29.3904 23.7364C29.6631 24.0621 30.0498 24.2715 30.4717 24.3217L30.6833 24.3333C31.1254 24.3333 31.5493 24.1577 31.8618 23.8452C32.1744 23.5326 32.35 23.1087 32.35 22.6667C32.35 22.2246 32.1744 21.8007 31.8618 21.4882C31.5493 21.1756 31.1254 21 30.6833 21ZM35.6667 12.6667H12.3333V16H35.6667V12.6667Z" fill="url(#paint0_linear_398_4357)"/>
</g>
<defs>
<filter id="filter0_di_398_4357" x="0" y="0" width="48" height="48" filterUnits="userSpaceOnUse" color-interpolation-filters="sRGB">
<feFlood flood-opacity="0" result="BackgroundImageFix"/>
<feColorMatrix in="SourceAlpha" type="matrix" values="0 0 0 0 0 0 0 0 0 0 0 0 0 0 0 0 0 0 127 0" result="hardAlpha"/>
<feOffset dy="3"/>
<feGaussianBlur stdDeviation="4.5"/>
<feComposite in2="hardAlpha" operator="out"/>
<feColorMatrix type="matrix" values="0 0 0 0 1 0 0 0 0 1 0 0 0 0 1 0 0 0 0.2 0"/>
<feBlend mode="normal" in2="BackgroundImageFix" result="effect1_dropShadow_398_4357"/>
<feBlend mode="normal" in="SourceGraphic" in2="effect1_dropShadow_398_4357" result="shape"/>
<feColorMatrix in="SourceAlpha" type="matrix" values="0 0 0 0 0 0 0 0 0 0 0 0 0 0 0 0 0 0 127 0" result="hardAlpha"/>
<feOffset/>
<feGaussianBlur stdDeviation="1.24444"/>
<feComposite in2="hardAlpha" operator="arithmetic" k2="-1" k3="1"/>
<feColorMatrix type="matrix" values="0 0 0 0 1 0 0 0 0 1 0 0 0 0 1 0 0 0 1 0"/>
<feBlend mode="normal" in2="shape" result="effect2_innerShadow_398_4357"/>
</filter>
<linearGradient id="paint0_linear_398_4357" x1="24" y1="6" x2="24" y2="36" gradientUnits="userSpaceOnUse">
<stop stop-color="#10DBDB"/>
<stop offset="1" stop-color="#0047A5"/>
</linearGradient>
</defs>
</svg>
