<svg width="24" height="24" viewBox="0 0 24 24" fill="none" xmlns="http://www.w3.org/2000/svg">
<path d="M9 20.0001C9.26522 20.0001 9.51957 20.1054 9.70711 20.293C9.89465 20.4805 10 20.7349 10 21.0001C10 21.2653 9.89465 21.5196 9.70711 21.7072C9.51957 21.8947 9.26522 22.0001 9 22.0001C8.73479 22.0001 8.48043 21.8947 8.2929 21.7072C8.10536 21.5196 8 21.2653 8 21.0001C8 20.7349 8.10536 20.4805 8.2929 20.293C8.48043 20.1054 8.73479 20.0001 9 20.0001ZM16 20.0001C16.2652 20.0001 16.5196 20.1054 16.7071 20.293C16.8946 20.4805 17 20.7349 17 21.0001C17 21.2653 16.8946 21.5196 16.7071 21.7072C16.5196 21.8947 16.2652 22.0001 16 22.0001C15.7348 22.0001 15.4804 21.8947 15.2929 21.7072C15.1054 21.5196 15 21.2653 15 21.0001C15 20.7349 15.1054 20.4805 15.2929 20.293C15.4804 20.1054 15.7348 20.0001 16 20.0001ZM2.2 2.90008C2.34609 2.70525 2.55825 2.57043 2.79668 2.5209C3.0351 2.47138 3.28341 2.51055 3.495 2.63108L3.6 2.70108L5.308 3.98108C5.59867 4.19917 5.82442 4.49234 5.961 4.82908L6.021 5.00008H18.867C19.1381 5.00001 19.4064 5.05506 19.6556 5.16189C19.9047 5.26871 20.1296 5.42508 20.3165 5.62149C20.5033 5.8179 20.6483 6.05026 20.7426 6.30443C20.8369 6.55861 20.8786 6.82931 20.865 7.10008L20.852 7.24808L20.395 10.9031C20.2579 12.003 19.7591 13.0262 18.9771 13.8118C18.1951 14.5974 17.1743 15.1008 16.075 15.2431L15.849 15.2661L8.536 15.8761L8.796 17.0001H17.5C17.7549 17.0004 18 17.098 18.1854 17.2729C18.3707 17.4479 18.4822 17.687 18.4972 17.9415C18.5121 18.1959 18.4293 18.4465 18.2657 18.6419C18.1021 18.8374 17.8701 18.963 17.617 18.9931L17.5 19.0001H8.796C8.37161 19.0001 7.95819 18.8652 7.61555 18.6148C7.27291 18.3644 7.01881 18.0115 6.89 17.6071L6.847 17.4501L4.107 5.58008L2.4 4.30008C2.18783 4.14095 2.04756 3.90405 2.01005 3.6415C1.97255 3.37895 2.04087 3.11225 2.2 2.90008Z" fill="url(#paint0_linear_1_1828)"/>
<defs>
<linearGradient id="paint0_linear_1_1828" x1="11.4338" y1="2.5" x2="11.4338" y2="22.0001" gradientUnits="userSpaceOnUse">
<stop stop-color="#10DBDB"/>
<stop offset="1" stop-color="#0047A5"/>
</linearGradient>
</defs>
</svg>
