<svg width="48" height="48" viewBox="0 0 48 48" fill="none" xmlns="http://www.w3.org/2000/svg">
<rect width="48" height="48" rx="10" fill="url(#paint0_linear_279_1421)" fill-opacity="0.05"/>
<g filter="url(#filter0_di_279_1421)">
<path fill-rule="evenodd" clip-rule="evenodd" d="M23.298 14.1952C23.6926 14.0475 24.1238 14.0283 24.53 14.1402L24.702 14.1952L31.702 16.8202C32.0569 16.9533 32.3667 17.1845 32.5953 17.4869C32.8239 17.7893 32.9618 18.1504 32.993 18.5282L33 18.6932V24.0562C33 25.6766 32.5624 27.267 31.7336 28.6594C30.9048 30.0518 29.7154 31.1946 28.291 31.9672L28.025 32.1062L24.671 33.7832C24.4863 33.8754 24.2846 33.9285 24.0785 33.9392C23.8723 33.9498 23.6662 33.9178 23.473 33.8452L23.329 33.7832L19.975 32.1062C18.5256 31.3815 17.2988 30.2789 16.424 28.9148C15.5492 27.5507 15.059 25.9758 15.005 24.3562L15 24.0562V18.6932C15 18.3143 15.1076 17.9432 15.3103 17.6231C15.513 17.3031 15.8025 17.0471 16.145 16.8852L16.298 16.8202L23.298 14.1952ZM27.433 20.6292L22.835 25.2272L21.067 23.4592C20.8794 23.2717 20.6249 23.1664 20.3596 23.1665C20.0944 23.1666 19.84 23.272 19.6525 23.4597C19.465 23.6473 19.3597 23.9018 19.3598 24.167C19.3599 24.4323 19.4654 24.6867 19.653 24.8742L22.057 27.2782C22.1592 27.3804 22.2804 27.4614 22.4139 27.5168C22.5474 27.5721 22.6905 27.6005 22.835 27.6005C22.9795 27.6005 23.1226 27.5721 23.2561 27.5168C23.3896 27.4614 23.5108 27.3804 23.613 27.2782L28.847 22.0432C28.9425 21.9509 29.0187 21.8406 29.0711 21.7186C29.1235 21.5966 29.1511 21.4654 29.1523 21.3326C29.1534 21.1998 29.1281 21.0681 29.0778 20.9452C29.0275 20.8223 28.9533 20.7107 28.8594 20.6168C28.7655 20.5229 28.6539 20.4486 28.531 20.3984C28.4081 20.3481 28.2764 20.3228 28.1436 20.3239C28.0108 20.3251 27.8796 20.3527 27.7576 20.4051C27.6356 20.4575 27.5252 20.5337 27.433 20.6292Z" fill="url(#paint1_linear_279_1421)"/>
</g>
<defs>
<filter id="filter0_di_279_1421" x="6" y="8.06836" width="36" height="37.8726" filterUnits="userSpaceOnUse" color-interpolation-filters="sRGB">
<feFlood flood-opacity="0" result="BackgroundImageFix"/>
<feColorMatrix in="SourceAlpha" type="matrix" values="0 0 0 0 0 0 0 0 0 0 0 0 0 0 0 0 0 0 127 0" result="hardAlpha"/>
<feOffset dy="3"/>
<feGaussianBlur stdDeviation="4.5"/>
<feComposite in2="hardAlpha" operator="out"/>
<feColorMatrix type="matrix" values="0 0 0 0 1 0 0 0 0 1 0 0 0 0 1 0 0 0 0.2 0"/>
<feBlend mode="normal" in2="BackgroundImageFix" result="effect1_dropShadow_279_1421"/>
<feBlend mode="normal" in="SourceGraphic" in2="effect1_dropShadow_279_1421" result="shape"/>
<feColorMatrix in="SourceAlpha" type="matrix" values="0 0 0 0 0 0 0 0 0 0 0 0 0 0 0 0 0 0 127 0" result="hardAlpha"/>
<feOffset/>
<feGaussianBlur stdDeviation="1.24444"/>
<feComposite in2="hardAlpha" operator="arithmetic" k2="-1" k3="1"/>
<feColorMatrix type="matrix" values="0 0 0 0 1 0 0 0 0 1 0 0 0 0 1 0 0 0 1 0"/>
<feBlend mode="normal" in2="shape" result="effect2_innerShadow_279_1421"/>
</filter>
<linearGradient id="paint0_linear_279_1421" x1="24" y1="0" x2="24" y2="48" gradientUnits="userSpaceOnUse">
<stop stop-color="#10DBDB"/>
<stop offset="1" stop-color="#0047A5"/>
</linearGradient>
<linearGradient id="paint1_linear_279_1421" x1="24" y1="14.0684" x2="24" y2="33.9412" gradientUnits="userSpaceOnUse">
<stop stop-color="#10DBDB"/>
<stop offset="1" stop-color="#0047A5"/>
</linearGradient>
</defs>
</svg>
