<svg width="48" height="48" viewBox="0 0 48 48" fill="none" xmlns="http://www.w3.org/2000/svg">
<rect width="48" height="48" rx="10" fill="url(#paint0_linear_279_5510)" fill-opacity="0.05"/>
<g filter="url(#filter0_di_279_5510)">
<path d="M25 15C25.5046 14.9998 25.9906 15.1904 26.3605 15.5335C26.7305 15.8766 26.9572 16.3468 26.995 16.85L27 17V33H21V17C20.9998 16.4954 21.1904 16.0094 21.5335 15.6395C21.8766 15.2695 22.3468 15.0428 22.85 15.005L23 15H25ZM32 20C32.5304 20 33.0391 20.2107 33.4142 20.5858C33.7893 20.9609 34 21.4696 34 22V31C34 31.5304 33.7893 32.0391 33.4142 32.4142C33.0391 32.7893 32.5304 33 32 33H29V20H32ZM19 23V33H16C15.4696 33 14.9609 32.7893 14.5858 32.4142C14.2107 32.0391 14 31.5304 14 31V25C14 24.4696 14.2107 23.9609 14.5858 23.5858C14.9609 23.2107 15.4696 23 16 23H19Z" fill="url(#paint1_linear_279_5510)"/>
</g>
<defs>
<filter id="filter0_di_279_5510" x="5" y="9" width="38" height="36" filterUnits="userSpaceOnUse" color-interpolation-filters="sRGB">
<feFlood flood-opacity="0" result="BackgroundImageFix"/>
<feColorMatrix in="SourceAlpha" type="matrix" values="0 0 0 0 0 0 0 0 0 0 0 0 0 0 0 0 0 0 127 0" result="hardAlpha"/>
<feOffset dy="3"/>
<feGaussianBlur stdDeviation="4.5"/>
<feComposite in2="hardAlpha" operator="out"/>
<feColorMatrix type="matrix" values="0 0 0 0 1 0 0 0 0 1 0 0 0 0 1 0 0 0 0.2 0"/>
<feBlend mode="normal" in2="BackgroundImageFix" result="effect1_dropShadow_279_5510"/>
<feBlend mode="normal" in="SourceGraphic" in2="effect1_dropShadow_279_5510" result="shape"/>
<feColorMatrix in="SourceAlpha" type="matrix" values="0 0 0 0 0 0 0 0 0 0 0 0 0 0 0 0 0 0 127 0" result="hardAlpha"/>
<feOffset/>
<feGaussianBlur stdDeviation="1.24444"/>
<feComposite in2="hardAlpha" operator="arithmetic" k2="-1" k3="1"/>
<feColorMatrix type="matrix" values="0 0 0 0 1 0 0 0 0 1 0 0 0 0 1 0 0 0 1 0"/>
<feBlend mode="normal" in2="shape" result="effect2_innerShadow_279_5510"/>
</filter>
<linearGradient id="paint0_linear_279_5510" x1="24" y1="0" x2="24" y2="48" gradientUnits="userSpaceOnUse">
<stop stop-color="#10DBDB"/>
<stop offset="1" stop-color="#0047A5"/>
</linearGradient>
<linearGradient id="paint1_linear_279_5510" x1="24" y1="15" x2="24" y2="33" gradientUnits="userSpaceOnUse">
<stop stop-color="#10DBDB"/>
<stop offset="1" stop-color="#0047A5"/>
</linearGradient>
</defs>
</svg>
