<svg width="48" height="48" viewBox="0 0 48 48" fill="none" xmlns="http://www.w3.org/2000/svg">
<rect width="48" height="48" rx="10" fill="url(#paint0_linear_433_608)" fill-opacity="0.05"/>
<g filter="url(#filter0_di_433_608)">
<path fill-rule="evenodd" clip-rule="evenodd" d="M17.5 17C17.5 16.6022 17.342 16.2206 17.0607 15.9393C16.7794 15.658 16.3978 15.5 16 15.5C15.6022 15.5 15.2206 15.658 14.9393 15.9393C14.658 16.2206 14.5 16.6022 14.5 17V31C14.5 31.3978 14.658 31.7794 14.9393 32.0607C15.2206 32.342 15.6022 32.5 16 32.5H32C32.3978 32.5 32.7794 32.342 33.0607 32.0607C33.342 31.7794 33.5 31.3978 33.5 31C33.5 30.6022 33.342 30.2206 33.0607 29.9393C32.7794 29.658 32.3978 29.5 32 29.5H17.5V17ZM21.5 24C21.5 23.6022 21.342 23.2206 21.0607 22.9393C20.7794 22.658 20.3978 22.5 20 22.5C19.6022 22.5 19.2206 22.658 18.9393 22.9393C18.658 23.2206 18.5 23.6022 18.5 24V27C18.5 27.3978 18.658 27.7794 18.9393 28.0607C19.2206 28.342 19.6022 28.5 20 28.5C20.3978 28.5 20.7794 28.342 21.0607 28.0607C21.342 27.7794 21.5 27.3978 21.5 27V24ZM24 17.5C24.3978 17.5 24.7794 17.658 25.0607 17.9393C25.342 18.2206 25.5 18.6022 25.5 19V27C25.5 27.3978 25.342 27.7794 25.0607 28.0607C24.7794 28.342 24.3978 28.5 24 28.5C23.6022 28.5 23.2206 28.342 22.9393 28.0607C22.658 27.7794 22.5 27.3978 22.5 27V19C22.5 18.6022 22.658 18.2206 22.9393 17.9393C23.2206 17.658 23.6022 17.5 24 17.5ZM29.5 22C29.5 21.6022 29.342 21.2206 29.0607 20.9393C28.7794 20.658 28.3978 20.5 28 20.5C27.6022 20.5 27.2206 20.658 26.9393 20.9393C26.658 21.2206 26.5 21.6022 26.5 22V27C26.5 27.3978 26.658 27.7794 26.9393 28.0607C27.2206 28.342 27.6022 28.5 28 28.5C28.3978 28.5 28.7794 28.342 29.0607 28.0607C29.342 27.7794 29.5 27.3978 29.5 27V22Z" fill="url(#paint1_linear_433_608)"/>
</g>
<defs>
<filter id="filter0_di_433_608" x="5.5" y="9.5" width="37" height="35" filterUnits="userSpaceOnUse" color-interpolation-filters="sRGB">
<feFlood flood-opacity="0" result="BackgroundImageFix"/>
<feColorMatrix in="SourceAlpha" type="matrix" values="0 0 0 0 0 0 0 0 0 0 0 0 0 0 0 0 0 0 127 0" result="hardAlpha"/>
<feOffset dy="3"/>
<feGaussianBlur stdDeviation="4.5"/>
<feComposite in2="hardAlpha" operator="out"/>
<feColorMatrix type="matrix" values="0 0 0 0 1 0 0 0 0 1 0 0 0 0 1 0 0 0 0.2 0"/>
<feBlend mode="normal" in2="BackgroundImageFix" result="effect1_dropShadow_433_608"/>
<feBlend mode="normal" in="SourceGraphic" in2="effect1_dropShadow_433_608" result="shape"/>
<feColorMatrix in="SourceAlpha" type="matrix" values="0 0 0 0 0 0 0 0 0 0 0 0 0 0 0 0 0 0 127 0" result="hardAlpha"/>
<feOffset/>
<feGaussianBlur stdDeviation="1.24444"/>
<feComposite in2="hardAlpha" operator="arithmetic" k2="-1" k3="1"/>
<feColorMatrix type="matrix" values="0 0 0 0 1 0 0 0 0 1 0 0 0 0 1 0 0 0 1 0"/>
<feBlend mode="normal" in2="shape" result="effect2_innerShadow_433_608"/>
</filter>
<linearGradient id="paint0_linear_433_608" x1="24" y1="0" x2="24" y2="48" gradientUnits="userSpaceOnUse">
<stop stop-color="#10DBDB"/>
<stop offset="1" stop-color="#0047A5"/>
</linearGradient>
<linearGradient id="paint1_linear_433_608" x1="24" y1="15.5" x2="24" y2="32.5" gradientUnits="userSpaceOnUse">
<stop stop-color="#10DBDB"/>
<stop offset="1" stop-color="#0047A5"/>
</linearGradient>
</defs>
</svg>
