<svg width="144" height="144" viewBox="0 0 144 144" fill="none" xmlns="http://www.w3.org/2000/svg">
<g filter="url(#filter0_ddddi_1_1048)">
<path d="M72.0005 16.5757C78.5156 16.5757 85.0308 19.303 89.5762 24.909L97.758 35.0605C98.6671 36.2727 99.7277 37.3333 100.94 38.2423L111.091 46.4242C122.152 55.5151 122.152 72.4848 111.091 81.5757L101.091 89.7575C99.8793 90.6666 98.8186 91.7272 97.9096 92.9393L89.7277 103.091C80.6368 114.151 63.6671 114.151 54.5762 103.091L46.3944 92.9393C45.4853 91.7272 44.4247 90.6666 43.2126 89.7575L33.0611 81.5757C22.0005 72.4848 22.0005 55.5151 33.0611 46.4242L43.2126 38.2423C44.4247 37.3333 45.4853 36.2727 46.3944 35.0605L54.5762 24.909C58.9702 19.303 65.4853 16.5757 72.0005 16.5757Z" fill="url(#paint0_linear_1_1048)"/>
<path d="M72.0005 16.5757C78.5156 16.5757 85.0308 19.303 89.5762 24.909L97.758 35.0605C98.6671 36.2727 99.7277 37.3333 100.94 38.2423L111.091 46.4242C122.152 55.5151 122.152 72.4848 111.091 81.5757L101.091 89.7575C99.8793 90.6666 98.8186 91.7272 97.9096 92.9393L89.7277 103.091C80.6368 114.151 63.6671 114.151 54.5762 103.091L46.3944 92.9393C45.4853 91.7272 44.4247 90.6666 43.2126 89.7575L33.0611 81.5757C22.0005 72.4848 22.0005 55.5151 33.0611 46.4242L43.2126 38.2423C44.4247 37.3333 45.4853 36.2727 46.3944 35.0605L54.5762 24.909C58.9702 19.303 65.4853 16.5757 72.0005 16.5757Z" fill="url(#paint1_radial_1_1048)"/>
<path d="M72.0005 16.5757C78.5156 16.5757 85.0308 19.303 89.5762 24.909L97.758 35.0605C98.6671 36.2727 99.7277 37.3333 100.94 38.2423L111.091 46.4242C122.152 55.5151 122.152 72.4848 111.091 81.5757L101.091 89.7575C99.8793 90.6666 98.8186 91.7272 97.9096 92.9393L89.7277 103.091C80.6368 114.151 63.6671 114.151 54.5762 103.091L46.3944 92.9393C45.4853 91.7272 44.4247 90.6666 43.2126 89.7575L33.0611 81.5757C22.0005 72.4848 22.0005 55.5151 33.0611 46.4242L43.2126 38.2423C44.4247 37.3333 45.4853 36.2727 46.3944 35.0605L54.5762 24.909C58.9702 19.303 65.4853 16.5757 72.0005 16.5757Z" fill="url(#paint2_linear_1_1048)"/>
<path d="M72.0005 16.5757C78.5156 16.5757 85.0308 19.303 89.5762 24.909L97.758 35.0605C98.6671 36.2727 99.7277 37.3333 100.94 38.2423L111.091 46.4242C122.152 55.5151 122.152 72.4848 111.091 81.5757L101.091 89.7575C99.8793 90.6666 98.8186 91.7272 97.9096 92.9393L89.7277 103.091C80.6368 114.151 63.6671 114.151 54.5762 103.091L46.3944 92.9393C45.4853 91.7272 44.4247 90.6666 43.2126 89.7575L33.0611 81.5757C22.0005 72.4848 22.0005 55.5151 33.0611 46.4242L43.2126 38.2423C44.4247 37.3333 45.4853 36.2727 46.3944 35.0605L54.5762 24.909C58.9702 19.303 65.4853 16.5757 72.0005 16.5757Z" fill="url(#paint3_radial_1_1048)"/>
<g filter="url(#filter1_dddd_1_1048)">
<path d="M75.3249 82.1819C73.4509 82.1819 71.5881 82.1819 69.714 82.1819C69.4657 82.1819 69.206 82.1593 68.9576 82.1029C68.1561 81.9109 67.7384 81.3352 67.7723 80.4998C67.8287 79.3031 68.6641 78.3209 69.8269 78.0612C70.0076 78.0161 70.1995 78.0048 70.3801 78.0048C71.4639 78.0048 72.5477 78.0048 73.6315 78.0048C74.4895 78.0048 75.1669 78.3886 75.6862 79.0547C75.7426 79.1337 75.8104 79.1676 75.912 79.1676C77.5038 79.1789 79.0956 79.1902 80.6987 79.2128C82.2905 79.2353 83.6114 78.6031 84.7629 77.5419C85.6435 76.7178 86.3434 75.7582 86.8627 74.6744C87.2014 73.9857 87.574 73.3197 87.8788 72.6197C88.4771 71.2537 88.8497 69.8312 89.0529 68.3523C89.2222 67.133 89.2674 65.9025 89.1658 64.6719C88.7932 60.3029 87.0434 56.5774 83.8823 53.5405C81.6357 51.3842 78.994 49.9618 75.9684 49.2392C74.3201 48.8441 72.6606 48.6973 70.9785 48.8102C66.2369 49.1602 62.263 51.102 59.1019 54.6582C57.1037 56.9048 55.828 59.5352 55.2071 62.4931C54.9136 63.9042 54.8007 65.338 54.8684 66.7831C55.0039 69.4812 55.7264 72.0214 57.0473 74.3922C57.1714 74.618 57.2956 74.8437 57.3408 75.0921C57.4988 75.8485 57.0021 76.5823 56.2118 76.7855C55.5683 76.9549 54.9587 76.7291 54.62 76.142C54.3717 75.7243 54.1572 75.284 53.9314 74.8437C53.8975 74.776 53.8636 74.7196 53.7507 74.7308C51.2445 75.0018 48.6479 73.2632 48.0608 70.5199C47.9818 70.1473 47.9367 69.7522 47.9367 69.3683C47.9254 67.1105 47.9367 64.8639 47.9367 62.606C47.9367 60.1336 49.5962 57.9999 52.0009 57.3789C52.5541 57.2322 53.1298 57.1531 53.7056 57.2435C53.8411 57.266 53.8975 57.2209 53.9539 57.0967C54.7216 55.5162 55.6925 54.0485 56.8553 52.7277C59.2261 50.0295 62.1049 48.0877 65.5031 46.9136C66.8465 46.4507 68.2238 46.1346 69.635 45.9766C70.843 45.8298 72.0623 45.7846 73.2702 45.8637C77.9554 46.1911 82.076 47.8958 85.5757 51.0343C87.495 52.7503 89.0077 54.7936 90.1367 57.108C90.1819 57.1983 90.2157 57.266 90.3512 57.2435C91.2092 57.1306 92.0446 57.2773 92.8349 57.6273C94.6863 58.4401 95.7814 59.8626 96.1088 61.8721C96.1427 62.0979 96.1653 62.3237 96.1653 62.5608C96.1653 64.8638 96.1653 67.1556 96.1653 69.4587C96.1653 71.7843 94.5735 73.8841 92.3494 74.5502C91.6833 74.7534 90.9947 74.855 90.306 74.7534C90.2044 74.7421 90.1819 74.8099 90.148 74.8776C89.8432 75.476 89.5496 76.0856 89.2222 76.6839C88.2626 78.4564 86.9756 79.9466 85.2371 81.0078C83.9162 81.8093 82.4711 82.2158 80.9245 82.2271C79.073 82.2271 77.2102 82.2271 75.3588 82.2271L75.3249 82.1819Z" fill="white"/>
</g>
<g filter="url(#filter2_dddd_1_1048)">
<path d="M85.7675 67.1327C85.7562 68.1487 85.553 69.7405 84.9998 71.2759C84.8192 71.7839 84.5821 72.2581 84.2434 72.6758C83.9386 73.0484 83.5435 73.229 83.058 73.2629C82.1887 73.3193 81.342 73.2177 80.5066 73.0597C78.9825 72.7661 77.4585 72.45 75.9344 72.1678C74.2748 71.863 72.604 71.7388 70.9218 71.8291C69.522 71.9081 68.1446 72.1339 66.7673 72.4049C65.5819 72.6419 64.3852 72.8903 63.1998 73.1161C62.5451 73.2403 61.8677 73.2967 61.2016 73.2742C60.7049 73.2516 60.321 73.0371 59.9936 72.6984C59.5308 72.2129 59.2485 71.6259 59.0227 71.005C58.6502 70.0002 58.447 68.9616 58.3454 67.9004C58.2664 67.0537 58.2551 66.1957 58.3228 65.3489C58.447 63.8136 58.8195 62.3347 59.4179 60.9235C60.0952 59.3204 61.0323 57.8979 62.2064 56.6109C63.0305 55.7077 64.0466 55.3126 65.2545 55.3578C66.169 55.3916 67.0496 55.6174 67.9414 55.8206C68.822 56.0238 69.7139 56.2383 70.6057 56.3964C71.475 56.5544 72.3669 56.5432 73.2475 56.4303C74.4893 56.2722 75.686 55.9109 76.9053 55.6287C77.6729 55.4594 78.4406 55.3239 79.2309 55.3578C80.1792 55.4029 81.0033 55.7416 81.6694 56.4303C83.2838 58.1011 84.4353 60.0429 85.1353 62.2556C85.5756 63.6442 85.7901 65.0667 85.7788 67.144L85.7675 67.1327ZM62.3757 64.3216C62.3757 65.7215 63.4934 66.8504 64.9046 66.8504C66.2932 66.8504 67.4221 65.7215 67.4221 64.3329C67.4221 62.933 66.3045 61.8153 64.9158 61.804C63.5047 61.804 62.387 62.9217 62.387 64.3216H62.3757ZM81.6581 64.3329C81.6581 62.933 80.5518 61.804 79.1519 61.804C77.7633 61.804 76.623 62.9104 76.6117 64.2764C76.6117 65.6989 77.7068 66.8279 79.118 66.8392C80.5179 66.8504 81.6581 65.7328 81.6581 64.3329Z" fill="white"/>
</g>
</g>
<defs>
<filter id="filter0_ddddi_1_1048" x="-2" y="-2" width="148" height="148" filterUnits="userSpaceOnUse" color-interpolation-filters="sRGB">
<feFlood flood-opacity="0" result="BackgroundImageFix"/>
<feColorMatrix in="SourceAlpha" type="matrix" values="0 0 0 0 0 0 0 0 0 0 0 0 0 0 0 0 0 0 127 0" result="hardAlpha"/>
<feMorphology radius="8" operator="erode" in="SourceAlpha" result="effect1_dropShadow_1_1048"/>
<feOffset dy="8"/>
<feGaussianBlur stdDeviation="16"/>
<feColorMatrix type="matrix" values="0 0 0 0 0.0392157 0 0 0 0 0.486275 0 0 0 0 1 0 0 0 0.48 0"/>
<feBlend mode="normal" in2="BackgroundImageFix" result="effect1_dropShadow_1_1048"/>
<feColorMatrix in="SourceAlpha" type="matrix" values="0 0 0 0 0 0 0 0 0 0 0 0 0 0 0 0 0 0 127 0" result="hardAlpha"/>
<feOffset dy="4"/>
<feGaussianBlur stdDeviation="4"/>
<feColorMatrix type="matrix" values="0 0 0 0 0.0392157 0 0 0 0 0.486275 0 0 0 0 1 0 0 0 0.12 0"/>
<feBlend mode="normal" in2="effect1_dropShadow_1_1048" result="effect2_dropShadow_1_1048"/>
<feColorMatrix in="SourceAlpha" type="matrix" values="0 0 0 0 0 0 0 0 0 0 0 0 0 0 0 0 0 0 127 0" result="hardAlpha"/>
<feOffset dy="2"/>
<feGaussianBlur stdDeviation="3"/>
<feColorMatrix type="matrix" values="0 0 0 0 0.0392157 0 0 0 0 0.486275 0 0 0 0 1 0 0 0 0.24 0"/>
<feBlend mode="normal" in2="effect2_dropShadow_1_1048" result="effect3_dropShadow_1_1048"/>
<feColorMatrix in="SourceAlpha" type="matrix" values="0 0 0 0 0 0 0 0 0 0 0 0 0 0 0 0 0 0 127 0" result="hardAlpha"/>
<feOffset dy="1"/>
<feGaussianBlur stdDeviation="1.5"/>
<feColorMatrix type="matrix" values="0 0 0 0 0.0392157 0 0 0 0 0.486275 0 0 0 0 1 0 0 0 0.24 0"/>
<feBlend mode="normal" in2="effect3_dropShadow_1_1048" result="effect4_dropShadow_1_1048"/>
<feBlend mode="normal" in="SourceGraphic" in2="effect4_dropShadow_1_1048" result="shape"/>
<feColorMatrix in="SourceAlpha" type="matrix" values="0 0 0 0 0 0 0 0 0 0 0 0 0 0 0 0 0 0 127 0" result="hardAlpha"/>
<feOffset dx="1" dy="1"/>
<feGaussianBlur stdDeviation="1"/>
<feComposite in2="hardAlpha" operator="arithmetic" k2="-1" k3="1"/>
<feColorMatrix type="matrix" values="0 0 0 0 1 0 0 0 0 1 0 0 0 0 1 0 0 0 0.24 0"/>
<feBlend mode="normal" in2="shape" result="effect5_innerShadow_1_1048"/>
</filter>
<filter id="filter1_dddd_1_1048" x="15.9316" y="29.8252" width="112.233" height="100.402" filterUnits="userSpaceOnUse" color-interpolation-filters="sRGB">
<feFlood flood-opacity="0" result="BackgroundImageFix"/>
<feColorMatrix in="SourceAlpha" type="matrix" values="0 0 0 0 0 0 0 0 0 0 0 0 0 0 0 0 0 0 127 0" result="hardAlpha"/>
<feOffset dy="16"/>
<feGaussianBlur stdDeviation="16"/>
<feComposite in2="hardAlpha" operator="out"/>
<feColorMatrix type="matrix" values="0 0 0 0 1 0 0 0 0 1 0 0 0 0 1 0 0 0 0.48 0"/>
<feBlend mode="normal" in2="BackgroundImageFix" result="effect1_dropShadow_1_1048"/>
<feColorMatrix in="SourceAlpha" type="matrix" values="0 0 0 0 0 0 0 0 0 0 0 0 0 0 0 0 0 0 127 0" result="hardAlpha"/>
<feOffset dy="4"/>
<feGaussianBlur stdDeviation="4"/>
<feComposite in2="hardAlpha" operator="out"/>
<feColorMatrix type="matrix" values="0 0 0 0 1 0 0 0 0 1 0 0 0 0 1 0 0 0 0.12 0"/>
<feBlend mode="normal" in2="effect1_dropShadow_1_1048" result="effect2_dropShadow_1_1048"/>
<feColorMatrix in="SourceAlpha" type="matrix" values="0 0 0 0 0 0 0 0 0 0 0 0 0 0 0 0 0 0 127 0" result="hardAlpha"/>
<feOffset dy="2"/>
<feGaussianBlur stdDeviation="3"/>
<feComposite in2="hardAlpha" operator="out"/>
<feColorMatrix type="matrix" values="0 0 0 0 1 0 0 0 0 1 0 0 0 0 1 0 0 0 0.24 0"/>
<feBlend mode="normal" in2="effect2_dropShadow_1_1048" result="effect3_dropShadow_1_1048"/>
<feColorMatrix in="SourceAlpha" type="matrix" values="0 0 0 0 0 0 0 0 0 0 0 0 0 0 0 0 0 0 127 0" result="hardAlpha"/>
<feOffset dy="1"/>
<feGaussianBlur stdDeviation="1.5"/>
<feComposite in2="hardAlpha" operator="out"/>
<feColorMatrix type="matrix" values="0 0 0 0 1 0 0 0 0 1 0 0 0 0 1 0 0 0 0.24 0"/>
<feBlend mode="normal" in2="effect3_dropShadow_1_1048" result="effect4_dropShadow_1_1048"/>
<feBlend mode="normal" in="SourceGraphic" in2="effect4_dropShadow_1_1048" result="shape"/>
</filter>
<filter id="filter2_dddd_1_1048" x="26.2783" y="39.3525" width="91.501" height="81.9263" filterUnits="userSpaceOnUse" color-interpolation-filters="sRGB">
<feFlood flood-opacity="0" result="BackgroundImageFix"/>
<feColorMatrix in="SourceAlpha" type="matrix" values="0 0 0 0 0 0 0 0 0 0 0 0 0 0 0 0 0 0 127 0" result="hardAlpha"/>
<feOffset dy="16"/>
<feGaussianBlur stdDeviation="16"/>
<feComposite in2="hardAlpha" operator="out"/>
<feColorMatrix type="matrix" values="0 0 0 0 1 0 0 0 0 1 0 0 0 0 1 0 0 0 0.48 0"/>
<feBlend mode="normal" in2="BackgroundImageFix" result="effect1_dropShadow_1_1048"/>
<feColorMatrix in="SourceAlpha" type="matrix" values="0 0 0 0 0 0 0 0 0 0 0 0 0 0 0 0 0 0 127 0" result="hardAlpha"/>
<feOffset dy="4"/>
<feGaussianBlur stdDeviation="4"/>
<feComposite in2="hardAlpha" operator="out"/>
<feColorMatrix type="matrix" values="0 0 0 0 1 0 0 0 0 1 0 0 0 0 1 0 0 0 0.12 0"/>
<feBlend mode="normal" in2="effect1_dropShadow_1_1048" result="effect2_dropShadow_1_1048"/>
<feColorMatrix in="SourceAlpha" type="matrix" values="0 0 0 0 0 0 0 0 0 0 0 0 0 0 0 0 0 0 127 0" result="hardAlpha"/>
<feOffset dy="2"/>
<feGaussianBlur stdDeviation="3"/>
<feComposite in2="hardAlpha" operator="out"/>
<feColorMatrix type="matrix" values="0 0 0 0 1 0 0 0 0 1 0 0 0 0 1 0 0 0 0.24 0"/>
<feBlend mode="normal" in2="effect2_dropShadow_1_1048" result="effect3_dropShadow_1_1048"/>
<feColorMatrix in="SourceAlpha" type="matrix" values="0 0 0 0 0 0 0 0 0 0 0 0 0 0 0 0 0 0 127 0" result="hardAlpha"/>
<feOffset dy="1"/>
<feGaussianBlur stdDeviation="1.5"/>
<feComposite in2="hardAlpha" operator="out"/>
<feColorMatrix type="matrix" values="0 0 0 0 1 0 0 0 0 1 0 0 0 0 1 0 0 0 0.24 0"/>
<feBlend mode="normal" in2="effect3_dropShadow_1_1048" result="effect4_dropShadow_1_1048"/>
<feBlend mode="normal" in="SourceGraphic" in2="effect4_dropShadow_1_1048" result="shape"/>
</filter>
<linearGradient id="paint0_linear_1_1048" x1="72.0762" y1="16.5757" x2="72.0762" y2="111.386" gradientUnits="userSpaceOnUse">
<stop stop-color="#10DBDB"/>
<stop offset="1" stop-color="#0047A5"/>
</linearGradient>
<radialGradient id="paint1_radial_1_1048" cx="0" cy="0" r="1" gradientTransform="matrix(47.3106 47.4053 -47.3106 47.4053 72.0762 63.981)" gradientUnits="userSpaceOnUse">
<stop stop-color="white" stop-opacity="0.12"/>
<stop offset="1" stop-opacity="0"/>
</radialGradient>
<linearGradient id="paint2_linear_1_1048" x1="72.0762" y1="16.5757" x2="72.0762" y2="111.386" gradientUnits="userSpaceOnUse">
<stop stop-color="#10DBDB"/>
<stop offset="1" stop-color="#0047A5"/>
</linearGradient>
<radialGradient id="paint3_radial_1_1048" cx="0" cy="0" r="1" gradientTransform="matrix(47.3106 47.4053 -47.3106 47.4053 72.0762 63.981)" gradientUnits="userSpaceOnUse">
<stop stop-color="white" stop-opacity="0.12"/>
<stop offset="1" stop-opacity="0"/>
</radialGradient>
</defs>
</svg>
