<svg width="48" height="48" viewBox="0 0 48 48" fill="none" xmlns="http://www.w3.org/2000/svg">
<rect width="48" height="48" rx="10" fill="url(#paint0_linear_398_3821)" fill-opacity="0.05"/>
<g filter="url(#filter0_di_398_3821)">
<path fill-rule="evenodd" clip-rule="evenodd" d="M15.999 29V17C15.999 16.2044 16.3151 15.4413 16.8777 14.8787C17.4403 14.3161 18.2034 14 18.999 14H28.999C29.7947 14 30.5577 14.3161 31.1203 14.8787C31.6829 15.4413 31.999 16.2044 31.999 17V29C32.2331 29.0002 32.4597 29.0826 32.6393 29.2327C32.8189 29.3829 32.9402 29.5913 32.982 29.8216C33.0237 30.052 32.9833 30.2897 32.8679 30.4933C32.7524 30.6969 32.5691 30.8536 32.35 30.936L24.35 33.936C24.1237 34.0208 23.8743 34.0208 23.648 33.936L15.648 30.936C15.4289 30.8536 15.2456 30.6969 15.1301 30.4933C15.0147 30.2897 14.9743 30.052 15.016 29.8216C15.0578 29.5913 15.1791 29.3829 15.3587 29.2327C15.5383 29.0826 15.7649 29.0002 15.999 29ZM24.999 18C24.999 17.7348 24.8936 17.4804 24.7061 17.2929C24.5186 17.1054 24.2642 17 23.999 17C23.7338 17 23.4794 17.1054 23.2919 17.2929C23.1044 17.4804 22.999 17.7348 22.999 18V19H21.999C21.336 19 20.7001 19.2634 20.2312 19.7322C19.7624 20.2011 19.499 20.837 19.499 21.5C19.499 22.163 19.7624 22.7989 20.2312 23.2678C20.7001 23.7366 21.336 24 21.999 24H25.999C26.1316 24 26.2588 24.0527 26.3526 24.1464C26.4463 24.2402 26.499 24.3674 26.499 24.5C26.499 24.6326 26.4463 24.7598 26.3526 24.8536C26.2588 24.9473 26.1316 25 25.999 25H20.999C20.7338 25 20.4794 25.1054 20.2919 25.2929C20.1044 25.4804 19.999 25.7348 19.999 26C19.999 26.2652 20.1044 26.5196 20.2919 26.7071C20.4794 26.8946 20.7338 27 20.999 27H22.999V28C22.999 28.2652 23.1044 28.5196 23.2919 28.7071C23.4794 28.8946 23.7338 29 23.999 29C24.2642 29 24.5186 28.8946 24.7061 28.7071C24.8936 28.5196 24.999 28.2652 24.999 28V27H25.999C26.662 27 27.2979 26.7366 27.7668 26.2678C28.2356 25.7989 28.499 25.163 28.499 24.5C28.499 23.837 28.2356 23.2011 27.7668 22.7322C27.2979 22.2634 26.662 22 25.999 22H21.999C21.8664 22 21.7392 21.9473 21.6454 21.8536C21.5517 21.7598 21.499 21.6326 21.499 21.5C21.499 21.3674 21.5517 21.2402 21.6454 21.1464C21.7392 21.0527 21.8664 21 21.999 21H26.999C27.2642 21 27.5186 20.8946 27.7061 20.7071C27.8936 20.5196 27.999 20.2652 27.999 20C27.999 19.7348 27.8936 19.4804 27.7061 19.2929C27.5186 19.1054 27.2642 19 26.999 19H24.999V18Z" fill="url(#paint1_linear_398_3821)"/>
</g>
<defs>
<filter id="filter0_di_398_3821" x="6" y="8" width="35.9961" height="37.9995" filterUnits="userSpaceOnUse" color-interpolation-filters="sRGB">
<feFlood flood-opacity="0" result="BackgroundImageFix"/>
<feColorMatrix in="SourceAlpha" type="matrix" values="0 0 0 0 0 0 0 0 0 0 0 0 0 0 0 0 0 0 127 0" result="hardAlpha"/>
<feOffset dy="3"/>
<feGaussianBlur stdDeviation="4.5"/>
<feComposite in2="hardAlpha" operator="out"/>
<feColorMatrix type="matrix" values="0 0 0 0 1 0 0 0 0 1 0 0 0 0 1 0 0 0 0.2 0"/>
<feBlend mode="normal" in2="BackgroundImageFix" result="effect1_dropShadow_398_3821"/>
<feBlend mode="normal" in="SourceGraphic" in2="effect1_dropShadow_398_3821" result="shape"/>
<feColorMatrix in="SourceAlpha" type="matrix" values="0 0 0 0 0 0 0 0 0 0 0 0 0 0 0 0 0 0 127 0" result="hardAlpha"/>
<feOffset/>
<feGaussianBlur stdDeviation="1.24444"/>
<feComposite in2="hardAlpha" operator="arithmetic" k2="-1" k3="1"/>
<feColorMatrix type="matrix" values="0 0 0 0 1 0 0 0 0 1 0 0 0 0 1 0 0 0 1 0"/>
<feBlend mode="normal" in2="shape" result="effect2_innerShadow_398_3821"/>
</filter>
<linearGradient id="paint0_linear_398_3821" x1="24" y1="0" x2="24" y2="48" gradientUnits="userSpaceOnUse">
<stop stop-color="#10DBDB"/>
<stop offset="1" stop-color="#0047A5"/>
</linearGradient>
<linearGradient id="paint1_linear_398_3821" x1="23.999" y1="14" x2="23.999" y2="33.9996" gradientUnits="userSpaceOnUse">
<stop stop-color="#10DBDB"/>
<stop offset="1" stop-color="#0047A5"/>
</linearGradient>
</defs>
</svg>
