<svg width="25" height="24" viewBox="0 0 25 24" fill="none" xmlns="http://www.w3.org/2000/svg">
<path fill-rule="evenodd" clip-rule="evenodd" d="M6.5 2C5.96957 2 5.46086 2.21071 5.08579 2.58579C4.71071 2.96086 4.5 3.46957 4.5 4V5C4.23478 5 3.98043 5.10536 3.79289 5.29289C3.60536 5.48043 3.5 5.73478 3.5 6C3.5 6.26522 3.60536 6.51957 3.79289 6.70711C3.98043 6.89464 4.23478 7 4.5 7V9C4.23478 9 3.98043 9.10536 3.79289 9.29289C3.60536 9.48043 3.5 9.73478 3.5 10C3.5 10.2652 3.60536 10.5196 3.79289 10.7071C3.98043 10.8946 4.23478 11 4.5 11V13C4.23478 13 3.98043 13.1054 3.79289 13.2929C3.60536 13.4804 3.5 13.7348 3.5 14C3.5 14.2652 3.60536 14.5196 3.79289 14.7071C3.98043 14.8946 4.23478 15 4.5 15V17C4.23478 17 3.98043 17.1054 3.79289 17.2929C3.60536 17.4804 3.5 17.7348 3.5 18C3.5 18.2652 3.60536 18.5196 3.79289 18.7071C3.98043 18.8946 4.23478 19 4.5 19V20C4.5 20.5304 4.71071 21.0391 5.08579 21.4142C5.46086 21.7893 5.96957 22 6.5 22H18.5C19.0304 22 19.5391 21.7893 19.9142 21.4142C20.2893 21.0391 20.5 20.5304 20.5 20V4C20.5 3.46957 20.2893 2.96086 19.9142 2.58579C19.5391 2.21071 19.0304 2 18.5 2H6.5ZM9 6C8.60218 6 8.22064 6.15804 7.93934 6.43934C7.65804 6.72064 7.5 7.10218 7.5 7.5V8.5C7.5 8.89782 7.65804 9.27936 7.93934 9.56066C8.22064 9.84196 8.60218 10 9 10H16C16.3978 10 16.7794 9.84196 17.0607 9.56066C17.342 9.27936 17.5 8.89782 17.5 8.5V7.5C17.5 7.10218 17.342 6.72064 17.0607 6.43934C16.7794 6.15804 16.3978 6 16 6H9Z" fill="url(#paint0_linear_1_3203)"/>
<defs>
<linearGradient id="paint0_linear_1_3203" x1="12" y1="2" x2="12" y2="22" gradientUnits="userSpaceOnUse">
<stop stop-color="#10DBDB"/>
<stop offset="1" stop-color="#0047A5"/>
</linearGradient>
</defs>
</svg>
