<svg width="24" height="24" viewBox="0 0 24 24" fill="none" xmlns="http://www.w3.org/2000/svg">
<path d="M8.20663 11.7572C8.29961 11.8501 8.37337 11.9604 8.42369 12.0818C8.47401 12.2032 8.49992 12.3333 8.49992 12.4647C8.49992 12.5961 8.47401 12.7263 8.42369 12.8477C8.37337 12.9691 8.29961 13.0793 8.20663 13.1722L6.37963 15.0002H15.9996C16.2648 15.0002 16.5192 15.1056 16.7067 15.2931C16.8943 15.4806 16.9996 15.735 16.9996 16.0002C16.9996 16.2654 16.8943 16.5198 16.7067 16.7073C16.5192 16.8949 16.2648 17.0002 15.9996 17.0002H6.37963L8.20763 18.8282C8.30054 18.9211 8.37425 19.0313 8.42456 19.1526C8.47487 19.274 8.50079 19.404 8.50083 19.5354C8.50088 19.6667 8.47505 19.7968 8.42483 19.9182C8.37461 20.0395 8.30097 20.1498 8.20813 20.2427C8.11529 20.3356 8.00505 20.4093 7.88372 20.4596C7.76239 20.51 7.63233 20.5359 7.50098 20.5359C7.36964 20.536 7.23956 20.5101 7.1182 20.4599C6.99683 20.4097 6.88654 20.3361 6.79363 20.2432L3.25763 16.7072C3.07016 16.5197 2.96484 16.2654 2.96484 16.0002C2.96484 15.7351 3.07016 15.4807 3.25763 15.2932L6.79363 11.7572C6.98116 11.5697 7.23547 11.4644 7.50063 11.4644C7.76579 11.4644 8.0201 11.5697 8.20763 11.7572H8.20663ZM15.7926 3.75722C15.9648 3.58504 16.1939 3.48161 16.4369 3.46633C16.68 3.45105 16.9202 3.52497 17.1126 3.67422L17.2066 3.75722L20.7426 7.29322C20.9148 7.46541 21.0182 7.69451 21.0335 7.93754C21.0488 8.18056 20.9749 8.42081 20.8256 8.61322L20.7426 8.70722L17.2066 12.2422C17.0267 12.4216 16.7852 12.5257 16.5312 12.5334C16.2773 12.5412 16.0299 12.452 15.8394 12.284C15.6488 12.1159 15.5293 11.8817 15.5052 11.6287C15.4811 11.3758 15.5542 11.1232 15.7096 10.9222L15.7926 10.8282L17.6196 9.00022H7.99963C7.74475 8.99993 7.4996 8.90234 7.31426 8.72737C7.12893 8.5524 7.0174 8.31326 7.00246 8.05882C6.98752 7.80438 7.0703 7.55384 7.2339 7.35838C7.39749 7.16293 7.62953 7.03732 7.88263 7.00722L7.99963 7.00022H17.6206L15.7926 5.17022C15.6052 4.98269 15.4998 4.72838 15.4998 4.46322C15.4998 4.19805 15.6052 3.94474 15.7926 3.75722Z" fill="url(#paint0_linear_1_2693)"/>
<defs>
<linearGradient id="paint0_linear_1_2693" x1="12.0002" y1="3.46436" x2="12.0002" y2="20.5359" gradientUnits="userSpaceOnUse">
<stop stop-color="#10DBDB"/>
<stop offset="1" stop-color="#0047A5"/>
</linearGradient>
</defs>
</svg>
