<svg width="48" height="48" viewBox="0 0 48 48" fill="none" xmlns="http://www.w3.org/2000/svg">
<rect width="48" height="48" rx="10" fill="url(#paint0_linear_517_3869)" fill-opacity="0.05"/>
<g filter="url(#filter0_di_517_3869)">
<path fill-rule="evenodd" clip-rule="evenodd" d="M24 14V20.5C24 20.8978 24.158 21.2794 24.4393 21.5607C24.7206 21.842 25.1022 22 25.5 22H32V32C32 32.5304 31.7893 33.0391 31.4142 33.4142C31.0391 33.7893 30.5304 34 30 34H18C17.4696 34 16.9609 33.7893 16.5858 33.4142C16.2107 33.0391 16 32.5304 16 32V16C16 15.4696 16.2107 14.9609 16.5858 14.5858C16.9609 14.2107 17.4696 14 18 14H24ZM27 27H21C20.7348 27 20.4804 27.1054 20.2929 27.2929C20.1054 27.4804 20 27.7348 20 28C20 28.2652 20.1054 28.5196 20.2929 28.7071C20.4804 28.8946 20.7348 29 21 29H27C27.2652 29 27.5196 28.8946 27.7071 28.7071C27.8946 28.5196 28 28.2652 28 28C28 27.7348 27.8946 27.4804 27.7071 27.2929C27.5196 27.1054 27.2652 27 27 27ZM22 23H21C20.7348 23 20.4804 23.1054 20.2929 23.2929C20.1054 23.4804 20 23.7348 20 24C20 24.2652 20.1054 24.5196 20.2929 24.7071C20.4804 24.8946 20.7348 25 21 25H22C22.2652 25 22.5196 24.8946 22.7071 24.7071C22.8946 24.5196 23 24.2652 23 24C23 23.7348 22.8946 23.4804 22.7071 23.2929C22.5196 23.1054 22.2652 23 22 23ZM26 14.043C26.3789 14.1234 26.7263 14.312 27 14.586L31.414 19C31.688 19.2737 31.8766 19.6211 31.957 20H26V14.043Z" fill="url(#paint1_linear_517_3869)"/>
</g>
<defs>
<filter id="filter0_di_517_3869" x="7" y="8" width="34" height="38" filterUnits="userSpaceOnUse" color-interpolation-filters="sRGB">
<feFlood flood-opacity="0" result="BackgroundImageFix"/>
<feColorMatrix in="SourceAlpha" type="matrix" values="0 0 0 0 0 0 0 0 0 0 0 0 0 0 0 0 0 0 127 0" result="hardAlpha"/>
<feOffset dy="3"/>
<feGaussianBlur stdDeviation="4.5"/>
<feComposite in2="hardAlpha" operator="out"/>
<feColorMatrix type="matrix" values="0 0 0 0 1 0 0 0 0 1 0 0 0 0 1 0 0 0 0.2 0"/>
<feBlend mode="normal" in2="BackgroundImageFix" result="effect1_dropShadow_517_3869"/>
<feBlend mode="normal" in="SourceGraphic" in2="effect1_dropShadow_517_3869" result="shape"/>
<feColorMatrix in="SourceAlpha" type="matrix" values="0 0 0 0 0 0 0 0 0 0 0 0 0 0 0 0 0 0 127 0" result="hardAlpha"/>
<feOffset/>
<feGaussianBlur stdDeviation="1.24444"/>
<feComposite in2="hardAlpha" operator="arithmetic" k2="-1" k3="1"/>
<feColorMatrix type="matrix" values="0 0 0 0 1 0 0 0 0 1 0 0 0 0 1 0 0 0 1 0"/>
<feBlend mode="normal" in2="shape" result="effect2_innerShadow_517_3869"/>
</filter>
<linearGradient id="paint0_linear_517_3869" x1="24" y1="0" x2="24" y2="48" gradientUnits="userSpaceOnUse">
<stop stop-color="#10DBDB"/>
<stop offset="1" stop-color="#0047A5"/>
</linearGradient>
<linearGradient id="paint1_linear_517_3869" x1="24" y1="14" x2="24" y2="34" gradientUnits="userSpaceOnUse">
<stop stop-color="#10DBDB"/>
<stop offset="1" stop-color="#0047A5"/>
</linearGradient>
</defs>
</svg>
