<svg width="48" height="48" viewBox="0 0 48 48" fill="none" xmlns="http://www.w3.org/2000/svg">
<rect width="48" height="48" rx="10" fill="url(#paint0_linear_462_1353)" fill-opacity="0.05"/>
<g filter="url(#filter0_di_462_1353)">
<path fill-rule="evenodd" clip-rule="evenodd" d="M14 24C14 18.477 18.477 14 24 14C29.523 14 34 18.477 34 24C34 29.523 29.523 34 24 34C18.477 34 14 29.523 14 24ZM25 19C25 18.7348 24.8946 18.4804 24.7071 18.2929C24.5196 18.1054 24.2652 18 24 18C23.7348 18 23.4804 18.1054 23.2929 18.2929C23.1054 18.4804 23 18.7348 23 19V20H22C21.337 20 20.7011 20.2634 20.2322 20.7322C19.7634 21.2011 19.5 21.837 19.5 22.5C19.5 23.163 19.7634 23.7989 20.2322 24.2678C20.7011 24.7366 21.337 25 22 25H26C26.1326 25 26.2598 25.0527 26.3536 25.1464C26.4473 25.2402 26.5 25.3674 26.5 25.5C26.5 25.6326 26.4473 25.7598 26.3536 25.8536C26.2598 25.9473 26.1326 26 26 26H21C20.7348 26 20.4804 26.1054 20.2929 26.2929C20.1054 26.4804 20 26.7348 20 27C20 27.2652 20.1054 27.5196 20.2929 27.7071C20.4804 27.8946 20.7348 28 21 28H23V29C23 29.2652 23.1054 29.5196 23.2929 29.7071C23.4804 29.8946 23.7348 30 24 30C24.2652 30 24.5196 29.8946 24.7071 29.7071C24.8946 29.5196 25 29.2652 25 29V28H26C26.663 28 27.2989 27.7366 27.7678 27.2678C28.2366 26.7989 28.5 26.163 28.5 25.5C28.5 24.837 28.2366 24.2011 27.7678 23.7322C27.2989 23.2634 26.663 23 26 23H22C21.8674 23 21.7402 22.9473 21.6464 22.8536C21.5527 22.7598 21.5 22.6326 21.5 22.5C21.5 22.3674 21.5527 22.2402 21.6464 22.1464C21.7402 22.0527 21.8674 22 22 22H27C27.2652 22 27.5196 21.8946 27.7071 21.7071C27.8946 21.5196 28 21.2652 28 21C28 20.7348 27.8946 20.4804 27.7071 20.2929C27.5196 20.1054 27.2652 20 27 20H25V19Z" fill="url(#paint1_linear_462_1353)"/>
</g>
<defs>
<filter id="filter0_di_462_1353" x="5" y="8" width="38" height="38" filterUnits="userSpaceOnUse" color-interpolation-filters="sRGB">
<feFlood flood-opacity="0" result="BackgroundImageFix"/>
<feColorMatrix in="SourceAlpha" type="matrix" values="0 0 0 0 0 0 0 0 0 0 0 0 0 0 0 0 0 0 127 0" result="hardAlpha"/>
<feOffset dy="3"/>
<feGaussianBlur stdDeviation="4.5"/>
<feComposite in2="hardAlpha" operator="out"/>
<feColorMatrix type="matrix" values="0 0 0 0 1 0 0 0 0 1 0 0 0 0 1 0 0 0 0.2 0"/>
<feBlend mode="normal" in2="BackgroundImageFix" result="effect1_dropShadow_462_1353"/>
<feBlend mode="normal" in="SourceGraphic" in2="effect1_dropShadow_462_1353" result="shape"/>
<feColorMatrix in="SourceAlpha" type="matrix" values="0 0 0 0 0 0 0 0 0 0 0 0 0 0 0 0 0 0 127 0" result="hardAlpha"/>
<feOffset/>
<feGaussianBlur stdDeviation="1.24444"/>
<feComposite in2="hardAlpha" operator="arithmetic" k2="-1" k3="1"/>
<feColorMatrix type="matrix" values="0 0 0 0 1 0 0 0 0 1 0 0 0 0 1 0 0 0 1 0"/>
<feBlend mode="normal" in2="shape" result="effect2_innerShadow_462_1353"/>
</filter>
<linearGradient id="paint0_linear_462_1353" x1="24" y1="0" x2="24" y2="48" gradientUnits="userSpaceOnUse">
<stop stop-color="#10DBDB"/>
<stop offset="1" stop-color="#0047A5"/>
</linearGradient>
<linearGradient id="paint1_linear_462_1353" x1="24" y1="14" x2="24" y2="34" gradientUnits="userSpaceOnUse">
<stop stop-color="#10DBDB"/>
<stop offset="1" stop-color="#0047A5"/>
</linearGradient>
</defs>
</svg>
