<svg width="48" height="48" viewBox="0 0 48 48" fill="none" xmlns="http://www.w3.org/2000/svg">
<g clip-path="url(#clip0_207_723)">
<g filter="url(#filter0_di_207_723)">
<path fill-rule="evenodd" clip-rule="evenodd" d="M19.972 8.51C19.472 10.18 19.046 12.09 18.72 14.19C22.2354 13.935 25.7646 13.935 29.28 14.19C28.9926 12.2703 28.5743 10.3726 28.028 8.51C26.7124 8.16998 25.3589 7.99861 24 8C22.606 8 21.258 8.178 19.972 8.51ZM32.676 10.554C32.952 11.838 33.19 13.196 33.384 14.614C34.804 14.81 36.164 15.048 37.446 15.324C36.2108 13.4149 34.5851 11.7892 32.676 10.554ZM39.49 19.972C37.82 19.472 35.91 19.046 33.81 18.72C34.0649 22.2354 34.0649 25.7646 33.81 29.28C35.7297 28.9926 37.6274 28.5743 39.49 28.028C39.83 26.7124 40.0014 25.3589 40 24C40 22.606 39.822 21.258 39.49 19.972ZM37.446 32.676C36.1021 32.9634 34.7478 33.1996 33.386 33.384C33.201 34.7465 32.9642 36.1015 32.676 37.446C34.5851 36.2108 36.2108 34.5851 37.446 32.676ZM28.028 39.49C28.528 37.82 28.954 35.91 29.28 33.81C25.7646 34.0649 22.2354 34.0649 18.72 33.81C19.046 35.91 19.47 37.82 19.972 39.49C21.2876 39.83 22.6411 40.0014 24 40C25.394 40 26.742 39.822 28.028 39.49ZM15.324 37.446C15.0365 36.1021 14.8003 34.7478 14.616 33.386C13.2535 33.201 11.8985 32.9642 10.554 32.676C11.7892 34.5851 13.4149 36.2108 15.324 37.446ZM8.51001 28.028C10.18 28.528 12.09 28.954 14.19 29.28C13.935 25.7646 13.935 22.2354 14.19 18.72C12.2704 19.0075 10.3726 19.4258 8.51001 19.972C8.16997 21.2876 7.99859 22.6411 8.00001 24C8.00001 25.394 8.17801 26.742 8.51001 28.028ZM10.554 15.324C11.8979 15.0365 13.2522 14.8003 14.614 14.616C14.81 13.196 15.048 11.836 15.324 10.554C13.4149 11.7892 11.7892 13.4149 10.554 15.324ZM18.238 18.24C18.0778 20.1558 17.9984 22.0775 18 24C18 25.996 18.084 27.926 18.24 29.76C20.074 29.916 22.004 30 24 30C25.996 30 27.926 29.916 29.76 29.76C29.916 27.926 30 25.996 30 24C30 22.004 29.916 20.074 29.76 18.24C27.8442 18.0791 25.9225 17.999 24 18C22.004 18 20.072 18.084 18.238 18.24ZM17.768 4.994C19.7796 4.33469 21.8831 3.99917 24 4C26.174 4 28.27 4.348 30.234 4.992C36.266 6.968 41.032 11.732 43.008 17.766C43.652 19.73 44 21.826 44 24C44.0023 26.1173 43.6681 28.2216 43.01 30.234C42.0289 33.2146 40.3617 35.9232 38.1427 38.1419C35.9236 40.3606 33.2147 42.0273 30.234 43.008C28.2217 43.6668 26.1174 44.0016 24 44C21.8827 44.0023 19.7785 43.6681 17.766 43.01C14.7854 42.0288 12.0768 40.3617 9.85811 38.1427C7.63944 35.9236 5.97269 33.2147 4.99201 30.234C4.33316 28.2217 3.99832 26.1174 4.00001 24C4.00001 21.826 4.34801 19.73 4.99201 17.766C5.97296 14.7856 7.63983 12.0771 9.85848 9.85848C12.0771 7.63982 14.7856 5.97295 17.766 4.992" fill="url(#paint0_linear_207_723)" shape-rendering="crispEdges"/>
</g>
</g>
<defs>
<filter id="filter0_di_207_723" x="-5" y="-2" width="58" height="58" filterUnits="userSpaceOnUse" color-interpolation-filters="sRGB">
<feFlood flood-opacity="0" result="BackgroundImageFix"/>
<feColorMatrix in="SourceAlpha" type="matrix" values="0 0 0 0 0 0 0 0 0 0 0 0 0 0 0 0 0 0 127 0" result="hardAlpha"/>
<feOffset dy="3"/>
<feGaussianBlur stdDeviation="4.5"/>
<feComposite in2="hardAlpha" operator="out"/>
<feColorMatrix type="matrix" values="0 0 0 0 1 0 0 0 0 1 0 0 0 0 1 0 0 0 0.2 0"/>
<feBlend mode="normal" in2="BackgroundImageFix" result="effect1_dropShadow_207_723"/>
<feBlend mode="normal" in="SourceGraphic" in2="effect1_dropShadow_207_723" result="shape"/>
<feColorMatrix in="SourceAlpha" type="matrix" values="0 0 0 0 0 0 0 0 0 0 0 0 0 0 0 0 0 0 127 0" result="hardAlpha"/>
<feOffset/>
<feGaussianBlur stdDeviation="1.24444"/>
<feComposite in2="hardAlpha" operator="arithmetic" k2="-1" k3="1"/>
<feColorMatrix type="matrix" values="0 0 0 0 1 0 0 0 0 1 0 0 0 0 1 0 0 0 1 0"/>
<feBlend mode="normal" in2="shape" result="effect2_innerShadow_207_723"/>
</filter>
<linearGradient id="paint0_linear_207_723" x1="24" y1="45.9101" x2="24" y2="-45.2135" gradientUnits="userSpaceOnUse">
<stop stop-color="white"/>
<stop offset="1" stop-color="white" stop-opacity="0"/>
</linearGradient>
<clipPath id="clip0_207_723">
<rect width="48" height="48" fill="white"/>
</clipPath>
</defs>
</svg>
