<svg width="24" height="24" viewBox="0 0 24 24" fill="none" xmlns="http://www.w3.org/2000/svg">
<path d="M13.2982 3.14795L21.9322 18.1019C22.0638 18.33 22.1332 18.5886 22.1332 18.8519C22.1332 19.1152 22.0639 19.3739 21.9322 19.6019C21.8006 19.83 21.6112 20.0193 21.3832 20.151C21.1552 20.2826 20.8965 20.3519 20.6332 20.3519H3.3652C3.10189 20.3519 2.84323 20.2826 2.61521 20.151C2.38719 20.0193 2.19783 19.83 2.06619 19.6019C1.93454 19.3739 1.86523 19.1152 1.86523 18.8519C1.86524 18.5886 1.93455 18.33 2.0662 18.1019L10.7002 3.14795C11.2772 2.14795 12.7202 2.14795 13.2982 3.14795ZM11.9992 4.89795L4.2312 18.3519H19.7672L11.9992 4.89795ZM11.9992 14.9999C12.2644 14.9999 12.5188 15.1053 12.7063 15.2928C12.8938 15.4804 12.9992 15.7347 12.9992 15.9999C12.9992 16.2652 12.8938 16.5195 12.7063 16.7071C12.5188 16.8946 12.2644 16.9999 11.9992 16.9999C11.734 16.9999 11.4796 16.8946 11.2921 16.7071C11.1046 16.5195 10.9992 16.2652 10.9992 15.9999C10.9992 15.7347 11.1046 15.4804 11.2921 15.2928C11.4796 15.1053 11.734 14.9999 11.9992 14.9999ZM11.9992 7.99995C12.2644 7.99995 12.5188 8.10531 12.7063 8.29284C12.8938 8.48038 12.9992 8.73473 12.9992 8.99995V12.9999C12.9992 13.2652 12.8938 13.5195 12.7063 13.7071C12.5188 13.8946 12.2644 13.9999 11.9992 13.9999C11.734 13.9999 11.4796 13.8946 11.2921 13.7071C11.1046 13.5195 10.9992 13.2652 10.9992 12.9999V8.99995C10.9992 8.73473 11.1046 8.48038 11.2921 8.29284C11.4796 8.10531 11.734 7.99995 11.9992 7.99995Z" fill="#B97907"/>
</svg>
