<svg width="25" height="24" viewBox="0 0 25 24" fill="none" xmlns="http://www.w3.org/2000/svg">
<path d="M12.75 5C16.429 5 20.912 7.417 22.48 10.901C22.626 11.229 22.75 11.611 22.75 12C22.75 12.388 22.627 12.771 22.48 13.099C20.911 16.583 16.428 19 12.75 19C9.071 19 4.588 16.583 3.02 13.099C2.874 12.77 2.75 12.389 2.75 12C2.75 11.612 2.873 11.229 3.02 10.901C4.589 7.417 9.072 5 12.75 5ZM12.75 8C11.6891 8 10.6717 8.42143 9.92157 9.17157C9.17143 9.92172 8.75 10.9391 8.75 12C8.75 13.0609 9.17143 14.0783 9.92157 14.8284C10.6717 15.5786 11.6891 16 12.75 16C13.8109 16 14.8283 15.5786 15.5784 14.8284C16.3286 14.0783 16.75 13.0609 16.75 12C16.75 10.9391 16.3286 9.92172 15.5784 9.17157C14.8283 8.42143 13.8109 8 12.75 8ZM12.75 10C13.2804 10 13.7891 10.2107 14.1642 10.5858C14.5393 10.9609 14.75 11.4696 14.75 12C14.75 12.5304 14.5393 13.0391 14.1642 13.4142C13.7891 13.7893 13.2804 14 12.75 14C12.2196 14 11.7109 13.7893 11.3358 13.4142C10.9607 13.0391 10.75 12.5304 10.75 12C10.75 11.4696 10.9607 10.9609 11.3358 10.5858C11.7109 10.2107 12.2196 10 12.75 10Z" fill="url(#paint0_linear_350_2306)"/>
<defs>
<linearGradient id="paint0_linear_350_2306" x1="12.75" y1="5" x2="12.75" y2="19" gradientUnits="userSpaceOnUse">
<stop stop-color="#10DBDB"/>
<stop offset="1" stop-color="#0047A5"/>
</linearGradient>
</defs>
</svg>
