<svg width="48" height="48" viewBox="0 0 48 48" fill="none" xmlns="http://www.w3.org/2000/svg">
<rect width="48" height="48" rx="10" fill="url(#paint0_linear_433_1335)" fill-opacity="0.05"/>
<g filter="url(#filter0_di_433_1335)">
<path d="M23 14C21.6739 14 20.4021 14.5268 19.4645 15.4645C18.5268 16.4021 18 17.6739 18 19C18 20.3261 18.5268 21.5979 19.4645 22.5355C20.4021 23.4732 21.6739 24 23 24C24.3261 24 25.5979 23.4732 26.5355 22.5355C27.4732 21.5979 28 20.3261 28 19C28 17.6739 27.4732 16.4021 26.5355 15.4645C25.5979 14.5268 24.3261 14 23 14ZM23 25C20.605 25 18.425 25.694 16.822 26.672C16.022 27.16 15.338 27.736 14.844 28.362C14.358 28.976 14 29.713 14 30.5C14 31.345 14.411 32.011 15.003 32.486C15.563 32.936 16.302 33.234 17.087 33.442C18.665 33.859 20.771 34 23 34L23.685 33.995C23.8525 33.9927 24.0167 33.9484 24.1626 33.8661C24.3085 33.7838 24.4313 33.6662 24.5199 33.524C24.6085 33.3819 24.66 33.2198 24.6696 33.0525C24.6792 32.8853 24.6467 32.7184 24.575 32.567C24.1949 31.7647 23.9985 30.8878 24 30C24 28.748 24.383 27.588 25.037 26.627C25.1342 26.4842 25.1928 26.3186 25.207 26.1465C25.2212 25.9743 25.1905 25.8014 25.118 25.6446C25.0455 25.4878 24.9336 25.3524 24.7932 25.2517C24.6528 25.151 24.4888 25.0884 24.317 25.07C23.887 25.024 23.447 25 23 25ZM32.616 27.469C32.6827 27.3552 32.7262 27.2294 32.7441 27.0987C32.762 26.9681 32.7538 26.8352 32.7201 26.7077C32.6864 26.5802 32.6278 26.4606 32.5477 26.3558C32.4676 26.2511 32.3675 26.1632 32.2533 26.0972C32.1391 26.0313 32.013 25.9886 31.8822 25.9716C31.7514 25.9546 31.6186 25.9636 31.4913 25.9982C31.364 26.0327 31.2449 26.0921 31.1406 26.1729C31.0364 26.2537 30.9492 26.3544 30.884 26.469L30.548 27.051C30.1855 26.9831 29.8136 26.9828 29.451 27.05L29.116 26.469C29.0508 26.3544 28.9636 26.2537 28.8594 26.1729C28.7551 26.0921 28.636 26.0327 28.5087 25.9982C28.3814 25.9636 28.2486 25.9546 28.1178 25.9716C27.987 25.9886 27.8609 26.0313 27.7467 26.0972C27.6325 26.1632 27.5324 26.2511 27.4523 26.3558C27.3722 26.4606 27.3136 26.5802 27.2799 26.7077C27.2462 26.8352 27.238 26.9681 27.2559 27.0987C27.2738 27.2294 27.3173 27.3552 27.384 27.469L27.719 28.049C27.4797 28.3296 27.2943 28.652 27.172 29H26.5C26.2348 29 25.9804 29.1054 25.7929 29.2929C25.6054 29.4804 25.5 29.7348 25.5 30C25.5 30.2652 25.6054 30.5196 25.7929 30.7071C25.9804 30.8946 26.2348 31 26.5 31H27.171C27.2945 31.3475 27.4805 31.6695 27.72 31.95L27.384 32.531C27.3173 32.6448 27.2738 32.7706 27.2559 32.9013C27.238 33.0319 27.2462 33.1648 27.2799 33.2923C27.3136 33.4198 27.3722 33.5394 27.4523 33.6442C27.5324 33.7489 27.6325 33.8368 27.7467 33.9028C27.8609 33.9687 27.987 34.0114 28.1178 34.0284C28.2486 34.0454 28.3814 34.0364 28.5087 34.0018C28.636 33.9673 28.7551 33.9079 28.8594 33.8271C28.9636 33.7463 29.0508 33.6456 29.116 33.531L29.452 32.95C29.811 33.016 30.182 33.018 30.549 32.95L30.884 33.531C30.9492 33.6456 31.0364 33.7463 31.1406 33.8271C31.2449 33.9079 31.364 33.9673 31.4913 34.0018C31.6186 34.0364 31.7514 34.0454 31.8822 34.0284C32.013 34.0114 32.1391 33.9687 32.2533 33.9028C32.3675 33.8368 32.4676 33.7489 32.5477 33.6442C32.6278 33.5394 32.6864 33.4198 32.7201 33.2923C32.7538 33.1648 32.762 33.0319 32.7441 32.9013C32.7262 32.7706 32.6827 32.6448 32.616 32.531L32.281 31.951C32.523 31.667 32.707 31.344 32.828 31H33.5C33.7652 31 34.0196 30.8946 34.2071 30.7071C34.3946 30.5196 34.5 30.2652 34.5 30C34.5 29.7348 34.3946 29.4804 34.2071 29.2929C34.0196 29.1054 33.7652 29 33.5 29H32.829C32.7054 28.6526 32.5193 28.3306 32.28 28.05L32.616 27.469Z" fill="url(#paint1_linear_433_1335)"/>
</g>
<defs>
<filter id="filter0_di_433_1335" x="5" y="8" width="38.5" height="38.0366" filterUnits="userSpaceOnUse" color-interpolation-filters="sRGB">
<feFlood flood-opacity="0" result="BackgroundImageFix"/>
<feColorMatrix in="SourceAlpha" type="matrix" values="0 0 0 0 0 0 0 0 0 0 0 0 0 0 0 0 0 0 127 0" result="hardAlpha"/>
<feOffset dy="3"/>
<feGaussianBlur stdDeviation="4.5"/>
<feComposite in2="hardAlpha" operator="out"/>
<feColorMatrix type="matrix" values="0 0 0 0 1 0 0 0 0 1 0 0 0 0 1 0 0 0 0.2 0"/>
<feBlend mode="normal" in2="BackgroundImageFix" result="effect1_dropShadow_433_1335"/>
<feBlend mode="normal" in="SourceGraphic" in2="effect1_dropShadow_433_1335" result="shape"/>
<feColorMatrix in="SourceAlpha" type="matrix" values="0 0 0 0 0 0 0 0 0 0 0 0 0 0 0 0 0 0 127 0" result="hardAlpha"/>
<feOffset/>
<feGaussianBlur stdDeviation="1.24444"/>
<feComposite in2="hardAlpha" operator="arithmetic" k2="-1" k3="1"/>
<feColorMatrix type="matrix" values="0 0 0 0 1 0 0 0 0 1 0 0 0 0 1 0 0 0 1 0"/>
<feBlend mode="normal" in2="shape" result="effect2_innerShadow_433_1335"/>
</filter>
<linearGradient id="paint0_linear_433_1335" x1="24" y1="0" x2="24" y2="48" gradientUnits="userSpaceOnUse">
<stop stop-color="#10DBDB"/>
<stop offset="1" stop-color="#0047A5"/>
</linearGradient>
<linearGradient id="paint1_linear_433_1335" x1="24.25" y1="14" x2="24.25" y2="34.0367" gradientUnits="userSpaceOnUse">
<stop stop-color="#10DBDB"/>
<stop offset="1" stop-color="#0047A5"/>
</linearGradient>
</defs>
</svg>
