<svg width="48" height="48" viewBox="0 0 48 48" fill="none" xmlns="http://www.w3.org/2000/svg">
<rect width="48" height="48" rx="10" fill="url(#paint0_linear_398_6108)" fill-opacity="0.05"/>
<g filter="url(#filter0_di_398_6108)">
<path fill-rule="evenodd" clip-rule="evenodd" d="M24.8656 13.497C24.7776 13.3459 24.6514 13.2206 24.4998 13.1335C24.3482 13.0463 24.1764 13.0005 24.0016 13.0005C23.8267 13.0005 23.6549 13.0463 23.5033 13.1335C23.3517 13.2206 23.2256 13.3459 23.1376 13.497L21.0966 17L17.1316 17.86C16.9608 17.8971 16.8027 17.9783 16.673 18.0955C16.5434 18.2127 16.4467 18.3619 16.3927 18.5281C16.3387 18.6944 16.3292 18.8718 16.3651 19.0429C16.4011 19.2139 16.4812 19.3726 16.5976 19.503L19.2996 22.527L18.8916 26.562C18.874 26.736 18.9023 26.9116 18.9737 27.0712C19.0451 27.2308 19.1571 27.369 19.2986 27.4718C19.4401 27.5746 19.606 27.6385 19.7799 27.6571C19.9538 27.6758 20.1295 27.6485 20.2896 27.578L21.3316 27.119L20.0266 32.775C19.9927 32.9216 19.9924 33.074 20.0256 33.2208C20.0589 33.3676 20.1248 33.505 20.2185 33.6227C20.3122 33.7405 20.4313 33.8356 20.5669 33.9009C20.7025 33.9662 20.8511 34.0001 21.0016 34H27.0016C27.152 33.9999 27.3005 33.966 27.4359 33.9006C27.5714 33.8352 27.6904 33.7401 27.784 33.6224C27.8776 33.5046 27.9434 33.3673 27.9766 33.2206C28.0098 33.0739 28.0094 32.9216 27.9756 32.775L26.6716 27.12L27.7136 27.58C27.8737 27.6506 28.0496 27.6779 28.2235 27.6592C28.3975 27.6405 28.5636 27.5765 28.7051 27.4735C28.8466 27.3706 28.9586 27.2323 29.0299 27.0726C29.1013 26.9128 29.1294 26.7371 29.1116 26.563L28.7036 22.528L31.4056 19.504C31.522 19.3736 31.6021 19.2149 31.6381 19.0439C31.674 18.8728 31.6645 18.6954 31.6105 18.5291C31.5564 18.3629 31.4598 18.2137 31.3301 18.0965C31.2005 17.9793 31.0424 17.8981 30.8716 17.861L26.9066 17L24.8656 13.497ZM23.6176 26.112L24.0016 25.942L24.3856 26.112L25.7446 32H22.2586L23.6176 26.112Z" fill="url(#paint1_linear_398_6108)"/>
</g>
<defs>
<filter id="filter0_di_398_6108" x="7.34375" y="7.00049" width="33.3164" height="38.9995" filterUnits="userSpaceOnUse" color-interpolation-filters="sRGB">
<feFlood flood-opacity="0" result="BackgroundImageFix"/>
<feColorMatrix in="SourceAlpha" type="matrix" values="0 0 0 0 0 0 0 0 0 0 0 0 0 0 0 0 0 0 127 0" result="hardAlpha"/>
<feOffset dy="3"/>
<feGaussianBlur stdDeviation="4.5"/>
<feComposite in2="hardAlpha" operator="out"/>
<feColorMatrix type="matrix" values="0 0 0 0 1 0 0 0 0 1 0 0 0 0 1 0 0 0 0.2 0"/>
<feBlend mode="normal" in2="BackgroundImageFix" result="effect1_dropShadow_398_6108"/>
<feBlend mode="normal" in="SourceGraphic" in2="effect1_dropShadow_398_6108" result="shape"/>
<feColorMatrix in="SourceAlpha" type="matrix" values="0 0 0 0 0 0 0 0 0 0 0 0 0 0 0 0 0 0 127 0" result="hardAlpha"/>
<feOffset/>
<feGaussianBlur stdDeviation="1.24444"/>
<feComposite in2="hardAlpha" operator="arithmetic" k2="-1" k3="1"/>
<feColorMatrix type="matrix" values="0 0 0 0 1 0 0 0 0 1 0 0 0 0 1 0 0 0 1 0"/>
<feBlend mode="normal" in2="shape" result="effect2_innerShadow_398_6108"/>
</filter>
<linearGradient id="paint0_linear_398_6108" x1="24" y1="0" x2="24" y2="48" gradientUnits="userSpaceOnUse">
<stop stop-color="#10DBDB"/>
<stop offset="1" stop-color="#0047A5"/>
</linearGradient>
<linearGradient id="paint1_linear_398_6108" x1="24.0016" y1="13.0005" x2="24.0016" y2="34" gradientUnits="userSpaceOnUse">
<stop stop-color="#10DBDB"/>
<stop offset="1" stop-color="#0047A5"/>
</linearGradient>
</defs>
</svg>
