<svg width="24" height="24" viewBox="0 0 24 24" fill="none" xmlns="http://www.w3.org/2000/svg">
<path fill-rule="evenodd" clip-rule="evenodd" d="M12.2491 4.29887C12.1731 4.25499 12.0868 4.23188 11.9991 4.23188C11.9113 4.23188 11.8251 4.25499 11.7491 4.29887L6.20508 7.49987L8.01808 8.54687L13.8161 5.20387L12.2491 4.29887ZM15.8171 6.35887L10.0191 9.70187L11.7491 10.7009C11.8251 10.7448 11.9113 10.7679 11.9991 10.7679C12.0868 10.7679 12.1731 10.7448 12.2491 10.7009L17.7931 7.49987L15.8171 6.35887ZM18.7931 9.23187L13.2491 12.4329C13.1684 12.48 13.0849 12.5221 12.9991 12.5589V19.2679L18.5431 16.0669C18.6191 16.023 18.6822 15.9599 18.7261 15.8839C18.77 15.8079 18.7931 15.7216 18.7931 15.6339V9.23187ZM10.9991 19.2679V12.5589C10.9135 12.5216 10.83 12.4795 10.7491 12.4329L5.20508 9.23187V15.6339C5.20508 15.7216 5.22818 15.8079 5.27207 15.8839C5.31595 15.9599 5.37907 16.023 5.45508 16.0669L10.9991 19.2679ZM10.7491 2.56687C11.1291 2.34745 11.5602 2.23193 11.9991 2.23193C12.4379 2.23193 12.869 2.34745 13.2491 2.56687L19.5431 6.20087C19.9231 6.42029 20.2387 6.73587 20.4581 7.11591C20.6775 7.49594 20.7931 7.92704 20.7931 8.36587V15.6339C20.7931 16.0727 20.6775 16.5038 20.4581 16.8838C20.2387 17.2639 19.9231 17.5795 19.5431 17.7989L13.2491 21.4329C12.869 21.6523 12.4379 21.7678 11.9991 21.7678C11.5602 21.7678 11.1291 21.6523 10.7491 21.4329L4.45508 17.7989C4.07504 17.5795 3.75945 17.2639 3.54003 16.8838C3.32061 16.5038 3.20509 16.0727 3.20508 15.6339V8.36587C3.20509 7.92704 3.32061 7.49594 3.54003 7.11591C3.75945 6.73587 4.07504 6.42029 4.45508 6.20087L10.7491 2.56687Z" fill="#0FA850"/>
</svg>
