<svg width="24" height="24" viewBox="0 0 24 24" fill="none" xmlns="http://www.w3.org/2000/svg">
<path fill-rule="evenodd" clip-rule="evenodd" d="M19.66 4.21577C20.867 4.02177 22 4.94377 22 6.19977V15.7998C22 17.0558 20.868 17.9778 19.66 17.7848C17.4567 17.4278 15.2314 17.2233 13 17.1728V18.5348C13.713 18.5838 14.38 18.6748 14.914 18.7638C15.356 18.8368 15.798 18.9208 16.234 19.0278C16.76 19.1578 17.102 19.7128 16.97 20.2428C16.9055 20.4998 16.7417 20.7207 16.5144 20.8571C16.2872 20.9934 16.0151 21.0339 15.758 20.9698C15.3704 20.8776 14.9794 20.7999 14.586 20.7368C13.7317 20.5889 12.8669 20.5096 12 20.4998C11.076 20.4998 10.135 20.6158 9.414 20.7358C9.022 20.8018 8.629 20.8748 8.243 20.9698C7.98648 21.0321 7.71573 20.9905 7.48979 20.8539C7.26385 20.7174 7.10105 20.4971 7.0369 20.241C6.97275 19.985 7.01246 19.7139 7.14735 19.487C7.28225 19.2601 7.5014 19.0957 7.757 19.0298C8.19634 18.9237 8.63968 18.835 9.086 18.7638C9.62 18.6738 10.286 18.5838 11 18.5348V17.1728C8.76857 17.2233 6.54328 17.4278 4.34 17.7848C3.133 17.9778 2 17.0548 2 15.7998V6.19977C2 4.94377 3.132 4.02177 4.34 4.21577C9.514 5.04477 14.486 5.04477 19.66 4.21577ZM19.983 6.18977H19.976C14.6937 7.0525 9.30634 7.0525 4.024 6.18977H4.013C4.00928 6.19105 4.00588 6.19309 4.003 6.19577L4 6.19977V15.7998L4.003 15.8038C4.00598 15.8061 4.00937 15.8078 4.013 15.8088L4.017 15.8098H4.024C9.30634 14.947 14.6937 14.947 19.976 15.8098H19.987C19.9907 15.8085 19.9941 15.8064 19.997 15.8038L20 15.8008V6.19977L19.997 6.19577C19.994 6.19345 19.9906 6.19175 19.987 6.19077L19.983 6.18977Z" fill="#0FA850"/>
</svg>
