<svg width="24" height="24" viewBox="0 0 24 24" fill="none" xmlns="http://www.w3.org/2000/svg">
<path fill-rule="evenodd" clip-rule="evenodd" d="M10.586 3.99993C10.9399 3.64598 11.4137 3.4376 11.9137 3.41594C12.4138 3.39428 12.9038 3.56091 13.287 3.88293L13.414 3.99993L16.414 6.99993H19C19.5046 6.99977 19.9906 7.19033 20.3605 7.53342C20.7305 7.87651 20.9572 8.34677 20.995 8.84993L21 8.99993V18.9999C20.9999 19.5043 20.8092 19.9901 20.4662 20.3598C20.1231 20.7296 19.653 20.9561 19.15 20.9939L19 20.9999H5C4.49542 21.0001 4.00943 20.8095 3.63945 20.4664C3.26947 20.1233 3.04284 19.6531 3.005 19.1499L3 18.9999V8.99993C2.99984 8.49535 3.19041 8.00936 3.5335 7.63938C3.87659 7.2694 4.34684 7.04277 4.85 7.00493L5 6.99993H7.586L10.586 3.99993ZM10 14.9999H8C7.73478 14.9999 7.48043 15.1053 7.29289 15.2928C7.10536 15.4804 7 15.7347 7 15.9999C7 16.2651 7.10536 16.5195 7.29289 16.707C7.48043 16.8946 7.73478 16.9999 8 16.9999H10C10.2652 16.9999 10.5196 16.8946 10.7071 16.707C10.8946 16.5195 11 16.2651 11 15.9999C11 15.7347 10.8946 15.4804 10.7071 15.2928C10.5196 15.1053 10.2652 14.9999 10 14.9999ZM14 10.9999H8C7.74512 11.0002 7.49997 11.0978 7.31463 11.2728C7.1293 11.4477 7.01777 11.6869 7.00283 11.9413C6.98789 12.1958 7.07067 12.4463 7.23426 12.6418C7.39786 12.8372 7.6299 12.9628 7.883 12.9929L8 12.9999H14C14.2549 12.9996 14.5 12.902 14.6854 12.7271C14.8707 12.5521 14.9822 12.313 14.9972 12.0585C15.0121 11.8041 14.9293 11.5535 14.7657 11.3581C14.6021 11.1626 14.3701 11.037 14.117 11.0069L14 10.9999ZM12 5.41393L10.414 6.99993H13.586L12 5.41393Z" fill="url(#paint0_linear_1_4712)"/>
<defs>
<linearGradient id="paint0_linear_1_4712" x1="12" y1="3.41406" x2="12" y2="20.9999" gradientUnits="userSpaceOnUse">
<stop stop-color="#10DBDB"/>
<stop offset="1" stop-color="#0047A5"/>
</linearGradient>
</defs>
</svg>
