<svg width="24" height="24" viewBox="0 0 24 24" fill="none" xmlns="http://www.w3.org/2000/svg">
<path d="M10.4387 4.368C11.2665 3.54054 12.3023 2.95195 13.4369 2.66436C14.5714 2.37677 15.7626 2.40086 16.8846 2.73409C18.0066 3.06732 19.0178 3.69731 19.8114 4.55757C20.6051 5.41782 21.1517 6.47641 21.3936 7.62157C21.6356 8.76673 21.5638 9.95596 21.1859 11.0637C20.808 12.1715 20.138 13.1566 19.2467 13.9152C18.3553 14.6737 17.2757 15.1776 16.1218 15.3734C14.9678 15.5693 13.7824 15.45 12.6907 15.028L12.4217 14.918L12.4017 14.914H11.7917V16.492C11.7918 16.8015 11.6772 17.1 11.4699 17.3298C11.2627 17.5596 10.9775 17.7043 10.6697 17.736L10.5417 17.742H8.9637V19.32C8.96384 19.6295 8.84919 19.928 8.64193 20.1578C8.43467 20.3876 8.14953 20.5323 7.8417 20.564L7.7137 20.57H3.7307C3.48188 20.57 3.24181 20.4782 3.05653 20.3121C2.87125 20.146 2.7538 19.9173 2.7267 19.67L2.7207 19.56V16.95C2.7207 16.6032 2.84085 16.2672 3.0607 15.999L3.1607 15.889L8.6607 10.388L8.6707 10.351C8.67379 10.324 8.67244 10.2966 8.6667 10.27C8.45029 9.21643 8.49891 8.12561 8.80819 7.09547C9.11748 6.06534 9.67775 5.12813 10.4387 4.368ZM14.6807 7.196C14.3994 7.4774 14.2415 7.859 14.2416 8.25686C14.2417 8.65471 14.3998 9.03624 14.6812 9.3175C14.9626 9.59876 15.3442 9.75672 15.7421 9.75663C16.1399 9.75654 16.5214 9.5984 16.8027 9.317C17.0758 9.03397 17.2268 8.655 17.2232 8.2617C17.2196 7.8684 17.0617 7.49226 16.7834 7.21428C16.5052 6.93629 16.1289 6.77872 15.7356 6.77549C15.3423 6.77226 14.9635 6.92263 14.6807 7.196Z" fill="white"/>
</svg>
