<svg width="50" height="52" viewBox="0 0 50 52" fill="none" xmlns="http://www.w3.org/2000/svg">
<g filter="url(#filter0_di_590_4721)">
<path fill-rule="evenodd" clip-rule="evenodd" d="M22.3336 11.3332C22.3337 10.3481 22.6248 9.38509 23.1704 8.56491C23.7159 7.74472 24.4915 7.10395 25.3999 6.72301C26.3083 6.34207 27.309 6.23794 28.2764 6.42368C29.2438 6.60943 30.1347 7.07677 30.8374 7.76706C31.5401 8.45735 32.0233 9.33982 32.2263 10.3037C32.4292 11.2676 32.343 12.27 31.9783 13.1851C31.6136 14.1001 30.9868 14.8871 30.1765 15.4471C29.3662 16.0072 28.4085 16.3154 27.4236 16.3332L27.0602 17.4215C27.9193 17.9432 28.6649 18.6319 29.2529 19.447C29.8409 20.262 30.2594 21.1868 30.4836 22.1665H32.6819C33.0648 21.2892 33.7381 20.5704 34.5886 20.1312C35.4391 19.6919 36.4149 19.5588 37.352 19.7544C38.2891 19.95 39.1302 20.4622 39.734 21.2051C40.3378 21.9479 40.6674 22.8759 40.6674 23.8332C40.6674 24.7904 40.3378 25.7185 39.734 26.4613C39.1302 27.2041 38.2891 27.7164 37.352 27.912C36.4149 28.1075 35.4391 27.9745 34.5886 27.5352C33.7381 27.0959 33.0648 26.3772 32.6819 25.4998H30.4819C30.2052 26.7159 29.6289 27.8434 28.8052 28.7798L29.9786 29.9532C30.8697 29.6035 31.854 29.5713 32.7661 29.862C33.6782 30.1528 34.4623 30.7487 34.9866 31.5496C35.511 32.3505 35.7436 33.3075 35.6453 34.2597C35.547 35.212 35.1238 36.1013 34.4469 36.7782C33.77 37.4551 32.8807 37.8782 31.9285 37.9765C30.9762 38.0748 30.0192 37.8423 29.2183 37.3179C28.4174 36.7936 27.8215 36.0094 27.5308 35.0974C27.24 34.1853 27.2722 33.201 27.6219 32.3098L26.0652 30.7532C25.1474 31.1375 24.162 31.3347 23.1669 31.3332C22.0216 31.3343 20.8913 31.072 19.8636 30.5665L18.4119 32.3098C18.9674 33.3502 19.1374 34.5533 18.8917 35.7068C18.646 36.8603 18.0004 37.8898 17.0692 38.6134C16.1379 39.337 14.9808 39.7081 13.8024 39.6611C12.624 39.6142 11.5001 39.1522 10.6293 38.3569C9.75854 37.5615 9.19694 36.484 9.04374 35.3146C8.89055 34.1452 9.15562 32.9594 9.79213 31.9665C10.4286 30.9737 11.3956 30.2378 12.5222 29.8889C13.6487 29.54 14.8623 29.6006 15.9486 30.0598L17.2719 28.4698C16.2299 27.1492 15.6643 25.5154 15.6669 23.8332C15.6669 22.6082 15.9602 21.4515 16.4819 20.4315L15.0352 19.2248C14.1795 19.6542 13.202 19.7758 12.2672 19.5691C11.3324 19.3624 10.4972 18.8401 9.90225 18.09C9.30727 17.3399 8.98877 16.4078 9.0003 15.4505C9.01184 14.4931 9.3527 13.569 9.96557 12.8334C10.5784 12.0979 11.4259 11.5958 12.3655 11.4117C13.305 11.2276 14.2793 11.3727 15.1244 11.8226C15.9696 12.2724 16.634 12.9996 17.006 13.8818C17.378 14.764 17.4348 15.7473 17.1669 16.6665L18.6136 17.8732C20.1197 16.7189 22.0087 16.1814 23.8969 16.3698L24.2602 15.2798C23.6594 14.8124 23.1735 14.2138 22.8395 13.5298C22.5056 12.8457 22.3325 12.0944 22.3336 11.3332Z" fill="url(#paint0_linear_590_4721)"/>
</g>
<defs>
<filter id="filter0_di_590_4721" x="0" y="0.333984" width="49.667" height="51.3311" filterUnits="userSpaceOnUse" color-interpolation-filters="sRGB">
<feFlood flood-opacity="0" result="BackgroundImageFix"/>
<feColorMatrix in="SourceAlpha" type="matrix" values="0 0 0 0 0 0 0 0 0 0 0 0 0 0 0 0 0 0 127 0" result="hardAlpha"/>
<feOffset dy="3"/>
<feGaussianBlur stdDeviation="4.5"/>
<feComposite in2="hardAlpha" operator="out"/>
<feColorMatrix type="matrix" values="0 0 0 0 1 0 0 0 0 1 0 0 0 0 1 0 0 0 0.2 0"/>
<feBlend mode="normal" in2="BackgroundImageFix" result="effect1_dropShadow_590_4721"/>
<feBlend mode="normal" in="SourceGraphic" in2="effect1_dropShadow_590_4721" result="shape"/>
<feColorMatrix in="SourceAlpha" type="matrix" values="0 0 0 0 0 0 0 0 0 0 0 0 0 0 0 0 0 0 127 0" result="hardAlpha"/>
<feOffset/>
<feGaussianBlur stdDeviation="1.24444"/>
<feComposite in2="hardAlpha" operator="arithmetic" k2="-1" k3="1"/>
<feColorMatrix type="matrix" values="0 0 0 0 1 0 0 0 0 1 0 0 0 0 1 0 0 0 1 0"/>
<feBlend mode="normal" in2="shape" result="effect2_innerShadow_590_4721"/>
</filter>
<linearGradient id="paint0_linear_590_4721" x1="24.8337" y1="6.33398" x2="24.8337" y2="39.6651" gradientUnits="userSpaceOnUse">
<stop stop-color="#10DBDB"/>
<stop offset="1" stop-color="#0047A5"/>
</linearGradient>
</defs>
</svg>
