<svg width="52" height="52" viewBox="0 0 52 52" fill="none" xmlns="http://www.w3.org/2000/svg">
<g filter="url(#filter0_di_398_407)">
<path d="M34.8373 18.8732L40.1407 24.1766C41.0012 25.0257 41.6853 26.0366 42.1536 27.1512C42.6218 28.2658 42.865 29.462 42.869 30.6709C42.8731 31.8799 42.638 33.0777 42.1772 34.1954C41.7164 35.3131 41.0391 36.3286 40.1842 37.1835C39.3294 38.0383 38.3139 38.7156 37.1962 39.1764C36.0785 39.6372 34.8807 39.8723 33.6717 39.8683C32.4628 39.8642 31.2666 39.6211 30.152 39.1528C29.0374 38.6846 28.0264 38.0005 27.1773 37.1399L25.4107 35.3732C25.1718 35.1427 24.9812 34.867 24.85 34.562C24.7189 34.2571 24.6498 33.929 24.6467 33.5971C24.6437 33.2652 24.7068 32.9359 24.8323 32.6286C24.9579 32.3213 25.1434 32.0421 25.378 31.8073C25.6126 31.5724 25.8917 31.3867 26.1989 31.2608C26.506 31.135 26.8352 31.0716 27.1672 31.0743C27.4991 31.077 27.8272 31.1458 28.1323 31.2767C28.4373 31.4076 28.7133 31.5979 28.944 31.8366L30.714 33.6049C31.4967 34.3805 32.5547 34.8146 33.6566 34.812C34.7586 34.8094 35.8146 34.3705 36.5936 33.5912C37.3727 32.8119 37.8113 31.7558 37.8136 30.6539C37.8159 29.552 37.3815 28.494 36.6057 27.7116L31.3023 22.4082C30.7291 21.8348 30.001 21.441 29.2074 21.2752C28.4137 21.1094 27.5888 21.1788 26.834 21.4749C26.564 21.5816 26.314 21.6916 26.0773 21.8016L25.304 22.1632C24.2707 22.6299 23.4757 22.8299 22.464 21.8199C21.0107 20.3666 21.3873 19.0249 23.159 17.8032C24.9241 16.5895 27.0584 16.0319 29.1916 16.2274C31.3248 16.4228 33.3222 17.3589 34.8373 18.8732ZM24.8207 8.85656L26.5873 10.6232C27.043 11.0945 27.2952 11.7259 27.2899 12.3814C27.2845 13.0369 27.0219 13.6641 26.5585 14.1278C26.0952 14.5915 25.4683 14.8548 24.8128 14.8608C24.1573 14.8668 23.5257 14.6151 23.054 14.1599L21.2857 12.3932C20.9014 11.9952 20.4417 11.6776 19.9335 11.4591C19.4252 11.2406 18.8784 11.1255 18.3252 11.1205C17.772 11.1156 17.2233 11.2208 16.7111 11.4302C16.199 11.6395 15.7337 11.9488 15.3424 12.3399C14.951 12.731 14.6415 13.1961 14.4319 13.7082C14.2222 14.2202 14.1167 14.7688 14.1213 15.322C14.126 15.8753 14.2407 16.4221 14.459 16.9305C14.6772 17.4389 14.9945 17.8988 15.3923 18.2832L20.6957 23.5866C21.2689 24.16 21.997 24.5538 22.7907 24.7196C23.5843 24.8854 24.4092 24.816 25.164 24.5199C25.434 24.4132 25.684 24.3032 25.9207 24.1932L26.694 23.8316C27.7273 23.3649 28.524 23.1649 29.534 24.1749C30.9873 25.6282 30.6107 26.9699 28.839 28.1916C27.0739 29.4053 24.9396 29.9629 22.8064 29.7674C20.6732 29.572 18.6758 28.6359 17.1607 27.1216L11.8573 21.8182C10.9968 20.9691 10.3127 19.9582 9.84441 18.8436C9.37616 17.729 9.13301 16.5328 9.12896 15.3238C9.12491 14.1149 9.36004 12.9171 9.82081 11.7994C10.2816 10.6817 10.9589 9.66618 11.8138 8.81132C12.6686 7.95646 13.6841 7.27915 14.8018 6.81837C15.9195 6.3576 17.1173 6.12247 18.3263 6.12652C19.5352 6.13057 20.7314 6.37372 21.846 6.84197C22.9606 7.31022 23.9716 7.99599 24.8207 8.85656Z" fill="url(#paint0_linear_398_407)"/>
</g>
<defs>
<filter id="filter0_di_398_407" x="0.128906" y="0.126465" width="51.7383" height="51.7419" filterUnits="userSpaceOnUse" color-interpolation-filters="sRGB">
<feFlood flood-opacity="0" result="BackgroundImageFix"/>
<feColorMatrix in="SourceAlpha" type="matrix" values="0 0 0 0 0 0 0 0 0 0 0 0 0 0 0 0 0 0 127 0" result="hardAlpha"/>
<feOffset dy="3"/>
<feGaussianBlur stdDeviation="4.5"/>
<feComposite in2="hardAlpha" operator="out"/>
<feColorMatrix type="matrix" values="0 0 0 0 1 0 0 0 0 1 0 0 0 0 1 0 0 0 0.2 0"/>
<feBlend mode="normal" in2="BackgroundImageFix" result="effect1_dropShadow_398_407"/>
<feBlend mode="normal" in="SourceGraphic" in2="effect1_dropShadow_398_407" result="shape"/>
<feColorMatrix in="SourceAlpha" type="matrix" values="0 0 0 0 0 0 0 0 0 0 0 0 0 0 0 0 0 0 127 0" result="hardAlpha"/>
<feOffset/>
<feGaussianBlur stdDeviation="1.24444"/>
<feComposite in2="hardAlpha" operator="arithmetic" k2="-1" k3="1"/>
<feColorMatrix type="matrix" values="0 0 0 0 1 0 0 0 0 1 0 0 0 0 1 0 0 0 1 0"/>
<feBlend mode="normal" in2="shape" result="effect2_innerShadow_398_407"/>
</filter>
<linearGradient id="paint0_linear_398_407" x1="25.999" y1="6.12646" x2="25.999" y2="39.8683" gradientUnits="userSpaceOnUse">
<stop stop-color="#10DBDB"/>
<stop offset="1" stop-color="#0047A5"/>
</linearGradient>
</defs>
</svg>
