<svg width="58" height="56" viewBox="0 0 58 56" fill="none" xmlns="http://www.w3.org/2000/svg">
<g filter="url(#filter0_di_207_5796)">
<path d="M32 6C36.5087 6 40.8327 7.79107 44.0208 10.9792C47.2089 14.1673 49 18.4913 49 23C49 27.5087 47.2089 31.8327 44.0208 35.0208C40.8327 38.2089 36.5087 40 32 40H31V41.98C31 42.2454 30.9477 42.5083 30.846 42.7535C30.7444 42.9987 30.5954 43.2215 30.4076 43.4091C30.2199 43.5967 29.9969 43.7454 29.7516 43.8468C29.5063 43.9482 29.2434 44.0003 28.978 44C24.058 43.996 19.074 42.354 15.292 38.992C11.476 35.596 9.004 30.55 9 24.018V23C9 18.4913 10.7911 14.1673 13.9792 10.9792C17.1673 7.79107 21.4913 6 26 6H32ZM32 10H26C22.5522 10 19.2456 11.3696 16.8076 13.8076C14.3696 16.2456 13 19.5522 13 23L13.002 24.33C13.082 29.614 15.084 33.454 17.952 36.002C20.428 38.206 23.634 39.52 27 39.89V38.02C27 36.904 27.904 36 29.02 36H32C35.4478 36 38.7544 34.6304 41.1924 32.1924C43.6304 29.7544 45 26.4478 45 23C45 19.5522 43.6304 16.2456 41.1924 13.8076C38.7544 11.3696 35.4478 10 32 10ZM22 20C22.7956 20 23.5587 20.3161 24.1213 20.8787C24.6839 21.4413 25 22.2044 25 23C25 23.7956 24.6839 24.5587 24.1213 25.1213C23.5587 25.6839 22.7956 26 22 26C21.2044 26 20.4413 25.6839 19.8787 25.1213C19.3161 24.5587 19 23.7956 19 23C19 22.2044 19.3161 21.4413 19.8787 20.8787C20.4413 20.3161 21.2044 20 22 20ZM36 20C36.7956 20 37.5587 20.3161 38.1213 20.8787C38.6839 21.4413 39 22.2044 39 23C39 23.7956 38.6839 24.5587 38.1213 25.1213C37.5587 25.6839 36.7956 26 36 26C35.2044 26 34.4413 25.6839 33.8787 25.1213C33.3161 24.5587 33 23.7956 33 23C33 22.2044 33.3161 21.4413 33.8787 20.8787C34.4413 20.3161 35.2044 20 36 20Z" fill="url(#paint0_linear_207_5796)" shape-rendering="crispEdges"/>
</g>
<defs>
<filter id="filter0_di_207_5796" x="0" y="0" width="58" height="56" filterUnits="userSpaceOnUse" color-interpolation-filters="sRGB">
<feFlood flood-opacity="0" result="BackgroundImageFix"/>
<feColorMatrix in="SourceAlpha" type="matrix" values="0 0 0 0 0 0 0 0 0 0 0 0 0 0 0 0 0 0 127 0" result="hardAlpha"/>
<feOffset dy="3"/>
<feGaussianBlur stdDeviation="4.5"/>
<feComposite in2="hardAlpha" operator="out"/>
<feColorMatrix type="matrix" values="0 0 0 0 1 0 0 0 0 1 0 0 0 0 1 0 0 0 0.2 0"/>
<feBlend mode="normal" in2="BackgroundImageFix" result="effect1_dropShadow_207_5796"/>
<feBlend mode="normal" in="SourceGraphic" in2="effect1_dropShadow_207_5796" result="shape"/>
<feColorMatrix in="SourceAlpha" type="matrix" values="0 0 0 0 0 0 0 0 0 0 0 0 0 0 0 0 0 0 127 0" result="hardAlpha"/>
<feOffset/>
<feGaussianBlur stdDeviation="1.24444"/>
<feComposite in2="hardAlpha" operator="arithmetic" k2="-1" k3="1"/>
<feColorMatrix type="matrix" values="0 0 0 0 1 0 0 0 0 1 0 0 0 0 1 0 0 0 1 0"/>
<feBlend mode="normal" in2="shape" result="effect2_innerShadow_207_5796"/>
</filter>
<linearGradient id="paint0_linear_207_5796" x1="29" y1="45.8146" x2="29" y2="-40.7528" gradientUnits="userSpaceOnUse">
<stop stop-color="white"/>
<stop offset="1" stop-color="white" stop-opacity="0"/>
</linearGradient>
</defs>
</svg>
