<svg width="48" height="48" viewBox="0 0 48 48" fill="none" xmlns="http://www.w3.org/2000/svg">
<rect width="48" height="48" rx="10" fill="url(#paint0_linear_279_276)" fill-opacity="0.05"/>
<g filter="url(#filter0_di_279_276)">
<path fill-rule="evenodd" clip-rule="evenodd" d="M23.0001 17C23.0002 16.409 23.1749 15.8312 23.5022 15.339C23.8295 14.8469 24.2949 14.4625 24.84 14.2339C25.385 14.0053 25.9854 13.9429 26.5658 14.0543C27.1463 14.1658 27.6808 14.4462 28.1025 14.8603C28.5241 15.2745 28.814 15.804 28.9358 16.3823C29.0575 16.9607 29.0058 17.5621 28.787 18.1111C28.5682 18.6602 28.1921 19.1323 27.7059 19.4684C27.2197 19.8044 26.6451 19.9894 26.0541 20L25.8361 20.653C26.3516 20.966 26.7989 21.3793 27.1517 21.8683C27.5045 22.3573 27.7556 22.9122 27.8901 23.5H29.2091C29.4389 22.9736 29.8429 22.5424 30.3532 22.2788C30.8635 22.0152 31.449 21.9354 32.0112 22.0527C32.5734 22.1701 33.0781 22.4774 33.4404 22.9231C33.8027 23.3688 34.0004 23.9257 34.0004 24.5C34.0004 25.0744 33.8027 25.6312 33.4404 26.0769C33.0781 26.5226 32.5734 26.8299 32.0112 26.9473C31.449 27.0646 30.8635 26.9848 30.3532 26.7212C29.8429 26.4576 29.4389 26.0264 29.2091 25.5H27.8891C27.7231 26.2296 27.3773 26.9061 26.8831 27.468L27.5871 28.172C28.1218 27.9622 28.7124 27.9429 29.2597 28.1173C29.8069 28.2918 30.2774 28.6493 30.592 29.1299C30.9066 29.6104 31.0461 30.1846 30.9872 30.7559C30.9282 31.3273 30.6743 31.8609 30.2681 32.267C29.862 32.6731 29.3284 32.927 28.7571 32.986C28.1857 33.045 27.6115 32.9054 27.131 32.5908C26.6505 32.2762 26.2929 31.8058 26.1185 31.2585C25.944 30.7113 25.9633 30.1207 26.1731 29.586L25.2391 28.652C24.6884 28.8826 24.0972 29.0009 23.5001 29C22.8129 29.0007 22.1348 28.8433 21.5181 28.54L20.6471 29.586C20.9805 30.2102 21.0824 30.9321 20.935 31.6242C20.7876 32.3163 20.4003 32.934 19.8415 33.3681C19.2827 33.8023 18.5885 34.0249 17.8814 33.9968C17.1744 33.9686 16.5001 33.6914 15.9776 33.2142C15.4551 32.737 15.1182 32.0905 15.0262 31.3889C14.9343 30.6872 15.0934 29.9757 15.4753 29.38C15.8572 28.7843 16.4374 28.3428 17.1133 28.1335C17.7892 27.9241 18.5174 27.9604 19.1691 28.236L19.9631 27.282C19.3379 26.4896 18.9986 25.5093 19.0001 24.5C19.0001 23.765 19.1761 23.071 19.4891 22.459L18.6211 21.735C18.1077 21.9926 17.5212 22.0656 16.9603 21.9415C16.3994 21.8175 15.8983 21.5041 15.5413 21.0541C15.1844 20.604 14.9933 20.0448 15.0002 19.4704C15.0071 18.896 15.2116 18.3415 15.5793 17.9002C15.9471 17.4588 16.4556 17.1576 17.0193 17.0471C17.583 16.9367 18.1676 17.0237 18.6747 17.2936C19.1817 17.5635 19.5804 17.9999 19.8036 18.5292C20.0268 19.0585 20.0609 19.6485 19.9001 20.2L20.7681 20.924C21.6718 20.2315 22.8052 19.9089 23.9381 20.022L24.1561 19.368C23.7957 19.0876 23.5041 18.7284 23.3037 18.318C23.1034 17.9075 22.9995 17.4567 23.0001 17Z" fill="url(#paint1_linear_279_276)"/>
</g>
<defs>
<filter id="filter0_di_279_276" x="6" y="8.00049" width="37" height="37.9985" filterUnits="userSpaceOnUse" color-interpolation-filters="sRGB">
<feFlood flood-opacity="0" result="BackgroundImageFix"/>
<feColorMatrix in="SourceAlpha" type="matrix" values="0 0 0 0 0 0 0 0 0 0 0 0 0 0 0 0 0 0 127 0" result="hardAlpha"/>
<feOffset dy="3"/>
<feGaussianBlur stdDeviation="4.5"/>
<feComposite in2="hardAlpha" operator="out"/>
<feColorMatrix type="matrix" values="0 0 0 0 1 0 0 0 0 1 0 0 0 0 1 0 0 0 0.2 0"/>
<feBlend mode="normal" in2="BackgroundImageFix" result="effect1_dropShadow_279_276"/>
<feBlend mode="normal" in="SourceGraphic" in2="effect1_dropShadow_279_276" result="shape"/>
<feColorMatrix in="SourceAlpha" type="matrix" values="0 0 0 0 0 0 0 0 0 0 0 0 0 0 0 0 0 0 127 0" result="hardAlpha"/>
<feOffset/>
<feGaussianBlur stdDeviation="1.24444"/>
<feComposite in2="hardAlpha" operator="arithmetic" k2="-1" k3="1"/>
<feColorMatrix type="matrix" values="0 0 0 0 1 0 0 0 0 1 0 0 0 0 1 0 0 0 1 0"/>
<feBlend mode="normal" in2="shape" result="effect2_innerShadow_279_276"/>
</filter>
<linearGradient id="paint0_linear_279_276" x1="24" y1="0" x2="24" y2="48" gradientUnits="userSpaceOnUse">
<stop stop-color="#10DBDB"/>
<stop offset="1" stop-color="#0047A5"/>
</linearGradient>
<linearGradient id="paint1_linear_279_276" x1="24.5002" y1="14.0005" x2="24.5002" y2="33.9992" gradientUnits="userSpaceOnUse">
<stop stop-color="#10DBDB"/>
<stop offset="1" stop-color="#0047A5"/>
</linearGradient>
</defs>
</svg>
