<svg width="48" height="48" viewBox="0 0 48 48" fill="none" xmlns="http://www.w3.org/2000/svg">
<rect width="48" height="48" rx="10" fill="url(#paint0_linear_433_1488)" fill-opacity="0.05"/>
<g filter="url(#filter0_di_433_1488)">
<path fill-rule="evenodd" clip-rule="evenodd" d="M31.66 16.2158C32.867 16.0218 34 16.9438 34 18.1998V27.7998C34 29.0558 32.868 29.9778 31.66 29.7848C29.4567 29.4278 27.2314 29.2233 25 29.1728V30.5348C25.713 30.5838 26.38 30.6748 26.914 30.7638C27.36 30.8378 27.804 30.9208 28.242 31.0298C28.3695 31.0616 28.4894 31.1182 28.595 31.1964C28.7006 31.2746 28.7897 31.3728 28.8573 31.4854C28.9249 31.5981 28.9697 31.7229 28.989 31.8529C29.0084 31.9828 29.0019 32.1153 28.97 32.2428C28.902 32.5009 28.7348 32.7216 28.5048 32.8571C28.2748 32.9925 28.0007 33.0315 27.742 32.9658C27.359 32.8758 26.973 32.8008 26.586 32.7358C25.7317 32.5882 24.8669 32.5093 24 32.4998C23.076 32.4998 22.135 32.6158 21.414 32.7358C21.027 32.8008 20.641 32.8758 20.258 32.9658C19.9993 33.0315 19.7252 32.9925 19.4952 32.8571C19.2652 32.7216 19.098 32.5009 19.03 32.2428C18.97 31.9852 19.0126 31.7144 19.1489 31.4878C19.2852 31.2611 19.5044 31.0965 19.76 31.0288C20.1984 30.9235 20.6408 30.8351 21.086 30.7638C21.62 30.6738 22.286 30.5838 23 30.5348V29.1728C20.7686 29.2233 18.5433 29.4278 16.34 29.7848C15.133 29.9778 14 29.0548 14 27.7998V18.1998C14 16.9438 15.132 16.0218 16.34 16.2158C21.514 17.0448 26.486 17.0448 31.66 16.2158Z" fill="url(#paint1_linear_433_1488)"/>
</g>
<defs>
<filter id="filter0_di_433_1488" x="5" y="10.1899" width="38" height="34.8071" filterUnits="userSpaceOnUse" color-interpolation-filters="sRGB">
<feFlood flood-opacity="0" result="BackgroundImageFix"/>
<feColorMatrix in="SourceAlpha" type="matrix" values="0 0 0 0 0 0 0 0 0 0 0 0 0 0 0 0 0 0 127 0" result="hardAlpha"/>
<feOffset dy="3"/>
<feGaussianBlur stdDeviation="4.5"/>
<feComposite in2="hardAlpha" operator="out"/>
<feColorMatrix type="matrix" values="0 0 0 0 1 0 0 0 0 1 0 0 0 0 1 0 0 0 0.2 0"/>
<feBlend mode="normal" in2="BackgroundImageFix" result="effect1_dropShadow_433_1488"/>
<feBlend mode="normal" in="SourceGraphic" in2="effect1_dropShadow_433_1488" result="shape"/>
<feColorMatrix in="SourceAlpha" type="matrix" values="0 0 0 0 0 0 0 0 0 0 0 0 0 0 0 0 0 0 127 0" result="hardAlpha"/>
<feOffset/>
<feGaussianBlur stdDeviation="1.24444"/>
<feComposite in2="hardAlpha" operator="arithmetic" k2="-1" k3="1"/>
<feColorMatrix type="matrix" values="0 0 0 0 1 0 0 0 0 1 0 0 0 0 1 0 0 0 1 0"/>
<feBlend mode="normal" in2="shape" result="effect2_innerShadow_433_1488"/>
</filter>
<linearGradient id="paint0_linear_433_1488" x1="24" y1="0" x2="24" y2="48" gradientUnits="userSpaceOnUse">
<stop stop-color="#10DBDB"/>
<stop offset="1" stop-color="#0047A5"/>
</linearGradient>
<linearGradient id="paint1_linear_433_1488" x1="24" y1="16.1899" x2="24" y2="32.997" gradientUnits="userSpaceOnUse">
<stop stop-color="#10DBDB"/>
<stop offset="1" stop-color="#0047A5"/>
</linearGradient>
</defs>
</svg>
