<svg width="150" height="150" viewBox="0 0 150 150" fill="none" xmlns="http://www.w3.org/2000/svg">
<circle cx="75" cy="82" r="60" fill="url(#paint0_linear_1_2304)" fill-opacity="0.05"/>
<g filter="url(#filter0_di_1_2304)">
<path d="M73 64C74.0092 63.9997 74.9811 64.3808 75.7211 65.067C76.4611 65.7532 76.9143 66.6937 76.99 67.7L77 68V80C77.0003 81.0092 76.6192 81.9811 75.933 82.7211C75.2468 83.4611 74.3063 83.9143 73.3 83.99L73 84H61C59.9908 84.0003 59.0189 83.6192 58.2789 82.933C57.5389 82.2468 57.0857 81.3063 57.01 80.3L57 80V68C56.9997 66.9908 57.3808 66.0189 58.067 65.2789C58.7532 64.5389 59.6937 64.0857 60.7 64.01L61 64H73ZM73 68H61V80H73V68ZM70 70C70.2341 69.9999 70.4607 70.0819 70.6405 70.2318C70.8203 70.3816 70.9419 70.5898 70.984 70.82L71 71V77C71.0001 77.2341 70.9181 77.4607 70.7682 77.6405C70.6184 77.8203 70.4102 77.9419 70.18 77.984L70 78H64C63.7659 78.0001 63.5393 77.9181 63.3595 77.7682C63.1797 77.6184 63.0581 77.4102 63.016 77.18L63 77V71C62.9999 70.7659 63.0819 70.5393 63.2318 70.3595C63.3816 70.1797 63.5898 70.0581 63.82 70.016L64 70H70ZM93 68C93 66.9391 92.5786 65.9217 91.8284 65.1716C91.0783 64.4214 90.0609 64 89 64H85C83.9391 64 82.9217 64.4214 82.1716 65.1716C81.4214 65.9217 81 66.9391 81 68V72C81 73.0609 81.4214 74.0783 82.1716 74.8284C82.9217 75.5786 83.9391 76 85 76H89C90.0609 76 91.0783 75.5786 91.8284 74.8284C92.5786 74.0783 93 73.0609 93 72V68ZM57 92C57 90.9391 57.4214 89.9217 58.1716 89.1716C58.9217 88.4214 59.9391 88 61 88H65C66.0609 88 67.0783 88.4214 67.8284 89.1716C68.5786 89.9217 69 90.9391 69 92V96C69 97.0609 68.5786 98.0783 67.8284 98.8284C67.0783 99.5786 66.0609 100 65 100H61C59.9391 100 58.9217 99.5786 58.1716 98.8284C57.4214 98.0783 57 97.0609 57 96V92ZM89 88C90.0609 88 91.0783 88.4214 91.8284 89.1716C92.5786 89.9217 93 90.9391 93 92V96C93 97.0609 92.5786 98.0783 91.8284 98.8284C91.0783 99.5786 90.0609 100 89 100H85C83.9391 100 82.9217 99.5786 82.1716 98.8284C81.4214 98.0783 81 97.0609 81 96V92C81 90.9391 81.4214 89.9217 82.1716 89.1716C82.9217 88.4214 83.9391 88 85 88H89ZM81 82C81 81.4696 81.2107 80.9609 81.5858 80.5858C81.9609 80.2107 82.4696 80 83 80H91C91.5304 80 92.0391 80.2107 92.4142 80.5858C92.7893 80.9609 93 81.4696 93 82C93 82.5304 92.7893 83.0391 92.4142 83.4142C92.0391 83.7893 91.5304 84 91 84H83C82.4696 84 81.9609 83.7893 81.5858 83.4142C81.2107 83.0391 81 82.5304 81 82ZM77 90C77 89.4696 76.7893 88.9609 76.4142 88.5858C76.0391 88.2107 75.5304 88 75 88C74.4696 88 73.9609 88.2107 73.5858 88.5858C73.2107 88.9609 73 89.4696 73 90V98C73 98.5304 73.2107 99.0391 73.5858 99.4142C73.9609 99.7893 74.4696 100 75 100C75.5304 100 76.0391 99.7893 76.4142 99.4142C76.7893 99.0391 77 98.5304 77 98V90Z" fill="url(#paint1_linear_1_2304)"/>
</g>
<defs>
<filter id="filter0_di_1_2304" x="48" y="58" width="54" height="54" filterUnits="userSpaceOnUse" color-interpolation-filters="sRGB">
<feFlood flood-opacity="0" result="BackgroundImageFix"/>
<feColorMatrix in="SourceAlpha" type="matrix" values="0 0 0 0 0 0 0 0 0 0 0 0 0 0 0 0 0 0 127 0" result="hardAlpha"/>
<feOffset dy="3"/>
<feGaussianBlur stdDeviation="4.5"/>
<feComposite in2="hardAlpha" operator="out"/>
<feColorMatrix type="matrix" values="0 0 0 0 1 0 0 0 0 1 0 0 0 0 1 0 0 0 0.2 0"/>
<feBlend mode="normal" in2="BackgroundImageFix" result="effect1_dropShadow_1_2304"/>
<feBlend mode="normal" in="SourceGraphic" in2="effect1_dropShadow_1_2304" result="shape"/>
<feColorMatrix in="SourceAlpha" type="matrix" values="0 0 0 0 0 0 0 0 0 0 0 0 0 0 0 0 0 0 127 0" result="hardAlpha"/>
<feOffset/>
<feGaussianBlur stdDeviation="1.24444"/>
<feComposite in2="hardAlpha" operator="arithmetic" k2="-1" k3="1"/>
<feColorMatrix type="matrix" values="0 0 0 0 1 0 0 0 0 1 0 0 0 0 1 0 0 0 1 0"/>
<feBlend mode="normal" in2="shape" result="effect2_innerShadow_1_2304"/>
</filter>
<linearGradient id="paint0_linear_1_2304" x1="75" y1="22" x2="75" y2="142" gradientUnits="userSpaceOnUse">
<stop stop-color="#10DBDB"/>
<stop offset="1" stop-color="#0047A5"/>
</linearGradient>
<linearGradient id="paint1_linear_1_2304" x1="75" y1="64" x2="75" y2="100" gradientUnits="userSpaceOnUse">
<stop stop-color="#10DBDB"/>
<stop offset="1" stop-color="#0047A5"/>
</linearGradient>
</defs>
</svg>
