<svg width="48" height="48" viewBox="0 0 48 48" fill="none" xmlns="http://www.w3.org/2000/svg">
<rect width="48" height="48" rx="10" fill="url(#paint0_linear_517_26)" fill-opacity="0.05"/>
<g filter="url(#filter0_di_517_26)">
<path fill-rule="evenodd" clip-rule="evenodd" d="M23 14C21.6739 14 20.4021 14.5268 19.4645 15.4645C18.5268 16.4021 18 17.6739 18 19C18 20.3261 18.5268 21.5979 19.4645 22.5355C20.4021 23.4732 21.6739 24 23 24C24.3261 24 25.5979 23.4732 26.5355 22.5355C27.4732 21.5979 28 20.3261 28 19C28 17.6739 27.4732 16.4021 26.5355 15.4645C25.5979 14.5268 24.3261 14 23 14ZM23 25C20.605 25 18.425 25.694 16.822 26.672C16.022 27.16 15.338 27.736 14.844 28.362C14.358 28.976 14 29.713 14 30.5C14 31.345 14.411 32.011 15.003 32.486C15.563 32.936 16.302 33.234 17.087 33.442C18.665 33.859 20.771 34 23 34C23.23 34 23.46 33.998 23.685 33.995C23.8525 33.9927 24.0167 33.9484 24.1626 33.8661C24.3085 33.7838 24.4313 33.6662 24.5199 33.524C24.6085 33.3819 24.66 33.2198 24.6696 33.0525C24.6792 32.8853 24.6467 32.7184 24.575 32.567C24.1949 31.7647 23.9985 30.8878 24 30C24 28.748 24.383 27.588 25.037 26.627C25.1342 26.4842 25.1928 26.3186 25.207 26.1465C25.2212 25.9743 25.1905 25.8014 25.118 25.6446C25.0455 25.4878 24.9336 25.3524 24.7932 25.2517C24.6528 25.151 24.4888 25.0884 24.317 25.07C23.887 25.024 23.447 25 23 25ZM30.864 25.997C30.776 25.8459 30.6499 25.7206 30.4983 25.6335C30.3466 25.5463 30.1749 25.5005 30 25.5005C29.8251 25.5005 29.6534 25.5463 29.5017 25.6335C29.3501 25.7206 29.224 25.8459 29.136 25.997L28.226 27.559L26.46 27.941C26.289 27.978 26.1307 28.0592 26.0009 28.1765C25.8711 28.2938 25.7744 28.4431 25.7203 28.6095C25.6663 28.7759 25.6568 28.9535 25.6929 29.1247C25.729 29.2959 25.8094 29.4546 25.926 29.585L27.13 30.933L26.948 32.731C26.9304 32.905 26.9587 33.0806 27.0301 33.2402C27.1015 33.3998 27.2135 33.538 27.355 33.6408C27.4965 33.7436 27.6624 33.8075 27.8363 33.8261C28.0102 33.8448 28.186 33.8175 28.346 33.747L30 33.017L31.654 33.747C31.814 33.8175 31.9898 33.8448 32.1637 33.8261C32.3376 33.8075 32.5035 33.7436 32.645 33.6408C32.7865 33.538 32.8985 33.3998 32.9699 33.2402C33.0413 33.0806 33.0696 32.905 33.052 32.731L32.87 30.932L34.074 29.585C34.1906 29.4546 34.271 29.2959 34.3071 29.1247C34.3432 28.9535 34.3337 28.7759 34.2797 28.6095C34.2256 28.4431 34.1289 28.2938 33.9991 28.1765C33.8693 28.0592 33.711 27.978 33.54 27.941L31.774 27.559L30.864 25.997Z" fill="url(#paint1_linear_517_26)"/>
</g>
<defs>
<filter id="filter0_di_517_26" x="5" y="8" width="38.3286" height="38" filterUnits="userSpaceOnUse" color-interpolation-filters="sRGB">
<feFlood flood-opacity="0" result="BackgroundImageFix"/>
<feColorMatrix in="SourceAlpha" type="matrix" values="0 0 0 0 0 0 0 0 0 0 0 0 0 0 0 0 0 0 127 0" result="hardAlpha"/>
<feOffset dy="3"/>
<feGaussianBlur stdDeviation="4.5"/>
<feComposite in2="hardAlpha" operator="out"/>
<feColorMatrix type="matrix" values="0 0 0 0 1 0 0 0 0 1 0 0 0 0 1 0 0 0 0.2 0"/>
<feBlend mode="normal" in2="BackgroundImageFix" result="effect1_dropShadow_517_26"/>
<feBlend mode="normal" in="SourceGraphic" in2="effect1_dropShadow_517_26" result="shape"/>
<feColorMatrix in="SourceAlpha" type="matrix" values="0 0 0 0 0 0 0 0 0 0 0 0 0 0 0 0 0 0 127 0" result="hardAlpha"/>
<feOffset/>
<feGaussianBlur stdDeviation="1.24444"/>
<feComposite in2="hardAlpha" operator="arithmetic" k2="-1" k3="1"/>
<feColorMatrix type="matrix" values="0 0 0 0 1 0 0 0 0 1 0 0 0 0 1 0 0 0 1 0"/>
<feBlend mode="normal" in2="shape" result="effect2_innerShadow_517_26"/>
</filter>
<linearGradient id="paint0_linear_517_26" x1="24" y1="0" x2="24" y2="48" gradientUnits="userSpaceOnUse">
<stop stop-color="#10DBDB"/>
<stop offset="1" stop-color="#0047A5"/>
</linearGradient>
<linearGradient id="paint1_linear_517_26" x1="24.1643" y1="14" x2="24.1643" y2="34" gradientUnits="userSpaceOnUse">
<stop stop-color="#10DBDB"/>
<stop offset="1" stop-color="#0047A5"/>
</linearGradient>
</defs>
</svg>
