<svg width="48" height="48" viewBox="0 0 48 48" fill="none" xmlns="http://www.w3.org/2000/svg">
<rect width="48" height="48" rx="10" fill="url(#paint0_linear_517_1487)" fill-opacity="0.05"/>
<g filter="url(#filter0_di_517_1487)">
<path d="M23 14C21.6739 14 20.4021 14.5268 19.4645 15.4645C18.5268 16.4021 18 17.6739 18 19C18 20.3261 18.5268 21.5979 19.4645 22.5355C20.4021 23.4732 21.6739 24 23 24C24.3261 24 25.5979 23.4732 26.5355 22.5355C27.4732 21.5979 28 20.3261 28 19C28 17.6739 27.4732 16.4021 26.5355 15.4645C25.5979 14.5268 24.3261 14 23 14ZM23.123 26.55C23.2197 26.394 23.2717 26.2144 23.2731 26.0308C23.2745 25.8472 23.2254 25.6668 23.1311 25.5093C23.0368 25.3518 22.901 25.2233 22.7385 25.1379C22.5761 25.0525 22.3932 25.0134 22.21 25.025C20 25.165 18.015 25.883 16.559 26.838C15.831 27.316 15.211 27.869 14.763 28.468C14.32 29.057 14 29.755 14 30.5C14 32.035 15.278 32.846 16.495 33.263C17.775 33.702 19.485 33.901 21.327 33.97C21.4863 33.9761 21.6448 33.944 21.7891 33.8764C21.9335 33.8088 22.0597 33.7077 22.157 33.5815C22.2544 33.4552 22.3202 33.3076 22.3489 33.1508C22.3776 32.9939 22.3683 32.8325 22.322 32.68C22.1079 31.9732 21.9994 31.2386 22 30.5C21.9974 29.1042 22.3865 27.7357 23.123 26.55ZM29.411 32.782C29.1374 32.8031 28.8626 32.8031 28.589 32.782L28.502 33.107C28.4333 33.3632 28.2657 33.5816 28.0359 33.7142C27.8062 33.8468 27.5332 33.8827 27.277 33.814C27.0208 33.7453 26.8024 33.5777 26.6698 33.3479C26.5372 33.1182 26.5013 32.8452 26.57 32.589L26.66 32.252C26.42 32.132 26.187 31.992 25.967 31.832L25.707 32.091C25.5184 32.2732 25.2658 32.374 25.0036 32.3717C24.7414 32.3694 24.4906 32.2642 24.3052 32.0788C24.1198 31.8934 24.0146 31.6426 24.0123 31.3804C24.01 31.1182 24.1108 30.8656 24.293 30.677L24.623 30.346C24.4026 29.9677 24.229 29.5641 24.106 29.144C24.0307 28.8897 24.0595 28.6158 24.1861 28.3827C24.3127 28.1496 24.5267 27.9763 24.781 27.901C25.0353 27.8257 25.3092 27.8545 25.5423 27.9811C25.7754 28.1077 25.9487 28.3217 26.024 28.576C26.902 31.539 31.098 31.539 31.976 28.576C32.0133 28.4501 32.075 28.3327 32.1577 28.2306C32.2403 28.1285 32.3423 28.0437 32.4577 27.9811C32.5731 27.9184 32.6998 27.8791 32.8304 27.8653C32.961 27.8516 33.0931 27.8637 33.219 27.901C33.3449 27.9383 33.4623 28 33.5644 28.0827C33.6665 28.1653 33.7513 28.2673 33.8139 28.3827C33.8766 28.4981 33.9159 28.6248 33.9297 28.7554C33.9434 28.886 33.9313 29.0181 33.894 29.144C33.764 29.584 33.588 29.985 33.376 30.346L33.707 30.676C33.8946 30.8635 34.0001 31.1179 34.0002 31.3831C34.0003 31.6484 33.895 31.9029 33.7075 32.0905C33.52 32.2781 33.2656 32.3836 33.0004 32.3837C32.7351 32.3838 32.4806 32.2785 32.293 32.091L32.033 31.831C31.813 31.991 31.58 32.131 31.34 32.252L31.43 32.589C31.4987 32.8452 31.4628 33.1182 31.3302 33.3479C31.1976 33.5777 30.9792 33.7453 30.723 33.814C30.4668 33.8827 30.1938 33.8468 29.9641 33.7142C29.7343 33.5816 29.5667 33.3632 29.498 33.107L29.411 32.782Z" fill="url(#paint1_linear_517_1487)"/>
</g>
<defs>
<filter id="filter0_di_517_1487" x="5" y="8" width="38.0002" height="37.9707" filterUnits="userSpaceOnUse" color-interpolation-filters="sRGB">
<feFlood flood-opacity="0" result="BackgroundImageFix"/>
<feColorMatrix in="SourceAlpha" type="matrix" values="0 0 0 0 0 0 0 0 0 0 0 0 0 0 0 0 0 0 127 0" result="hardAlpha"/>
<feOffset dy="3"/>
<feGaussianBlur stdDeviation="4.5"/>
<feComposite in2="hardAlpha" operator="out"/>
<feColorMatrix type="matrix" values="0 0 0 0 1 0 0 0 0 1 0 0 0 0 1 0 0 0 0.2 0"/>
<feBlend mode="normal" in2="BackgroundImageFix" result="effect1_dropShadow_517_1487"/>
<feBlend mode="normal" in="SourceGraphic" in2="effect1_dropShadow_517_1487" result="shape"/>
<feColorMatrix in="SourceAlpha" type="matrix" values="0 0 0 0 0 0 0 0 0 0 0 0 0 0 0 0 0 0 127 0" result="hardAlpha"/>
<feOffset/>
<feGaussianBlur stdDeviation="1.24444"/>
<feComposite in2="hardAlpha" operator="arithmetic" k2="-1" k3="1"/>
<feColorMatrix type="matrix" values="0 0 0 0 1 0 0 0 0 1 0 0 0 0 1 0 0 0 1 0"/>
<feBlend mode="normal" in2="shape" result="effect2_innerShadow_517_1487"/>
</filter>
<linearGradient id="paint0_linear_517_1487" x1="24" y1="0" x2="24" y2="48" gradientUnits="userSpaceOnUse">
<stop stop-color="#10DBDB"/>
<stop offset="1" stop-color="#0047A5"/>
</linearGradient>
<linearGradient id="paint1_linear_517_1487" x1="24.0001" y1="14" x2="24.0001" y2="33.9707" gradientUnits="userSpaceOnUse">
<stop stop-color="#10DBDB"/>
<stop offset="1" stop-color="#0047A5"/>
</linearGradient>
</defs>
</svg>
