<svg width="48" height="48" viewBox="0 0 48 48" fill="none" xmlns="http://www.w3.org/2000/svg">
<rect width="48" height="48" rx="10" fill="url(#paint0_linear_517_8253)" fill-opacity="0.05"/>
<g filter="url(#filter0_di_517_8253)">
<path fill-rule="evenodd" clip-rule="evenodd" d="M28.552 34.133C27.112 34.08 23.031 33.516 18.757 29.243C14.484 24.969 13.921 20.889 13.867 19.448C13.787 17.252 15.469 15.119 17.412 14.286C17.646 14.1849 17.9022 14.1465 18.1555 14.1743C18.4089 14.2022 18.6506 14.2955 18.857 14.445C20.457 15.611 21.561 17.375 22.509 18.762C22.7176 19.0667 22.8068 19.4375 22.7596 19.8038C22.7123 20.17 22.532 20.5061 22.253 20.748L20.302 22.197C20.2077 22.265 20.1414 22.365 20.1153 22.4783C20.0892 22.5916 20.1051 22.7105 20.16 22.813C20.602 23.616 21.388 24.812 22.288 25.712C23.189 26.612 24.441 27.45 25.3 27.942C25.4077 28.0024 25.5345 28.0193 25.6543 27.9892C25.774 27.9591 25.8777 27.8842 25.944 27.78L27.214 25.847C27.4475 25.5368 27.7919 25.329 28.1752 25.2672C28.5584 25.2053 28.9508 25.2941 29.27 25.515C30.677 26.489 32.319 27.574 33.521 29.113C33.6826 29.3209 33.7854 29.5684 33.8187 29.8296C33.8519 30.0908 33.8144 30.3562 33.71 30.598C32.873 32.551 30.755 34.214 28.552 34.133Z" fill="url(#paint1_linear_517_8253)"/>
</g>
<defs>
<filter id="filter0_di_517_8253" x="4.86426" y="8.16553" width="37.9662" height="37.9702" filterUnits="userSpaceOnUse" color-interpolation-filters="sRGB">
<feFlood flood-opacity="0" result="BackgroundImageFix"/>
<feColorMatrix in="SourceAlpha" type="matrix" values="0 0 0 0 0 0 0 0 0 0 0 0 0 0 0 0 0 0 127 0" result="hardAlpha"/>
<feOffset dy="3"/>
<feGaussianBlur stdDeviation="4.5"/>
<feComposite in2="hardAlpha" operator="out"/>
<feColorMatrix type="matrix" values="0 0 0 0 1 0 0 0 0 1 0 0 0 0 1 0 0 0 0.2 0"/>
<feBlend mode="normal" in2="BackgroundImageFix" result="effect1_dropShadow_517_8253"/>
<feBlend mode="normal" in="SourceGraphic" in2="effect1_dropShadow_517_8253" result="shape"/>
<feColorMatrix in="SourceAlpha" type="matrix" values="0 0 0 0 0 0 0 0 0 0 0 0 0 0 0 0 0 0 127 0" result="hardAlpha"/>
<feOffset/>
<feGaussianBlur stdDeviation="1.24444"/>
<feComposite in2="hardAlpha" operator="arithmetic" k2="-1" k3="1"/>
<feColorMatrix type="matrix" values="0 0 0 0 1 0 0 0 0 1 0 0 0 0 1 0 0 0 1 0"/>
<feBlend mode="normal" in2="shape" result="effect2_innerShadow_517_8253"/>
</filter>
<linearGradient id="paint0_linear_517_8253" x1="24" y1="0" x2="24" y2="48" gradientUnits="userSpaceOnUse">
<stop stop-color="#10DBDB"/>
<stop offset="1" stop-color="#0047A5"/>
</linearGradient>
<linearGradient id="paint1_linear_517_8253" x1="23.8474" y1="14.1655" x2="23.8474" y2="34.1358" gradientUnits="userSpaceOnUse">
<stop stop-color="#10DBDB"/>
<stop offset="1" stop-color="#0047A5"/>
</linearGradient>
</defs>
</svg>
