<svg width="48" height="48" viewBox="0 0 48 48" fill="none" xmlns="http://www.w3.org/2000/svg">
<rect width="48" height="48" rx="10" fill="url(#paint0_linear_462_4391)" fill-opacity="0.05"/>
<g filter="url(#filter0_di_462_4391)">
<path d="M23 15C23.5046 14.9998 23.9906 15.1904 24.3605 15.5335C24.7305 15.8766 24.9572 16.3468 24.995 16.85L25 17V23C25.0002 23.5046 24.8096 23.9906 24.4665 24.3605C24.1234 24.7305 23.6532 24.9572 23.15 24.995L23 25H17C16.4954 25.0002 16.0094 24.8096 15.6395 24.4665C15.2695 24.1234 15.0428 23.6532 15.005 23.15L15 23V17C14.9998 16.4954 15.1904 16.0094 15.5335 15.6395C15.8766 15.2695 16.3468 15.0428 16.85 15.005L17 15H23ZM23 17H17V23H23V17ZM21.5 18C21.617 18 21.7304 18.041 21.8203 18.1159C21.9102 18.1908 21.9709 18.2949 21.992 18.41L22 18.5V21.5C22 21.617 21.959 21.7304 21.8841 21.8203C21.8092 21.9102 21.7051 21.9709 21.59 21.992L21.5 22H18.5C18.383 22 18.2696 21.959 18.1797 21.8841C18.0898 21.8092 18.0291 21.7051 18.008 21.59L18 21.5V18.5C18 18.383 18.041 18.2696 18.1159 18.1797C18.1908 18.0898 18.2949 18.0291 18.41 18.008L18.5 18H21.5ZM33 17C33 16.4696 32.7893 15.9609 32.4142 15.5858C32.0391 15.2107 31.5304 15 31 15H29C28.4696 15 27.9609 15.2107 27.5858 15.5858C27.2107 15.9609 27 16.4696 27 17V19C27 19.5304 27.2107 20.0391 27.5858 20.4142C27.9609 20.7893 28.4696 21 29 21H31C31.5304 21 32.0391 20.7893 32.4142 20.4142C32.7893 20.0391 33 19.5304 33 19V17ZM15 29C15 28.4696 15.2107 27.9609 15.5858 27.5858C15.9609 27.2107 16.4696 27 17 27H19C19.5304 27 20.0391 27.2107 20.4142 27.5858C20.7893 27.9609 21 28.4696 21 29V31C21 31.5304 20.7893 32.0391 20.4142 32.4142C20.0391 32.7893 19.5304 33 19 33H17C16.4696 33 15.9609 32.7893 15.5858 32.4142C15.2107 32.0391 15 31.5304 15 31V29ZM31 27C31.5304 27 32.0391 27.2107 32.4142 27.5858C32.7893 27.9609 33 28.4696 33 29V31C33 31.5304 32.7893 32.0391 32.4142 32.4142C32.0391 32.7893 31.5304 33 31 33H29C28.4696 33 27.9609 32.7893 27.5858 32.4142C27.2107 32.0391 27 31.5304 27 31V29C27 28.4696 27.2107 27.9609 27.5858 27.5858C27.9609 27.2107 28.4696 27 29 27H31ZM27 24C27 23.7348 27.1054 23.4804 27.2929 23.2929C27.4804 23.1054 27.7348 23 28 23H32C32.2652 23 32.5196 23.1054 32.7071 23.2929C32.8946 23.4804 33 23.7348 33 24C33 24.2652 32.8946 24.5196 32.7071 24.7071C32.5196 24.8946 32.2652 25 32 25H28C27.7348 25 27.4804 24.8946 27.2929 24.7071C27.1054 24.5196 27 24.2652 27 24ZM25 28C25 27.7348 24.8946 27.4804 24.7071 27.2929C24.5196 27.1054 24.2652 27 24 27C23.7348 27 23.4804 27.1054 23.2929 27.2929C23.1054 27.4804 23 27.7348 23 28V32C23 32.2652 23.1054 32.5196 23.2929 32.7071C23.4804 32.8946 23.7348 33 24 33C24.2652 33 24.5196 32.8946 24.7071 32.7071C24.8946 32.5196 25 32.2652 25 32V28Z" fill="url(#paint1_linear_462_4391)"/>
</g>
<defs>
<filter id="filter0_di_462_4391" x="6" y="9" width="36" height="36" filterUnits="userSpaceOnUse" color-interpolation-filters="sRGB">
<feFlood flood-opacity="0" result="BackgroundImageFix"/>
<feColorMatrix in="SourceAlpha" type="matrix" values="0 0 0 0 0 0 0 0 0 0 0 0 0 0 0 0 0 0 127 0" result="hardAlpha"/>
<feOffset dy="3"/>
<feGaussianBlur stdDeviation="4.5"/>
<feComposite in2="hardAlpha" operator="out"/>
<feColorMatrix type="matrix" values="0 0 0 0 1 0 0 0 0 1 0 0 0 0 1 0 0 0 0.2 0"/>
<feBlend mode="normal" in2="BackgroundImageFix" result="effect1_dropShadow_462_4391"/>
<feBlend mode="normal" in="SourceGraphic" in2="effect1_dropShadow_462_4391" result="shape"/>
<feColorMatrix in="SourceAlpha" type="matrix" values="0 0 0 0 0 0 0 0 0 0 0 0 0 0 0 0 0 0 127 0" result="hardAlpha"/>
<feOffset/>
<feGaussianBlur stdDeviation="1.24444"/>
<feComposite in2="hardAlpha" operator="arithmetic" k2="-1" k3="1"/>
<feColorMatrix type="matrix" values="0 0 0 0 1 0 0 0 0 1 0 0 0 0 1 0 0 0 1 0"/>
<feBlend mode="normal" in2="shape" result="effect2_innerShadow_462_4391"/>
</filter>
<linearGradient id="paint0_linear_462_4391" x1="24" y1="0" x2="24" y2="48" gradientUnits="userSpaceOnUse">
<stop stop-color="#10DBDB"/>
<stop offset="1" stop-color="#0047A5"/>
</linearGradient>
<linearGradient id="paint1_linear_462_4391" x1="24" y1="15" x2="24" y2="33" gradientUnits="userSpaceOnUse">
<stop stop-color="#10DBDB"/>
<stop offset="1" stop-color="#0047A5"/>
</linearGradient>
</defs>
</svg>
