<svg width="58" height="56" viewBox="0 0 58 56" fill="none" xmlns="http://www.w3.org/2000/svg">
<g filter="url(#filter0_di_207_5808)">
<path d="M11 19.0001C11.5304 19.0001 12.0391 19.2108 12.4142 19.5858C12.7893 19.9609 13 20.4696 13 21.0001V23.0001C13 26.1827 14.2643 29.2349 16.5147 31.4853C18.7652 33.7358 21.8174 35.0001 25 35.0001H32.172L30.586 33.4141C30.2217 33.0369 30.0201 32.5317 30.0247 32.0073C30.0292 31.4829 30.2395 30.9812 30.6104 30.6104C30.9812 30.2396 31.4828 30.0293 32.0072 30.0247C32.5316 30.0202 33.0368 30.2217 33.414 30.5861L38.414 35.5861C38.7155 35.8862 38.9125 36.2754 38.976 36.6961L39 37.0201C38.9953 37.5476 38.7817 38.0517 38.406 38.4221L33.414 43.4141C33.0368 43.7784 32.5316 43.98 32.0072 43.9754C31.4828 43.9709 30.9812 43.7605 30.6104 43.3897C30.2395 43.0189 30.0292 42.5173 30.0247 41.9929C30.0201 41.4685 30.2217 40.9633 30.586 40.5861L32.172 39.0001H25C20.7565 39.0001 16.6869 37.3144 13.6863 34.3138C10.6857 31.3132 9 27.2435 9 23.0001V21.0001C9 20.4696 9.21071 19.9609 9.58579 19.5858C9.96086 19.2108 10.4696 19.0001 11 19.0001ZM41 15.0001C41.3742 15.0001 41.7408 15.105 42.0583 15.303C42.3758 15.501 42.6314 15.7841 42.796 16.1201L42.892 16.3541L43.152 17.1101C43.4264 17.9144 43.8686 18.6513 44.4492 19.2719C45.0298 19.8926 45.7357 20.3828 46.52 20.7101L46.89 20.8501L47.646 21.1081C48.0204 21.2358 48.3485 21.4717 48.5888 21.7859C48.8291 22.1 48.9709 22.4785 48.9961 22.8732C49.0214 23.268 48.929 23.6614 48.7307 24.0036C48.5324 24.3459 48.237 24.6217 47.882 24.7961L47.646 24.8921L46.89 25.1521C46.0856 25.4265 45.3487 25.8686 44.7281 26.4492C44.1075 27.0299 43.6173 27.7357 43.29 28.5201L43.15 28.8901L42.892 29.6461C42.7643 30.0204 42.5284 30.3485 42.2142 30.5889C41.9 30.8292 41.5216 30.9709 41.1268 30.9962C40.7321 31.0215 40.3387 30.9291 39.9964 30.7308C39.6542 30.5325 39.3784 30.2371 39.204 29.8821L39.108 29.6461L38.848 28.8901C38.5736 28.0857 38.1314 27.3488 37.5508 26.7282C36.9702 26.1076 36.2643 25.6174 35.48 25.2901L35.11 25.1501L34.354 24.8921C33.9796 24.7643 33.6515 24.5285 33.4112 24.2143C33.1709 23.9001 33.0291 23.5217 33.0039 23.1269C32.9786 22.7321 33.071 22.3388 33.2693 21.9965C33.4676 21.6542 33.763 21.3785 34.118 21.2041L34.354 21.1081L35.11 20.8481C35.9144 20.5737 36.6513 20.1315 37.2719 19.5509C37.8925 18.9702 38.3827 18.2644 38.71 17.4801L38.85 17.1101L39.108 16.3541C39.2428 15.9592 39.4976 15.6164 39.8369 15.3736C40.1761 15.1308 40.5828 15.0002 41 15.0001ZM41 21.3921C40.5268 21.9874 39.9873 22.5268 39.392 23.0001C39.988 23.4721 40.526 24.0121 41 24.6081C41.472 24.0121 42.012 23.4721 42.608 23.0001C42.0127 22.5268 41.4732 21.9874 41 21.3921ZM23.414 6.58606C23.7889 6.96112 23.9996 7.46973 23.9996 8.00006C23.9996 8.53039 23.7889 9.03901 23.414 9.41406L21.828 11.0001H29C31.45 11.0001 33.778 11.5521 35.86 12.5401C36.0973 12.653 36.31 12.8116 36.486 13.0067C36.6621 13.2019 36.7979 13.4298 36.8859 13.6774C36.9738 13.9251 37.0121 14.1876 36.9986 14.4501C36.985 14.7125 36.9199 14.9698 36.807 15.2071C36.6941 15.4444 36.5355 15.6571 36.3403 15.8331C36.1452 16.0091 35.9173 16.145 35.6696 16.2329C35.1695 16.4105 34.6192 16.3821 34.14 16.1541C32.5339 15.3916 30.7779 14.9974 29 15.0001H21.828L23.414 16.5861C23.7783 16.9633 23.9799 17.4685 23.9753 17.9929C23.9708 18.5173 23.7605 19.0189 23.3896 19.3897C23.0188 19.7605 22.5172 19.9709 21.9928 19.9754C21.4684 19.98 20.9632 19.7784 20.586 19.4141L15.586 14.4141C15.2111 14.039 15.0004 13.5304 15.0004 13.0001C15.0004 12.4697 15.2111 11.9611 15.586 11.5861L20.586 6.58606C20.9611 6.21112 21.4697 6.00049 22 6.00049C22.5303 6.00049 23.0389 6.21112 23.414 6.58606Z" fill="url(#paint0_linear_207_5808)" shape-rendering="crispEdges"/>
</g>
<defs>
<filter id="filter0_di_207_5808" x="0" y="0.000488281" width="58" height="55.9751" filterUnits="userSpaceOnUse" color-interpolation-filters="sRGB">
<feFlood flood-opacity="0" result="BackgroundImageFix"/>
<feColorMatrix in="SourceAlpha" type="matrix" values="0 0 0 0 0 0 0 0 0 0 0 0 0 0 0 0 0 0 127 0" result="hardAlpha"/>
<feOffset dy="3"/>
<feGaussianBlur stdDeviation="4.5"/>
<feComposite in2="hardAlpha" operator="out"/>
<feColorMatrix type="matrix" values="0 0 0 0 1 0 0 0 0 1 0 0 0 0 1 0 0 0 0.2 0"/>
<feBlend mode="normal" in2="BackgroundImageFix" result="effect1_dropShadow_207_5808"/>
<feBlend mode="normal" in="SourceGraphic" in2="effect1_dropShadow_207_5808" result="shape"/>
<feColorMatrix in="SourceAlpha" type="matrix" values="0 0 0 0 0 0 0 0 0 0 0 0 0 0 0 0 0 0 127 0" result="hardAlpha"/>
<feOffset/>
<feGaussianBlur stdDeviation="1.24444"/>
<feComposite in2="hardAlpha" operator="arithmetic" k2="-1" k3="1"/>
<feColorMatrix type="matrix" values="0 0 0 0 1 0 0 0 0 1 0 0 0 0 1 0 0 0 1 0"/>
<feBlend mode="normal" in2="shape" result="effect2_innerShadow_207_5808"/>
</filter>
<linearGradient id="paint0_linear_207_5808" x1="29.0001" y1="45.7889" x2="29.0001" y2="-40.7216" gradientUnits="userSpaceOnUse">
<stop stop-color="white"/>
<stop offset="1" stop-color="white" stop-opacity="0"/>
</linearGradient>
</defs>
</svg>
