<svg width="25" height="24" viewBox="0 0 25 24" fill="none" xmlns="http://www.w3.org/2000/svg">
<path d="M15.457 5.63634L21.114 11.2933C21.3015 11.4809 21.4068 11.7352 21.4068 12.0003C21.4068 12.2655 21.3015 12.5198 21.114 12.7073L15.457 18.3643C15.2684 18.5465 15.0158 18.6473 14.7536 18.645C14.4914 18.6427 14.2406 18.5376 14.0552 18.3522C13.8698 18.1668 13.7646 17.9159 13.7623 17.6537C13.76 17.3915 13.8608 17.1389 14.043 16.9503L17.993 13.0003H4.75C4.48478 13.0003 4.23043 12.895 4.04289 12.7074C3.85536 12.5199 3.75 12.2656 3.75 12.0003C3.75 11.7351 3.85536 11.4808 4.04289 11.2932C4.23043 11.1057 4.48478 11.0003 4.75 11.0003H17.993L14.043 7.05034C13.9475 6.9581 13.8713 6.84775 13.8189 6.72575C13.7665 6.60374 13.7389 6.47252 13.7377 6.33974C13.7366 6.20696 13.7619 6.07529 13.8122 5.95239C13.8625 5.82949 13.9367 5.71784 14.0306 5.62395C14.1245 5.53006 14.2361 5.4558 14.359 5.40552C14.4819 5.35524 14.6136 5.32994 14.7464 5.33109C14.8792 5.33225 15.0104 5.35983 15.1324 5.41224C15.2544 5.46465 15.3648 5.54083 15.457 5.63634Z" fill="white"/>
</svg>
