<svg width="13" height="12" viewBox="0 0 13 12" fill="none" xmlns="http://www.w3.org/2000/svg">
<path fill-rule="evenodd" clip-rule="evenodd" d="M2 0C1.46957 0 0.960859 0.210714 0.585787 0.585787C0.210714 0.960859 0 1.46957 0 2V10C0 10.5304 0.210714 11.0391 0.585787 11.4142C0.960859 11.7893 1.46957 12 2 12H10C10.5304 12 11.0391 11.7893 11.4142 11.4142C11.7893 11.0391 12 10.5304 12 10V6.66667C12 6.48986 11.9298 6.32029 11.8047 6.19526C11.6797 6.07024 11.5101 6 11.3333 6C11.1565 6 10.987 6.07024 10.8619 6.19526C10.7369 6.32029 10.6667 6.48986 10.6667 6.66667V10C10.6667 10.1768 10.5964 10.3464 10.4714 10.4714C10.3464 10.5964 10.1768 10.6667 10 10.6667H2C1.82319 10.6667 1.65362 10.5964 1.5286 10.4714C1.40357 10.3464 1.33333 10.1768 1.33333 10V2C1.33333 1.82319 1.40357 1.65362 1.5286 1.5286C1.65362 1.40357 1.82319 1.33333 2 1.33333H7.33333C7.51014 1.33333 7.67971 1.2631 7.80474 1.13807C7.92976 1.01305 8 0.843478 8 0.666667C8 0.489856 7.92976 0.320286 7.80474 0.195262C7.67971 0.0702379 7.51014 0 7.33333 0H2ZM12.2387 2.03C12.3923 1.9426 12.5049 1.7978 12.5518 1.62741C12.5986 1.45703 12.5759 1.275 12.4887 1.12133C12.4 0.968886 12.2551 0.857298 12.0851 0.81055C11.915 0.763803 11.7335 0.785627 11.5793 0.871333C11.344 1.00467 11.1167 1.154 10.8927 1.30467C10.3248 1.68699 9.77676 2.09797 9.25067 2.536C8.156 3.44667 6.84133 4.72933 5.758 6.348C5.42198 5.90382 5.03084 5.50417 4.594 5.15867C4.30933 4.93667 3.99267 4.71867 3.65067 4.59467C3.48464 4.53376 3.30055 4.54129 3.14008 4.61562C2.97961 4.68995 2.85524 4.82497 2.79433 4.991C2.73342 5.15703 2.74096 5.34045 2.81529 5.50092C2.88961 5.66139 3.02464 5.78576 3.19067 5.84667C3.20733 5.85333 3.43733 5.94667 3.77467 6.21C4.16 6.51 4.692 7.036 5.20533 7.91467C5.26439 8.01583 5.34905 8.09964 5.4508 8.15767C5.55255 8.2157 5.66779 8.2459 5.78493 8.24523C5.90206 8.24455 6.01695 8.21303 6.11802 8.15382C6.21909 8.09462 6.30279 8.00984 6.36067 7.908C7.41667 6.04733 8.88533 4.57467 10.1033 3.56133C10.71 3.05667 11.25 2.67067 11.6353 2.412C11.832 2.27933 12.032 2.14933 12.238 2.03067L12.2387 2.03Z" fill="#0FA850"/>
</svg>
