<svg width="50" height="50" viewBox="0 0 50 50" fill="none" xmlns="http://www.w3.org/2000/svg">
<g filter="url(#filter0_di_53_2095)">
<path fill-rule="evenodd" clip-rule="evenodd" d="M35.2748 6.60825L35.6998 6.66158C36.8232 6.81658 38.3098 7.02491 39.1515 7.86825C39.8415 8.55658 40.1065 9.67658 40.2648 10.6766L40.3582 11.3199C40.5682 12.8366 40.6232 14.8232 40.2648 17.0299C39.5582 21.3849 37.2398 26.5816 31.4182 30.6049C31.3865 30.9182 31.3848 31.2349 31.3915 31.5516L31.4082 32.0249C31.4348 32.7532 31.4615 33.4816 31.2582 34.1882C30.9415 35.2882 29.8132 36.0132 28.7582 36.5332L28.2415 36.7782L27.5748 37.0716C26.3282 37.6016 24.6448 38.1449 23.5898 37.0882C22.9565 36.4566 22.6965 35.5299 22.4848 34.6082L22.4065 34.2632C22.3183 33.8277 22.207 33.3971 22.0732 32.9732C21.9898 32.7299 21.8998 32.4816 21.8032 32.2316C21.6968 32.3622 21.5839 32.4874 21.4648 32.6066C20.8898 33.1816 20.0315 33.5832 19.3248 33.8649C18.5532 34.1699 17.6798 34.4366 16.8715 34.6566L16.4565 34.7666L15.6615 34.9649L14.9415 35.1316L14.0798 35.3149L13.5415 35.4199C13.273 35.4696 12.9965 35.4533 12.7357 35.3723C12.475 35.2913 12.2378 35.1481 12.0447 34.955C11.8517 34.7619 11.7085 34.5248 11.6275 34.264C11.5465 34.0033 11.5301 33.7267 11.5798 33.4583L11.7232 32.7399L11.9798 31.5766L12.1865 30.7266L12.3432 30.1266C12.5632 29.3199 12.8298 28.4466 13.1365 27.6766C13.4165 26.9683 13.8182 26.1099 14.3932 25.5349L14.5265 25.4066L14.4198 25.3632C14.135 25.2549 13.8465 25.1566 13.5548 25.0682L13.0932 24.9266C11.9365 24.5766 10.6998 24.1999 9.9315 23.4299C8.99817 22.4982 9.31317 21.0799 9.76317 19.8999L9.9465 19.4432L10.2415 18.7766L10.4865 18.2599C11.0065 17.2066 11.7315 16.0782 12.8315 15.7616C13.4148 15.5949 14.0215 15.5849 14.6315 15.6016L14.9982 15.6132C15.4748 15.6299 15.9498 15.6482 16.4148 15.6032C20.4382 9.77991 25.6348 7.46158 29.9898 6.75491C31.7369 6.46837 33.5146 6.41904 35.2748 6.60825ZM18.9215 27.7332C18.6592 27.5391 18.3457 27.4261 18.0198 27.4084C17.694 27.3906 17.37 27.4688 17.0882 27.6332L16.9048 27.7566L16.7498 27.8949L16.5415 28.1582C16.1082 28.7849 15.8615 29.6516 15.6698 30.4616L15.4898 31.2416L15.4048 31.5966L15.7232 31.5199L16.4198 31.3599C17.3832 31.1349 18.4515 30.8433 19.1082 30.2516C19.3937 29.9662 19.5659 29.5869 19.5929 29.1841C19.6199 28.7814 19.4998 28.3825 19.2548 28.0616L19.1182 27.9049L19.0782 27.8666L18.9215 27.7332ZM30.8932 16.1099C30.5837 15.8003 30.2163 15.5547 29.8119 15.3871C29.4075 15.2195 28.974 15.1332 28.5363 15.1332C28.0985 15.1331 27.665 15.2192 27.2606 15.3867C26.8561 15.5541 26.4886 15.7996 26.179 16.1091C25.8694 16.4186 25.6238 16.786 25.4562 17.1904C25.2886 17.5948 25.2023 18.0282 25.2023 18.466C25.2022 18.9037 25.2883 19.3372 25.4558 19.7417C25.6232 20.1461 25.8687 20.5137 26.1782 20.8232C26.8032 21.4485 27.651 21.7998 28.5351 21.8C29.4192 21.8002 30.2671 21.4491 30.8923 20.8241C31.5176 20.1991 31.8689 19.3512 31.8691 18.4672C31.8692 17.5831 31.5182 16.7352 30.8932 16.1099Z" fill="url(#paint0_linear_53_2095)"/>
</g>
<defs>
<filter id="filter0_di_53_2095" x="0.327148" y="0.495605" width="49.1973" height="49.1968" filterUnits="userSpaceOnUse" color-interpolation-filters="sRGB">
<feFlood flood-opacity="0" result="BackgroundImageFix"/>
<feColorMatrix in="SourceAlpha" type="matrix" values="0 0 0 0 0 0 0 0 0 0 0 0 0 0 0 0 0 0 127 0" result="hardAlpha"/>
<feOffset dy="3"/>
<feGaussianBlur stdDeviation="4.5"/>
<feComposite in2="hardAlpha" operator="out"/>
<feColorMatrix type="matrix" values="0 0 0 0 1 0 0 0 0 1 0 0 0 0 1 0 0 0 0.2 0"/>
<feBlend mode="normal" in2="BackgroundImageFix" result="effect1_dropShadow_53_2095"/>
<feBlend mode="normal" in="SourceGraphic" in2="effect1_dropShadow_53_2095" result="shape"/>
<feColorMatrix in="SourceAlpha" type="matrix" values="0 0 0 0 0 0 0 0 0 0 0 0 0 0 0 0 0 0 127 0" result="hardAlpha"/>
<feOffset/>
<feGaussianBlur stdDeviation="1.24444"/>
<feComposite in2="hardAlpha" operator="arithmetic" k2="-1" k3="1"/>
<feColorMatrix type="matrix" values="0 0 0 0 1 0 0 0 0 1 0 0 0 0 1 0 0 0 1 0"/>
<feBlend mode="normal" in2="shape" result="effect2_innerShadow_53_2095"/>
</filter>
<linearGradient id="paint0_linear_53_2095" x1="24.926" y1="6.49561" x2="24.926" y2="37.6925" gradientUnits="userSpaceOnUse">
<stop stop-color="#10DBDB"/>
<stop offset="1" stop-color="#0047A5"/>
</linearGradient>
</defs>
</svg>
