<svg width="52" height="47" viewBox="0 0 52 47" fill="none" xmlns="http://www.w3.org/2000/svg">
<g filter="url(#filter0_di_398_2975)">
<path fill-rule="evenodd" clip-rule="evenodd" d="M38.7654 7.0267C40.777 6.70336 42.6654 8.24003 42.6654 10.3334V26.3334C42.6654 28.4267 40.7787 29.9634 38.7654 29.6417C35.0932 29.0468 31.3844 28.706 27.6654 28.6217V30.8917C28.8537 30.9734 29.9654 31.125 30.8554 31.2734C31.5987 31.3967 32.3387 31.535 33.0687 31.7167C33.2812 31.7697 33.4811 31.8641 33.657 31.9944C33.833 32.1247 33.9816 32.2884 34.0943 32.4761C34.2069 32.6639 34.2815 32.872 34.3137 33.0886C34.346 33.3051 34.3352 33.5259 34.282 33.7384C34.1687 34.1685 33.8901 34.5365 33.5068 34.7622C33.1234 34.9879 32.6665 35.053 32.2354 34.9434C31.597 34.7934 30.9537 34.6684 30.3087 34.56C28.8848 34.3141 27.4436 34.1826 25.9987 34.1667C24.4587 34.1667 22.8904 34.36 21.6887 34.56C21.0437 34.6684 20.4004 34.7934 19.762 34.9434C19.3309 35.053 18.874 34.9879 18.4906 34.7622C18.1073 34.5365 17.8287 34.1685 17.7154 33.7384C17.6153 33.3091 17.6864 32.8578 17.9135 32.48C18.1406 32.1023 18.506 31.8279 18.932 31.715C19.6628 31.5396 20.4 31.3922 21.142 31.2734C22.032 31.1234 23.142 30.9734 24.332 30.8917V28.6217C20.613 28.706 16.9042 29.0468 13.232 29.6417C11.2204 29.9634 9.33203 28.425 9.33203 26.3334V10.3334C9.33203 8.24003 11.2187 6.70336 13.232 7.0267C21.8554 8.40836 30.142 8.40836 38.7654 7.0267Z" fill="url(#paint0_linear_398_2975)"/>
</g>
<defs>
<filter id="filter0_di_398_2975" x="0.332031" y="0.983643" width="51.332" height="46.0117" filterUnits="userSpaceOnUse" color-interpolation-filters="sRGB">
<feFlood flood-opacity="0" result="BackgroundImageFix"/>
<feColorMatrix in="SourceAlpha" type="matrix" values="0 0 0 0 0 0 0 0 0 0 0 0 0 0 0 0 0 0 127 0" result="hardAlpha"/>
<feOffset dy="3"/>
<feGaussianBlur stdDeviation="4.5"/>
<feComposite in2="hardAlpha" operator="out"/>
<feColorMatrix type="matrix" values="0 0 0 0 1 0 0 0 0 1 0 0 0 0 1 0 0 0 0.2 0"/>
<feBlend mode="normal" in2="BackgroundImageFix" result="effect1_dropShadow_398_2975"/>
<feBlend mode="normal" in="SourceGraphic" in2="effect1_dropShadow_398_2975" result="shape"/>
<feColorMatrix in="SourceAlpha" type="matrix" values="0 0 0 0 0 0 0 0 0 0 0 0 0 0 0 0 0 0 127 0" result="hardAlpha"/>
<feOffset/>
<feGaussianBlur stdDeviation="1.24444"/>
<feComposite in2="hardAlpha" operator="arithmetic" k2="-1" k3="1"/>
<feColorMatrix type="matrix" values="0 0 0 0 1 0 0 0 0 1 0 0 0 0 1 0 0 0 1 0"/>
<feBlend mode="normal" in2="shape" result="effect2_innerShadow_398_2975"/>
</filter>
<linearGradient id="paint0_linear_398_2975" x1="25.9987" y1="6.98364" x2="25.9987" y2="34.9954" gradientUnits="userSpaceOnUse">
<stop stop-color="#10DBDB"/>
<stop offset="1" stop-color="#0047A5"/>
</linearGradient>
</defs>
</svg>
