<svg width="25" height="24" viewBox="0 0 25 24" fill="none" xmlns="http://www.w3.org/2000/svg">
<path fill-rule="evenodd" clip-rule="evenodd" d="M18.2412 6.01009L5.64919 10.5631L9.84419 12.9911L13.5432 9.29109C13.7308 9.10358 13.9853 8.99829 14.2505 8.99839C14.5158 8.99848 14.7702 9.10395 14.9577 9.29159C15.1452 9.47923 15.2505 9.73367 15.2504 9.99894C15.2503 10.2642 15.1448 10.5186 14.9572 10.7061L11.2572 14.4061L13.6872 18.6001L18.2412 6.01009ZM18.5642 3.76609C19.7592 3.33309 20.9172 4.49109 20.4842 5.68609L15.2022 20.2911C14.7682 21.4891 13.1322 21.6351 12.4932 20.5321L9.27619 14.9741L3.71819 11.7571C2.61519 11.1181 2.76119 9.48209 3.95919 9.04809L18.5642 3.76609Z" fill="white"/>
</svg>
