<svg width="24" height="24" viewBox="0 0 24 24" fill="none" xmlns="http://www.w3.org/2000/svg">
<path d="M21.4327 4.86077L15.4327 20.3608C15.3734 20.5143 15.277 20.6508 15.1523 20.7581C15.0275 20.8655 14.8782 20.9404 14.7175 20.9762C14.5569 21.012 14.3899 21.0076 14.2314 20.9634C14.0728 20.9192 13.9276 20.8365 13.8087 20.7228L10.4267 17.4878L8.3527 19.5608C8.28272 19.6305 8.19364 19.678 8.0967 19.6972C7.99976 19.7163 7.89932 19.7063 7.80805 19.6685C7.71678 19.6306 7.63879 19.5665 7.58391 19.4844C7.52903 19.4022 7.49973 19.3056 7.4997 19.2068V14.6878L2.3087 9.72277C2.17991 9.59955 2.08639 9.44414 2.03783 9.27263C1.98927 9.10113 1.98743 8.91976 2.0325 8.74731C2.07758 8.57485 2.16793 8.41758 2.29421 8.29178C2.42048 8.16597 2.57809 8.0762 2.7507 8.03177L20.2507 3.53177C20.4286 3.48619 20.6157 3.49049 20.7913 3.5442C20.9669 3.59791 21.1244 3.69894 21.2464 3.83623C21.3684 3.97352 21.4502 4.14175 21.4829 4.32247C21.5156 4.5032 21.4979 4.68944 21.4317 4.86077H21.4327ZM18.9997 6.00077L8.0317 13.1518L9.76671 14.8118L18.9997 6.00077Z" fill="url(#paint0_linear_1_776)"/>
<defs>
<linearGradient id="paint0_linear_1_776" x1="11.7494" y1="3.50049" x2="11.7494" y2="21.0002" gradientUnits="userSpaceOnUse">
<stop stop-color="#10DBDB"/>
<stop offset="1" stop-color="#0047A5"/>
</linearGradient>
</defs>
</svg>
