<svg width="48" height="48" viewBox="0 0 48 48" fill="none" xmlns="http://www.w3.org/2000/svg">
<rect width="48" height="48" rx="10" fill="url(#paint0_linear_279_1306)" fill-opacity="0.05"/>
<g filter="url(#filter0_di_279_1306)">
<path fill-rule="evenodd" clip-rule="evenodd" d="M21.9651 14.8089C21.7659 14.6632 21.5341 14.5686 21.2899 14.5332C21.0457 14.4978 20.7965 14.5228 20.5641 14.6059C19.4778 15.0039 18.4688 15.5876 17.5821 16.3309C17.3943 16.4904 17.2483 16.6934 17.157 16.9223C17.0657 17.1512 17.0317 17.3989 17.0581 17.6439C17.1331 18.3969 17.0001 19.1239 16.6381 19.7499C16.2771 20.3769 15.7131 20.8559 15.0231 21.1669C14.7975 21.2669 14.5998 21.4206 14.4472 21.6146C14.2947 21.8086 14.192 22.037 14.1481 22.2799C13.9506 23.4181 13.9506 24.5818 14.1481 25.7199C14.2411 26.2569 14.6081 26.6459 15.0231 26.8339C15.7131 27.1439 16.2771 27.6239 16.6391 28.2499C17.0001 28.8769 17.1331 29.6029 17.0581 30.3559C17.0131 30.8079 17.1651 31.3199 17.5821 31.6689C18.4687 32.4123 19.4777 32.996 20.5641 33.3939C20.7963 33.477 21.0453 33.5019 21.2894 33.4665C21.5334 33.4311 21.7651 33.3365 21.9641 33.1909C22.5791 32.7489 23.2761 32.4999 24.0001 32.4999C24.7241 32.4999 25.4201 32.7489 26.0351 33.1909C26.4051 33.4569 26.9251 33.5809 27.4361 33.3939C28.5225 32.9959 29.5315 32.4123 30.4181 31.6689C30.8351 31.3199 30.9881 30.8089 30.9421 30.3559C30.8671 29.6029 30.9991 28.8759 31.3621 28.2499C31.7231 27.6229 32.2871 27.1449 32.9771 26.8339C33.3911 26.6469 33.7591 26.2569 33.8521 25.7199C34.0496 24.5817 34.0496 23.4181 33.8521 22.2799C33.8083 22.037 33.7056 21.8086 33.5531 21.6146C33.4005 21.4206 33.2028 21.2669 32.9771 21.1669C32.2871 20.8559 31.7231 20.3769 31.3611 19.7499C30.9991 19.1239 30.8671 18.3969 30.9421 17.6439C30.9685 17.3989 30.9345 17.1512 30.8432 16.9224C30.7518 16.6935 30.6059 16.4905 30.4181 16.3309C29.5315 15.5876 28.5225 15.0039 27.4361 14.6059C27.2039 14.5229 26.955 14.4981 26.7109 14.5335C26.4669 14.5688 26.2352 14.6634 26.0361 14.8089C25.4201 15.2499 24.7231 15.4999 24.0001 15.4999C23.2771 15.4999 22.5801 15.2509 21.9651 14.8089ZM21.0001 23.9999C21.0001 23.2043 21.3162 22.4412 21.8788 21.8786C22.4414 21.316 23.2045 20.9999 24.0001 20.9999C24.7958 20.9999 25.5589 21.316 26.1215 21.8786C26.6841 22.4412 27.0001 23.2043 27.0001 23.9999C27.0001 24.7956 26.6841 25.5586 26.1215 26.1212C25.5589 26.6838 24.7958 26.9999 24.0001 26.9999C23.2045 26.9999 22.4414 26.6838 21.8788 26.1212C21.3162 25.5586 21.0001 24.7956 21.0001 23.9999Z" fill="url(#paint1_linear_279_1306)"/>
</g>
<defs>
<filter id="filter0_di_279_1306" x="5" y="8.51758" width="38" height="36.9658" filterUnits="userSpaceOnUse" color-interpolation-filters="sRGB">
<feFlood flood-opacity="0" result="BackgroundImageFix"/>
<feColorMatrix in="SourceAlpha" type="matrix" values="0 0 0 0 0 0 0 0 0 0 0 0 0 0 0 0 0 0 127 0" result="hardAlpha"/>
<feOffset dy="3"/>
<feGaussianBlur stdDeviation="4.5"/>
<feComposite in2="hardAlpha" operator="out"/>
<feColorMatrix type="matrix" values="0 0 0 0 1 0 0 0 0 1 0 0 0 0 1 0 0 0 0.2 0"/>
<feBlend mode="normal" in2="BackgroundImageFix" result="effect1_dropShadow_279_1306"/>
<feBlend mode="normal" in="SourceGraphic" in2="effect1_dropShadow_279_1306" result="shape"/>
<feColorMatrix in="SourceAlpha" type="matrix" values="0 0 0 0 0 0 0 0 0 0 0 0 0 0 0 0 0 0 127 0" result="hardAlpha"/>
<feOffset/>
<feGaussianBlur stdDeviation="1.24444"/>
<feComposite in2="hardAlpha" operator="arithmetic" k2="-1" k3="1"/>
<feColorMatrix type="matrix" values="0 0 0 0 1 0 0 0 0 1 0 0 0 0 1 0 0 0 1 0"/>
<feBlend mode="normal" in2="shape" result="effect2_innerShadow_279_1306"/>
</filter>
<linearGradient id="paint0_linear_279_1306" x1="24" y1="0" x2="24" y2="48" gradientUnits="userSpaceOnUse">
<stop stop-color="#10DBDB"/>
<stop offset="1" stop-color="#0047A5"/>
</linearGradient>
<linearGradient id="paint1_linear_279_1306" x1="24.0001" y1="14.5176" x2="24.0001" y2="33.4835" gradientUnits="userSpaceOnUse">
<stop stop-color="#10DBDB"/>
<stop offset="1" stop-color="#0047A5"/>
</linearGradient>
</defs>
</svg>
