<svg width="52" height="50" viewBox="0 0 52 50" fill="none" xmlns="http://www.w3.org/2000/svg">
<g filter="url(#filter0_di_590_4674)">
<path fill-rule="evenodd" clip-rule="evenodd" d="M22.6082 6.68185C22.2763 6.43907 21.8899 6.2813 21.4828 6.22232C21.0758 6.16334 20.6605 6.20495 20.2732 6.34352C18.4626 7.00682 16.7809 7.97961 15.3032 9.21852C14.9902 9.48433 14.7469 9.82272 14.5947 10.2042C14.4424 10.5856 14.3859 10.9985 14.4299 11.4069C14.5549 12.6619 14.3332 13.8735 13.7299 14.9169C13.1282 15.9619 12.1882 16.7602 11.0382 17.2785C10.6622 17.4451 10.3326 17.7013 10.0784 18.0246C9.82416 18.348 9.65302 18.7287 9.57991 19.1335C9.25071 21.0305 9.25071 22.9699 9.57991 24.8668C9.73491 25.7619 10.3466 26.4102 11.0382 26.7235C12.1882 27.2402 13.1282 28.0402 13.7316 29.0835C14.3332 30.1285 14.5549 31.3385 14.4299 32.5935C14.3549 33.3469 14.6082 34.2002 15.3032 34.7819C16.7809 36.0208 18.4626 36.9936 20.2732 37.6569C20.6602 37.7953 21.0752 37.8368 21.482 37.7778C21.8887 37.7189 22.2748 37.5612 22.6066 37.3185C23.6316 36.5819 24.7932 36.1669 25.9999 36.1669C27.2066 36.1669 28.3666 36.5819 29.3916 37.3185C30.0082 37.7619 30.8749 37.9685 31.7266 37.6569C33.5372 36.9935 35.2189 36.0208 36.6966 34.7819C37.3916 34.2002 37.6466 33.3485 37.5699 32.5935C37.4449 31.3385 37.6649 30.1269 38.2699 29.0835C38.8716 28.0385 39.8116 27.2418 40.9616 26.7235C41.6516 26.4118 42.2649 25.7619 42.4199 24.8668C42.749 22.9699 42.749 21.0305 42.4199 19.1335C42.3468 18.7287 42.1757 18.348 41.9214 18.0246C41.6672 17.7013 41.3377 17.4451 40.9616 17.2785C39.8116 16.7602 38.8716 15.9619 38.2682 14.9169C37.6649 13.8735 37.4449 12.6619 37.5699 11.4069C37.6138 10.9985 37.5572 10.5857 37.405 10.2042C37.2527 9.82283 37.0095 9.48442 36.6966 9.21852C35.2189 7.97961 33.5372 7.00682 31.7266 6.34352C31.3396 6.20524 30.9246 6.16378 30.5179 6.22275C30.1112 6.28173 29.725 6.43935 29.3932 6.68185C28.3666 7.41685 27.2049 7.83352 25.9999 7.83352C24.7949 7.83352 23.6332 7.41852 22.6082 6.68185ZM20.9999 22.0002C20.9999 20.6741 21.5267 19.4023 22.4644 18.4646C23.4021 17.527 24.6738 17.0002 25.9999 17.0002C27.326 17.0002 28.5978 17.527 29.5354 18.4646C30.4731 19.4023 30.9999 20.6741 30.9999 22.0002C30.9999 23.3263 30.4731 24.598 29.5354 25.5357C28.5978 26.4734 27.326 27.0002 25.9999 27.0002C24.6738 27.0002 23.4021 26.4734 22.4644 25.5357C21.5267 24.598 20.9999 23.3263 20.9999 22.0002Z" fill="url(#paint0_linear_590_4674)"/>
</g>
<defs>
<filter id="filter0_di_590_4674" x="0.333008" y="0.196289" width="51.334" height="49.6099" filterUnits="userSpaceOnUse" color-interpolation-filters="sRGB">
<feFlood flood-opacity="0" result="BackgroundImageFix"/>
<feColorMatrix in="SourceAlpha" type="matrix" values="0 0 0 0 0 0 0 0 0 0 0 0 0 0 0 0 0 0 127 0" result="hardAlpha"/>
<feOffset dy="3"/>
<feGaussianBlur stdDeviation="4.5"/>
<feComposite in2="hardAlpha" operator="out"/>
<feColorMatrix type="matrix" values="0 0 0 0 1 0 0 0 0 1 0 0 0 0 1 0 0 0 0.2 0"/>
<feBlend mode="normal" in2="BackgroundImageFix" result="effect1_dropShadow_590_4674"/>
<feBlend mode="normal" in="SourceGraphic" in2="effect1_dropShadow_590_4674" result="shape"/>
<feColorMatrix in="SourceAlpha" type="matrix" values="0 0 0 0 0 0 0 0 0 0 0 0 0 0 0 0 0 0 127 0" result="hardAlpha"/>
<feOffset/>
<feGaussianBlur stdDeviation="1.24444"/>
<feComposite in2="hardAlpha" operator="arithmetic" k2="-1" k3="1"/>
<feColorMatrix type="matrix" values="0 0 0 0 1 0 0 0 0 1 0 0 0 0 1 0 0 0 1 0"/>
<feBlend mode="normal" in2="shape" result="effect2_innerShadow_590_4674"/>
</filter>
<linearGradient id="paint0_linear_590_4674" x1="25.9999" y1="6.19629" x2="25.9999" y2="37.8062" gradientUnits="userSpaceOnUse">
<stop stop-color="#10DBDB"/>
<stop offset="1" stop-color="#0047A5"/>
</linearGradient>
</defs>
</svg>
