<svg width="48" height="48" viewBox="0 0 48 48" fill="none" xmlns="http://www.w3.org/2000/svg">
<rect width="48" height="48" rx="10" fill="url(#paint0_linear_433_1710)" fill-opacity="0.05"/>
<g filter="url(#filter0_di_433_1710)">
<path d="M21 32.0001C21.2652 32.0001 21.5196 32.1054 21.7071 32.293C21.8946 32.4805 22 32.7349 22 33.0001C22 33.2653 21.8946 33.5196 21.7071 33.7072C21.5196 33.8947 21.2652 34.0001 21 34.0001C20.7348 34.0001 20.4804 33.8947 20.2929 33.7072C20.1054 33.5196 20 33.2653 20 33.0001C20 32.7349 20.1054 32.4805 20.2929 32.293C20.4804 32.1054 20.7348 32.0001 21 32.0001ZM28 32.0001C28.2652 32.0001 28.5196 32.1054 28.7071 32.293C28.8946 32.4805 29 32.7349 29 33.0001C29 33.2653 28.8946 33.5196 28.7071 33.7072C28.5196 33.8947 28.2652 34.0001 28 34.0001C27.7348 34.0001 27.4804 33.8947 27.2929 33.7072C27.1054 33.5196 27 33.2653 27 33.0001C27 32.7349 27.1054 32.4805 27.2929 32.293C27.4804 32.1054 27.7348 32.0001 28 32.0001ZM14.2 14.9001C14.3461 14.7053 14.5583 14.5704 14.7967 14.5209C15.0351 14.4714 15.2834 14.5106 15.495 14.6311L15.6 14.7011L17.308 15.9811C17.5987 16.1992 17.8244 16.4923 17.961 16.8291L18.021 17.0001H30.867C31.1381 17 31.4064 17.0551 31.6556 17.1619C31.9047 17.2687 32.1296 17.4251 32.3165 17.6215C32.5033 17.8179 32.6483 18.0503 32.7426 18.3044C32.8369 18.5586 32.8786 18.8293 32.865 19.1001L32.852 19.2481L32.395 22.9031C32.2579 24.003 31.7591 25.0262 30.9771 25.8118C30.1951 26.5974 29.1743 27.1008 28.075 27.2431L27.849 27.2661L20.536 27.8761L20.796 29.0001H29.5C29.7549 29.0004 30 29.098 30.1854 29.2729C30.3707 29.4479 30.4822 29.687 30.4972 29.9415C30.5121 30.1959 30.4293 30.4465 30.2657 30.6419C30.1021 30.8374 29.8701 30.963 29.617 30.9931L29.5 31.0001H20.796C20.3716 31.0001 19.9582 30.8652 19.6155 30.6148C19.2729 30.3644 19.0188 30.0115 18.89 29.6071L18.847 29.4501L16.107 17.5801L14.4 16.3001C14.1878 16.1409 14.0476 15.904 14.0101 15.6415C13.9725 15.3789 14.0409 15.1123 14.2 14.9001Z" fill="url(#paint1_linear_433_1710)"/>
</g>
<defs>
<filter id="filter0_di_433_1710" x="5" y="8.5" width="36.8672" height="37.5" filterUnits="userSpaceOnUse" color-interpolation-filters="sRGB">
<feFlood flood-opacity="0" result="BackgroundImageFix"/>
<feColorMatrix in="SourceAlpha" type="matrix" values="0 0 0 0 0 0 0 0 0 0 0 0 0 0 0 0 0 0 127 0" result="hardAlpha"/>
<feOffset dy="3"/>
<feGaussianBlur stdDeviation="4.5"/>
<feComposite in2="hardAlpha" operator="out"/>
<feColorMatrix type="matrix" values="0 0 0 0 1 0 0 0 0 1 0 0 0 0 1 0 0 0 0.2 0"/>
<feBlend mode="normal" in2="BackgroundImageFix" result="effect1_dropShadow_433_1710"/>
<feBlend mode="normal" in="SourceGraphic" in2="effect1_dropShadow_433_1710" result="shape"/>
<feColorMatrix in="SourceAlpha" type="matrix" values="0 0 0 0 0 0 0 0 0 0 0 0 0 0 0 0 0 0 127 0" result="hardAlpha"/>
<feOffset/>
<feGaussianBlur stdDeviation="1.24444"/>
<feComposite in2="hardAlpha" operator="arithmetic" k2="-1" k3="1"/>
<feColorMatrix type="matrix" values="0 0 0 0 1 0 0 0 0 1 0 0 0 0 1 0 0 0 1 0"/>
<feBlend mode="normal" in2="shape" result="effect2_innerShadow_433_1710"/>
</filter>
<linearGradient id="paint0_linear_433_1710" x1="24" y1="0" x2="24" y2="48" gradientUnits="userSpaceOnUse">
<stop stop-color="#10DBDB"/>
<stop offset="1" stop-color="#0047A5"/>
</linearGradient>
<linearGradient id="paint1_linear_433_1710" x1="23.4338" y1="14.5" x2="23.4338" y2="34.0001" gradientUnits="userSpaceOnUse">
<stop stop-color="#10DBDB"/>
<stop offset="1" stop-color="#0047A5"/>
</linearGradient>
</defs>
</svg>
