<svg width="48" height="48" viewBox="0 0 48 48" fill="none" xmlns="http://www.w3.org/2000/svg">
<rect width="48" height="48" rx="10" fill="url(#paint0_linear_462_7905)" fill-opacity="0.05"/>
<g filter="url(#filter0_di_462_7905)">
<path d="M33 24V31C33 31.5304 32.7893 32.0391 32.4142 32.4142C32.0391 32.7893 31.5304 33 31 33H17C16.4696 33 15.9609 32.7893 15.5858 32.4142C15.2107 32.0391 15 31.5304 15 31V24H33ZM28 15C28.2652 15 28.5196 15.1054 28.7071 15.2929C28.8946 15.4804 29 15.7348 29 16V17H31C31.5304 17 32.0391 17.2107 32.4142 17.5858C32.7893 17.9609 33 18.4696 33 19V22H15V19C15 18.4696 15.2107 17.9609 15.5858 17.5858C15.9609 17.2107 16.4696 17 17 17H19V16C19 15.7348 19.1054 15.4804 19.2929 15.2929C19.4804 15.1054 19.7348 15 20 15C20.2652 15 20.5196 15.1054 20.7071 15.2929C20.8946 15.4804 21 15.7348 21 16V17H27V16C27 15.7348 27.1054 15.4804 27.2929 15.2929C27.4804 15.1054 27.7348 15 28 15Z" fill="url(#paint1_linear_462_7905)"/>
</g>
<defs>
<filter id="filter0_di_462_7905" x="6" y="9" width="36" height="36" filterUnits="userSpaceOnUse" color-interpolation-filters="sRGB">
<feFlood flood-opacity="0" result="BackgroundImageFix"/>
<feColorMatrix in="SourceAlpha" type="matrix" values="0 0 0 0 0 0 0 0 0 0 0 0 0 0 0 0 0 0 127 0" result="hardAlpha"/>
<feOffset dy="3"/>
<feGaussianBlur stdDeviation="4.5"/>
<feComposite in2="hardAlpha" operator="out"/>
<feColorMatrix type="matrix" values="0 0 0 0 1 0 0 0 0 1 0 0 0 0 1 0 0 0 0.2 0"/>
<feBlend mode="normal" in2="BackgroundImageFix" result="effect1_dropShadow_462_7905"/>
<feBlend mode="normal" in="SourceGraphic" in2="effect1_dropShadow_462_7905" result="shape"/>
<feColorMatrix in="SourceAlpha" type="matrix" values="0 0 0 0 0 0 0 0 0 0 0 0 0 0 0 0 0 0 127 0" result="hardAlpha"/>
<feOffset/>
<feGaussianBlur stdDeviation="1.24444"/>
<feComposite in2="hardAlpha" operator="arithmetic" k2="-1" k3="1"/>
<feColorMatrix type="matrix" values="0 0 0 0 1 0 0 0 0 1 0 0 0 0 1 0 0 0 1 0"/>
<feBlend mode="normal" in2="shape" result="effect2_innerShadow_462_7905"/>
</filter>
<linearGradient id="paint0_linear_462_7905" x1="24" y1="0" x2="24" y2="48" gradientUnits="userSpaceOnUse">
<stop stop-color="#10DBDB"/>
<stop offset="1" stop-color="#0047A5"/>
</linearGradient>
<linearGradient id="paint1_linear_462_7905" x1="24" y1="15" x2="24" y2="33" gradientUnits="userSpaceOnUse">
<stop stop-color="#10DBDB"/>
<stop offset="1" stop-color="#0047A5"/>
</linearGradient>
</defs>
</svg>
