<svg width="96" height="96" viewBox="0 0 96 96" fill="none" xmlns="http://www.w3.org/2000/svg">
<path d="M48.0005 0.575684C54.5156 0.575684 61.0308 3.30296 65.5762 8.90902L73.758 19.0605C74.6671 20.2727 75.7277 21.3333 76.9399 22.2423L87.0914 30.4242C98.152 39.5151 98.152 56.4848 87.0914 65.5757L77.0914 73.7575C75.8793 74.6666 74.8186 75.7272 73.9096 76.9393L65.7277 87.0908C56.6368 98.1514 39.6671 98.1514 30.5762 87.0908L22.3944 76.9393C21.4853 75.7272 20.4247 74.6666 19.2126 73.7575L9.06108 65.5757C-1.99953 56.4848 -1.99953 39.5151 9.06108 30.4242L19.2126 22.2423C20.4247 21.3333 21.4853 20.2727 22.3944 19.0605L30.5762 8.90902C34.9702 3.30296 41.4853 0.575684 48.0005 0.575684Z" fill="url(#paint0_linear_53_5280)"/>
<path d="M48.0005 0.575684C54.5156 0.575684 61.0308 3.30296 65.5762 8.90902L73.758 19.0605C74.6671 20.2727 75.7277 21.3333 76.9399 22.2423L87.0914 30.4242C98.152 39.5151 98.152 56.4848 87.0914 65.5757L77.0914 73.7575C75.8793 74.6666 74.8186 75.7272 73.9096 76.9393L65.7277 87.0908C56.6368 98.1514 39.6671 98.1514 30.5762 87.0908L22.3944 76.9393C21.4853 75.7272 20.4247 74.6666 19.2126 73.7575L9.06108 65.5757C-1.99953 56.4848 -1.99953 39.5151 9.06108 30.4242L19.2126 22.2423C20.4247 21.3333 21.4853 20.2727 22.3944 19.0605L30.5762 8.90902C34.9702 3.30296 41.4853 0.575684 48.0005 0.575684Z" fill="url(#paint1_radial_53_5280)"/>
<defs>
<linearGradient id="paint0_linear_53_5280" x1="48.0762" y1="0.575684" x2="48.0762" y2="95.3863" gradientUnits="userSpaceOnUse">
<stop stop-color="#10DBDB"/>
<stop offset="1" stop-color="#0047A5"/>
</linearGradient>
<radialGradient id="paint1_radial_53_5280" cx="0" cy="0" r="1" gradientTransform="matrix(47.3106 47.4053 -47.3106 47.4053 48.0762 47.981)" gradientUnits="userSpaceOnUse">
<stop stop-color="white" stop-opacity="0.12"/>
<stop offset="1" stop-opacity="0"/>
</radialGradient>
</defs>
</svg>
