<svg width="48" height="48" viewBox="0 0 48 48" fill="none" xmlns="http://www.w3.org/2000/svg">
<rect width="48" height="48" rx="10" fill="url(#paint0_linear_279_1023)" fill-opacity="0.05"/>
<g filter="url(#filter0_di_279_1023)">
<path d="M24 24C25.873 24 27.57 24.62 28.815 25.487C29.998 26.312 31 27.538 31 28.857C31 29.581 30.691 30.181 30.204 30.627C29.746 31.048 29.148 31.321 28.532 31.507C27.301 31.88 25.68 32 24 32C22.32 32 20.699 31.88 19.468 31.507C18.852 31.321 18.254 31.048 17.795 30.627C17.31 30.182 17 29.582 17 28.858C17 27.539 18.002 26.313 19.185 25.488C20.43 24.62 22.127 24 24 24ZM31 25C32.044 25 32.992 25.345 33.693 25.833C34.333 26.28 35 27.023 35 27.929C35 28.446 34.775 28.875 34.44 29.182C34.134 29.463 33.756 29.628 33.411 29.732C32.941 29.874 32.386 29.947 31.81 29.979C31.932 29.634 32 29.259 32 28.857C32 27.322 31.041 26.018 29.968 25.113C30.3069 25.038 30.6529 25.0001 31 25ZM17 25C17.357 25 17.703 25.04 18.032 25.113C16.96 26.018 16 27.322 16 28.857C16 29.259 16.068 29.634 16.19 29.979C15.614 29.947 15.06 29.874 14.589 29.732C14.244 29.628 13.866 29.463 13.559 29.182C13.3829 29.0245 13.242 28.8315 13.1457 28.6157C13.0494 28.4 12.9997 28.1663 13 27.93C13 27.025 13.666 26.281 14.307 25.834C15.0998 25.2902 16.0387 24.9994 17 25ZM30.5 19C31.163 19 31.7989 19.2634 32.2678 19.7322C32.7366 20.2011 33 20.837 33 21.5C33 22.163 32.7366 22.7989 32.2678 23.2678C31.7989 23.7366 31.163 24 30.5 24C29.837 24 29.2011 23.7366 28.7322 23.2678C28.2634 22.7989 28 22.163 28 21.5C28 20.837 28.2634 20.2011 28.7322 19.7322C29.2011 19.2634 29.837 19 30.5 19ZM17.5 19C18.163 19 18.7989 19.2634 19.2678 19.7322C19.7366 20.2011 20 20.837 20 21.5C20 22.163 19.7366 22.7989 19.2678 23.2678C18.7989 23.7366 18.163 24 17.5 24C16.837 24 16.2011 23.7366 15.7322 23.2678C15.2634 22.7989 15 22.163 15 21.5C15 20.837 15.2634 20.2011 15.7322 19.7322C16.2011 19.2634 16.837 19 17.5 19ZM24 15C25.0609 15 26.0783 15.4214 26.8284 16.1716C27.5786 16.9217 28 17.9391 28 19C28 20.0609 27.5786 21.0783 26.8284 21.8284C26.0783 22.5786 25.0609 23 24 23C22.9391 23 21.9217 22.5786 21.1716 21.8284C20.4214 21.0783 20 20.0609 20 19C20 17.9391 20.4214 16.9217 21.1716 16.1716C21.9217 15.4214 22.9391 15 24 15Z" fill="url(#paint1_linear_279_1023)"/>
</g>
<defs>
<filter id="filter0_di_279_1023" x="4" y="9" width="40" height="35" filterUnits="userSpaceOnUse" color-interpolation-filters="sRGB">
<feFlood flood-opacity="0" result="BackgroundImageFix"/>
<feColorMatrix in="SourceAlpha" type="matrix" values="0 0 0 0 0 0 0 0 0 0 0 0 0 0 0 0 0 0 127 0" result="hardAlpha"/>
<feOffset dy="3"/>
<feGaussianBlur stdDeviation="4.5"/>
<feComposite in2="hardAlpha" operator="out"/>
<feColorMatrix type="matrix" values="0 0 0 0 1 0 0 0 0 1 0 0 0 0 1 0 0 0 0.2 0"/>
<feBlend mode="normal" in2="BackgroundImageFix" result="effect1_dropShadow_279_1023"/>
<feBlend mode="normal" in="SourceGraphic" in2="effect1_dropShadow_279_1023" result="shape"/>
<feColorMatrix in="SourceAlpha" type="matrix" values="0 0 0 0 0 0 0 0 0 0 0 0 0 0 0 0 0 0 127 0" result="hardAlpha"/>
<feOffset/>
<feGaussianBlur stdDeviation="1.24444"/>
<feComposite in2="hardAlpha" operator="arithmetic" k2="-1" k3="1"/>
<feColorMatrix type="matrix" values="0 0 0 0 1 0 0 0 0 1 0 0 0 0 1 0 0 0 1 0"/>
<feBlend mode="normal" in2="shape" result="effect2_innerShadow_279_1023"/>
</filter>
<linearGradient id="paint0_linear_279_1023" x1="24" y1="0" x2="24" y2="48" gradientUnits="userSpaceOnUse">
<stop stop-color="#10DBDB"/>
<stop offset="1" stop-color="#0047A5"/>
</linearGradient>
<linearGradient id="paint1_linear_279_1023" x1="24" y1="15" x2="24" y2="32" gradientUnits="userSpaceOnUse">
<stop stop-color="#10DBDB"/>
<stop offset="1" stop-color="#0047A5"/>
</linearGradient>
</defs>
</svg>
