<svg width="48" height="48" viewBox="0 0 48 48" fill="none" xmlns="http://www.w3.org/2000/svg">
<rect width="48" height="48" rx="10" fill="url(#paint0_linear_279_6871)" fill-opacity="0.05"/>
<g filter="url(#filter0_di_279_6871)">
<path fill-rule="evenodd" clip-rule="evenodd" d="M30.1653 14.7649L30.4203 14.7969C31.0943 14.8899 31.9863 15.0149 32.4913 15.5209C32.9053 15.9339 33.0643 16.6059 33.1593 17.2059L33.2153 17.5919C33.3413 18.5019 33.3743 19.6939 33.1593 21.0179C32.7353 23.6308 31.3443 26.7489 27.8513 29.1629C27.8323 29.3509 27.8313 29.5409 27.8353 29.7309L27.8453 30.0149C27.8613 30.4519 27.8773 30.8889 27.7553 31.3129C27.5653 31.9729 26.8883 32.4079 26.2553 32.7199L25.9453 32.8669L25.5453 33.0429C24.7973 33.3609 23.7873 33.6869 23.1543 33.0529C22.7743 32.6739 22.6183 32.1179 22.4913 31.5649L22.4443 31.3579C22.3913 31.0965 22.3246 30.8381 22.2443 30.5839C22.1943 30.4379 22.1403 30.2889 22.0823 30.1389C22.0185 30.2172 21.9507 30.2923 21.8793 30.3639C21.5343 30.7089 21.0193 30.9499 20.5953 31.1189C20.1323 31.3019 19.6083 31.4619 19.1233 31.5939L18.8743 31.6599L18.3973 31.7789L17.9653 31.8789L17.4483 31.9889L17.1253 32.0519C16.9642 32.0817 16.7983 32.0719 16.6418 32.0233C16.4854 31.9747 16.3431 31.8888 16.2272 31.7729C16.1114 31.6571 16.0255 31.5148 15.9769 31.3583C15.9283 31.2019 15.9185 31.0359 15.9483 30.8749L16.0343 30.4439L16.1883 29.7459L16.3123 29.2359L16.4063 28.8759C16.5383 28.3919 16.6983 27.8679 16.8823 27.4059C17.0503 26.9809 17.2913 26.4659 17.6363 26.1209L17.7163 26.0439L17.6523 26.0179C17.4814 25.9529 17.3083 25.8938 17.1333 25.8409L16.8563 25.7559C16.1623 25.5459 15.4203 25.3199 14.9593 24.8579C14.3993 24.2989 14.5883 23.4479 14.8583 22.7399L14.9683 22.4659L15.1453 22.0659L15.2923 21.7559C15.6043 21.1239 16.0393 20.4469 16.6993 20.2569C17.0493 20.1569 17.4133 20.1509 17.7793 20.1609L17.9993 20.1679C18.2853 20.1779 18.5703 20.1889 18.8493 20.1619C21.2633 16.6679 24.3813 15.2769 26.9943 14.8529C28.0425 14.6809 29.1091 14.6513 30.1653 14.7649ZM20.3533 27.4399C20.1959 27.3234 20.0078 27.2556 19.8123 27.2449C19.6168 27.2343 19.4224 27.2812 19.2533 27.3799L19.1433 27.4539L19.0503 27.5369L18.9253 27.6949C18.6653 28.0709 18.5173 28.5909 18.4023 29.0769L18.2943 29.5449L18.2433 29.7579L18.4343 29.7119L18.8523 29.6159C19.4303 29.4809 20.0713 29.3059 20.4653 28.9509C20.6366 28.7796 20.7399 28.552 20.7561 28.3104C20.7723 28.0687 20.7002 27.8294 20.5533 27.6369L20.4713 27.5429L20.4473 27.5199L20.3533 27.4399ZM27.5363 20.4659C27.3506 20.2801 27.1301 20.1327 26.8875 20.0322C26.6449 19.9316 26.3848 19.8798 26.1221 19.8798C25.8595 19.8798 25.5994 19.9314 25.3567 20.0319C25.1141 20.1324 24.8935 20.2797 24.7078 20.4654C24.522 20.651 24.3747 20.8715 24.2741 21.1141C24.1736 21.3568 24.1218 21.6168 24.1217 21.8795C24.1217 22.1421 24.1734 22.4022 24.2738 22.6449C24.3743 22.8876 24.5216 23.1081 24.7073 23.2939C25.0823 23.669 25.591 23.8798 26.1214 23.8799C26.6519 23.88 27.1606 23.6694 27.5358 23.2944C27.9109 22.9193 28.1217 22.4107 28.1218 21.8802C28.1219 21.3498 27.9113 20.841 27.5363 20.4659Z" fill="url(#paint1_linear_279_6871)"/>
</g>
<defs>
<filter id="filter0_di_279_6871" x="5.59668" y="8.69727" width="36.7188" height="36.7183" filterUnits="userSpaceOnUse" color-interpolation-filters="sRGB">
<feFlood flood-opacity="0" result="BackgroundImageFix"/>
<feColorMatrix in="SourceAlpha" type="matrix" values="0 0 0 0 0 0 0 0 0 0 0 0 0 0 0 0 0 0 127 0" result="hardAlpha"/>
<feOffset dy="3"/>
<feGaussianBlur stdDeviation="4.5"/>
<feComposite in2="hardAlpha" operator="out"/>
<feColorMatrix type="matrix" values="0 0 0 0 1 0 0 0 0 1 0 0 0 0 1 0 0 0 0.2 0"/>
<feBlend mode="normal" in2="BackgroundImageFix" result="effect1_dropShadow_279_6871"/>
<feBlend mode="normal" in="SourceGraphic" in2="effect1_dropShadow_279_6871" result="shape"/>
<feColorMatrix in="SourceAlpha" type="matrix" values="0 0 0 0 0 0 0 0 0 0 0 0 0 0 0 0 0 0 127 0" result="hardAlpha"/>
<feOffset/>
<feGaussianBlur stdDeviation="1.24444"/>
<feComposite in2="hardAlpha" operator="arithmetic" k2="-1" k3="1"/>
<feColorMatrix type="matrix" values="0 0 0 0 1 0 0 0 0 1 0 0 0 0 1 0 0 0 1 0"/>
<feBlend mode="normal" in2="shape" result="effect2_innerShadow_279_6871"/>
</filter>
<linearGradient id="paint0_linear_279_6871" x1="24" y1="0" x2="24" y2="48" gradientUnits="userSpaceOnUse">
<stop stop-color="#10DBDB"/>
<stop offset="1" stop-color="#0047A5"/>
</linearGradient>
<linearGradient id="paint1_linear_279_6871" x1="23.956" y1="14.6973" x2="23.956" y2="33.4154" gradientUnits="userSpaceOnUse">
<stop stop-color="#10DBDB"/>
<stop offset="1" stop-color="#0047A5"/>
</linearGradient>
</defs>
</svg>
