<svg width="48" height="48" viewBox="0 0 48 48" fill="none" xmlns="http://www.w3.org/2000/svg">
<rect width="48" height="48" rx="10" fill="url(#paint0_linear_398_1462)" fill-opacity="0.05"/>
<g filter="url(#filter0_di_398_1462)">
<path d="M24 14C24.896 14 25.764 14.118 26.59 14.339L24.464 16.464C24.3027 16.6259 24.1605 16.8058 24.04 17H24C22.6155 17 21.2622 17.4105 20.111 18.1797C18.9599 18.9489 18.0627 20.0421 17.5328 21.3212C17.003 22.6003 16.8644 24.0078 17.1345 25.3656C17.4046 26.7235 18.0713 27.9708 19.0503 28.9497C20.0292 29.9287 21.2765 30.5954 22.6344 30.8655C23.9922 31.1356 25.3997 30.997 26.6788 30.4672C27.9579 29.9373 29.0511 29.0401 29.8203 27.889C30.5895 26.7378 31 25.3845 31 24V23.96C31.192 23.84 31.372 23.699 31.535 23.535L33.661 21.41C33.882 22.236 34 23.104 34 24C34 29.523 29.523 34 24 34C18.477 34 14 29.523 14 24C14 18.477 18.477 14 24 14ZM23.586 19.017C23.586 19.868 23.544 20.731 23.59 21.581L23.05 22.121C22.8642 22.3068 22.7169 22.5273 22.6164 22.77C22.5158 23.0127 22.4641 23.2728 22.4641 23.5355C22.4641 23.7982 22.5158 24.0583 22.6164 24.301C22.7169 24.5437 22.8642 24.7642 23.05 24.95C23.2358 25.1358 23.4563 25.2831 23.699 25.3836C23.9417 25.4842 24.2018 25.5359 24.4645 25.5359C24.7272 25.5359 24.9873 25.4842 25.23 25.3836C25.4727 25.2831 25.6932 25.1358 25.879 24.95L26.419 24.41C27.269 24.456 28.131 24.414 28.983 24.414C28.904 25.3643 28.5549 26.2723 27.9768 27.0307C27.3988 27.7892 26.6159 28.3665 25.7205 28.6946C24.8251 29.0227 23.8545 29.0879 22.9233 28.8825C21.992 28.6771 21.139 28.2097 20.4647 27.5353C19.7903 26.861 19.3229 26.008 19.1175 25.0767C18.9121 24.1455 18.9773 23.1749 19.3054 22.2795C19.6335 21.3841 20.2108 20.6012 20.9693 20.0232C21.7277 19.4451 22.6357 19.096 23.586 19.017ZM30.504 14.127C30.6865 14.2027 30.8425 14.3307 30.9524 14.495C31.0622 14.6593 31.1209 14.8524 31.121 15.05V16.88H32.95C33.1478 16.88 33.341 16.9387 33.5055 17.0486C33.6699 17.1585 33.798 17.3146 33.8737 17.4973C33.9493 17.68 33.9692 17.8811 33.9306 18.075C33.892 18.269 33.7968 18.4471 33.657 18.587L30.12 22.12C29.9325 22.3075 29.6782 22.4129 29.413 22.413H27L25.172 24.242C24.9844 24.4296 24.7299 24.5351 24.4645 24.5351C24.1991 24.5351 23.9446 24.4296 23.757 24.242C23.5694 24.0544 23.4639 23.7999 23.4639 23.5345C23.4639 23.2691 23.5694 23.0146 23.757 22.827L25.586 21V18.586C25.5859 18.4545 25.6117 18.3243 25.662 18.2028C25.7123 18.0813 25.786 17.971 25.879 17.878L29.414 14.343C29.5538 14.2031 29.7321 14.1078 29.9261 14.0691C30.1201 14.0305 30.3212 14.0503 30.504 14.126" fill="url(#paint1_linear_398_1462)"/>
</g>
<defs>
<filter id="filter0_di_398_1462" x="5" y="8" width="38" height="38" filterUnits="userSpaceOnUse" color-interpolation-filters="sRGB">
<feFlood flood-opacity="0" result="BackgroundImageFix"/>
<feColorMatrix in="SourceAlpha" type="matrix" values="0 0 0 0 0 0 0 0 0 0 0 0 0 0 0 0 0 0 127 0" result="hardAlpha"/>
<feOffset dy="3"/>
<feGaussianBlur stdDeviation="4.5"/>
<feComposite in2="hardAlpha" operator="out"/>
<feColorMatrix type="matrix" values="0 0 0 0 1 0 0 0 0 1 0 0 0 0 1 0 0 0 0.2 0"/>
<feBlend mode="normal" in2="BackgroundImageFix" result="effect1_dropShadow_398_1462"/>
<feBlend mode="normal" in="SourceGraphic" in2="effect1_dropShadow_398_1462" result="shape"/>
<feColorMatrix in="SourceAlpha" type="matrix" values="0 0 0 0 0 0 0 0 0 0 0 0 0 0 0 0 0 0 127 0" result="hardAlpha"/>
<feOffset/>
<feGaussianBlur stdDeviation="1.24444"/>
<feComposite in2="hardAlpha" operator="arithmetic" k2="-1" k3="1"/>
<feColorMatrix type="matrix" values="0 0 0 0 1 0 0 0 0 1 0 0 0 0 1 0 0 0 1 0"/>
<feBlend mode="normal" in2="shape" result="effect2_innerShadow_398_1462"/>
</filter>
<linearGradient id="paint0_linear_398_1462" x1="24" y1="0" x2="24" y2="48" gradientUnits="userSpaceOnUse">
<stop stop-color="#10DBDB"/>
<stop offset="1" stop-color="#0047A5"/>
</linearGradient>
<linearGradient id="paint1_linear_398_1462" x1="24" y1="14" x2="24" y2="34" gradientUnits="userSpaceOnUse">
<stop stop-color="#10DBDB"/>
<stop offset="1" stop-color="#0047A5"/>
</linearGradient>
</defs>
</svg>
