<svg width="58" height="58" viewBox="0 0 58 58" fill="none" xmlns="http://www.w3.org/2000/svg">
<g filter="url(#filter0_di_207_1664)">
<path d="M29 6C29.75 6 30.49 6.04 31.22 6.122C31.4811 6.15089 31.7339 6.23092 31.964 6.35752C32.1942 6.48412 32.3971 6.6548 32.5613 6.85984C32.7255 7.06487 32.8476 7.30023 32.9209 7.55248C32.9941 7.80473 33.0169 8.06893 32.988 8.33C32.9591 8.59107 32.8791 8.84389 32.7525 9.07403C32.6259 9.30417 32.4552 9.50712 32.2502 9.67129C32.0451 9.83547 31.8098 9.95765 31.5575 10.0309C31.3053 10.1041 31.0411 10.1269 30.78 10.098C27.4841 9.72929 24.155 10.3939 21.2534 11.9998C18.3517 13.6058 16.0207 16.0738 14.5829 19.0624C13.1452 22.051 12.6716 25.4125 13.2278 28.682C13.784 31.9515 15.3424 34.9674 17.6875 37.3125C20.0326 39.6576 23.0485 41.216 26.318 41.7722C29.5875 42.3284 32.949 41.8548 35.9376 40.4171C38.9262 38.9793 41.3942 36.6483 43.0002 33.7466C44.6061 30.845 45.2707 27.5159 44.902 24.22C44.8731 23.9589 44.8959 23.6947 44.9691 23.4425C45.0424 23.1902 45.1645 22.9549 45.3287 22.7498C45.6603 22.3358 46.1427 22.0703 46.67 22.012C47.1973 21.9537 47.7261 22.1071 48.1402 22.4387C48.3452 22.6029 48.5159 22.8058 48.6425 23.036C48.7691 23.2661 48.8491 23.5189 48.878 23.78C48.958 24.51 49 25.25 49 26C49 37.046 40.046 46 29 46C17.954 46 9 37.046 9 26C9 14.954 17.954 6 29 6ZM28.936 17.754C29.0678 18.2674 28.9904 18.8122 28.7208 19.2686C28.4511 19.725 28.0113 20.0557 27.498 20.188C26.0877 20.5574 24.8601 21.4273 24.0441 22.6354C23.2281 23.8435 22.8795 25.3072 23.0634 26.7534C23.2473 28.1996 23.9511 29.5295 25.0435 30.4949C26.1358 31.4603 27.5422 31.9953 29 32C30.3304 31.9999 31.6231 31.5579 32.6751 30.7434C33.7271 29.9289 34.4787 28.788 34.812 27.5C34.9538 26.9967 35.287 26.5689 35.7403 26.3083C36.1936 26.0478 36.7309 25.975 37.2372 26.1058C37.7435 26.2365 38.1784 26.5604 38.4488 27.0079C38.7193 27.4554 38.8037 27.991 38.684 28.5C38.0705 30.8519 36.6217 32.8999 34.6083 34.2615C32.5949 35.6232 30.1547 36.2052 27.7435 35.899C25.3323 35.5928 23.1151 34.4192 21.506 32.5975C19.897 30.7758 19.0061 28.4306 19 26C19.0003 23.783 19.7371 21.6288 21.0947 19.876C22.4522 18.1232 24.3535 16.8709 26.5 16.316C26.7544 16.2504 27.0192 16.2356 27.2793 16.2724C27.5394 16.3092 27.7897 16.3969 28.0159 16.5304C28.2421 16.6639 28.4398 16.8407 28.5976 17.0507C28.7555 17.2606 28.8705 17.4996 28.936 17.754ZM42.008 6.254C42.3731 6.40536 42.6851 6.66147 42.9047 6.99002C43.1243 7.31856 43.2417 7.70481 43.242 8.1V11.76H46.9C47.2955 11.7601 47.6821 11.8774 48.0109 12.0972C48.3397 12.317 48.596 12.6293 48.7474 12.9947C48.8987 13.3601 48.9383 13.7622 48.8612 14.1501C48.784 14.538 48.5936 14.8943 48.314 15.174L41.24 22.24C40.865 22.6151 40.3564 22.8259 39.826 22.826H35L31.344 26.484C30.9687 26.8593 30.4597 27.0701 29.929 27.0701C29.3983 27.0701 28.8893 26.8593 28.514 26.484C28.1387 26.1087 27.9279 25.5997 27.9279 25.069C27.9279 24.5383 28.1387 24.0293 28.514 23.654L32.172 20V15.172C32.1721 14.6416 32.3829 14.133 32.758 13.758L39.828 6.686C40.1077 6.40613 40.4641 6.21552 40.8522 6.13826C41.2402 6.06101 41.6425 6.10059 42.008 6.252M39.242 12.926L36.172 16V18.828H39L42.072 15.758H41.242C40.7116 15.758 40.2029 15.5473 39.8278 15.1722C39.4527 14.7971 39.242 14.2884 39.242 13.758V12.926Z" fill="url(#paint0_linear_207_1664)" shape-rendering="crispEdges"/>
</g>
<defs>
<filter id="filter0_di_207_1664" x="0" y="0" width="58" height="58" filterUnits="userSpaceOnUse" color-interpolation-filters="sRGB">
<feFlood flood-opacity="0" result="BackgroundImageFix"/>
<feColorMatrix in="SourceAlpha" type="matrix" values="0 0 0 0 0 0 0 0 0 0 0 0 0 0 0 0 0 0 127 0" result="hardAlpha"/>
<feOffset dy="3"/>
<feGaussianBlur stdDeviation="4.5"/>
<feComposite in2="hardAlpha" operator="out"/>
<feColorMatrix type="matrix" values="0 0 0 0 1 0 0 0 0 1 0 0 0 0 1 0 0 0 0.2 0"/>
<feBlend mode="normal" in2="BackgroundImageFix" result="effect1_dropShadow_207_1664"/>
<feBlend mode="normal" in="SourceGraphic" in2="effect1_dropShadow_207_1664" result="shape"/>
<feColorMatrix in="SourceAlpha" type="matrix" values="0 0 0 0 0 0 0 0 0 0 0 0 0 0 0 0 0 0 127 0" result="hardAlpha"/>
<feOffset/>
<feGaussianBlur stdDeviation="1.24444"/>
<feComposite in2="hardAlpha" operator="arithmetic" k2="-1" k3="1"/>
<feColorMatrix type="matrix" values="0 0 0 0 1 0 0 0 0 1 0 0 0 0 1 0 0 0 1 0"/>
<feBlend mode="normal" in2="shape" result="effect2_innerShadow_207_1664"/>
</filter>
<linearGradient id="paint0_linear_207_1664" x1="29" y1="47.9101" x2="29" y2="-43.2135" gradientUnits="userSpaceOnUse">
<stop stop-color="white"/>
<stop offset="1" stop-color="white" stop-opacity="0"/>
</linearGradient>
</defs>
</svg>
