<svg width="48" height="48" viewBox="0 0 48 48" fill="none" xmlns="http://www.w3.org/2000/svg">
<rect width="48" height="48" rx="10" fill="url(#paint0_linear_398_6039)" fill-opacity="0.05"/>
<g filter="url(#filter0_di_398_6039)">
<path d="M23.1314 25.004C23.2582 24.783 23.4647 24.6188 23.7085 24.5449C23.9523 24.471 24.2152 24.493 24.4434 24.6063C24.6716 24.7197 24.8479 24.9158 24.9364 25.1548C25.0248 25.3937 25.0188 25.6574 24.9194 25.892L24.8674 25.996L23.7224 28H25.8274C26.0105 28 26.1907 28.0457 26.3517 28.133C26.5127 28.2203 26.6493 28.3463 26.7492 28.4998C26.8491 28.6532 26.9092 28.8292 26.9239 29.0117C26.9385 29.1942 26.9074 29.3775 26.8334 29.545L26.7824 29.645L24.8674 32.996C24.7405 33.217 24.5341 33.3812 24.2902 33.4551C24.0464 33.529 23.7836 33.507 23.5554 33.3937C23.3272 33.2803 23.1508 33.0842 23.0624 32.8452C22.9739 32.6063 22.98 32.3426 23.0794 32.108L23.1314 32.004L24.2764 30H22.1714C21.9883 30 21.808 29.9543 21.6471 29.867C21.4861 29.7797 21.3494 29.6537 21.2495 29.5002C21.1496 29.3468 21.0896 29.1708 21.0749 28.9883C21.0602 28.8058 21.0913 28.6225 21.1654 28.455L21.2164 28.355L23.1314 25.004ZM23.4994 14C24.8218 13.9999 26.1128 14.403 27.2002 15.1555C28.2876 15.9081 29.1196 16.9743 29.5854 18.212C30.918 18.5785 32.0833 19.3938 32.8845 20.52C33.6856 21.6463 34.0736 23.0145 33.9827 24.3937C33.8918 25.7728 33.3278 27.0783 32.3858 28.0898C31.4438 29.1012 30.1816 29.7565 28.8124 29.945C29.2614 28.39 28.4024 26.747 26.9184 26.194C27.0838 25.4923 26.9911 24.7544 26.6572 24.1154C26.3233 23.4764 25.7705 22.979 25.1 22.7141C24.4294 22.4493 23.6859 22.4347 23.0055 22.673C22.325 22.9113 21.7531 23.3866 21.3944 24.012L19.4804 27.362C19.2505 27.7581 19.1125 28.2008 19.0765 28.6574C19.0405 29.1139 19.1074 29.5728 19.2724 30H18.9994C17.8501 30.0008 16.7356 29.6056 15.8436 28.8809C14.9515 28.1563 14.3363 27.1465 14.1015 26.0214C13.8668 24.8964 14.0267 23.7248 14.5545 22.7038C15.0823 21.6829 15.9457 20.875 16.9994 20.416C17.0215 18.7067 17.716 17.0749 18.9326 15.874C20.1492 14.6731 21.7899 13.9999 23.4994 14Z" fill="url(#paint1_linear_398_6039)"/>
</g>
<defs>
<filter id="filter0_di_398_6039" x="4.99609" y="8" width="38" height="37.498" filterUnits="userSpaceOnUse" color-interpolation-filters="sRGB">
<feFlood flood-opacity="0" result="BackgroundImageFix"/>
<feColorMatrix in="SourceAlpha" type="matrix" values="0 0 0 0 0 0 0 0 0 0 0 0 0 0 0 0 0 0 127 0" result="hardAlpha"/>
<feOffset dy="3"/>
<feGaussianBlur stdDeviation="4.5"/>
<feComposite in2="hardAlpha" operator="out"/>
<feColorMatrix type="matrix" values="0 0 0 0 1 0 0 0 0 1 0 0 0 0 1 0 0 0 0.2 0"/>
<feBlend mode="normal" in2="BackgroundImageFix" result="effect1_dropShadow_398_6039"/>
<feBlend mode="normal" in="SourceGraphic" in2="effect1_dropShadow_398_6039" result="shape"/>
<feColorMatrix in="SourceAlpha" type="matrix" values="0 0 0 0 0 0 0 0 0 0 0 0 0 0 0 0 0 0 127 0" result="hardAlpha"/>
<feOffset/>
<feGaussianBlur stdDeviation="1.24444"/>
<feComposite in2="hardAlpha" operator="arithmetic" k2="-1" k3="1"/>
<feColorMatrix type="matrix" values="0 0 0 0 1 0 0 0 0 1 0 0 0 0 1 0 0 0 1 0"/>
<feBlend mode="normal" in2="shape" result="effect2_innerShadow_398_6039"/>
</filter>
<linearGradient id="paint0_linear_398_6039" x1="24" y1="0" x2="24" y2="48" gradientUnits="userSpaceOnUse">
<stop stop-color="#10DBDB"/>
<stop offset="1" stop-color="#0047A5"/>
</linearGradient>
<linearGradient id="paint1_linear_398_6039" x1="23.9959" y1="14" x2="23.9959" y2="33.4981" gradientUnits="userSpaceOnUse">
<stop stop-color="#10DBDB"/>
<stop offset="1" stop-color="#0047A5"/>
</linearGradient>
</defs>
</svg>
