<svg width="34" height="38" viewBox="0 0 34 38" fill="none" xmlns="http://www.w3.org/2000/svg">
<g filter="url(#filter0_di_1_859)">
<path fill-rule="evenodd" clip-rule="evenodd" d="M19 6C19.5304 6 20.0391 6.21071 20.4142 6.58579C20.7893 6.96086 21 7.46957 21 8C21.0005 8.69111 21.2393 9.36091 21.6761 9.89647C22.113 10.432 22.7211 10.8006 23.398 10.94C23.9178 11.0456 24.3744 11.3533 24.6674 11.7955C24.9603 12.2377 25.0656 12.7782 24.96 13.298C24.8544 13.8178 24.5467 14.2744 24.1045 14.5674C23.6623 14.8603 23.1218 14.9656 22.602 14.86C22.0483 14.7473 21.5103 14.5677 21 14.325V20C21 21.1222 20.6852 22.222 20.0914 23.1743C19.4976 24.1265 18.6487 24.8932 17.641 25.3872C16.6334 25.8812 15.5074 26.0827 14.3909 25.9687C13.2745 25.8548 12.2124 25.4301 11.3253 24.7428C10.4381 24.0554 9.76154 23.1331 9.37235 22.0805C8.98317 21.0279 8.89699 19.8873 9.1236 18.7881C9.35022 17.689 9.88054 16.6755 10.6543 15.8627C11.4281 15.0499 12.4144 14.4704 13.501 14.19C14.0114 14.0669 14.5498 14.1495 14.9998 14.4198C15.4499 14.6902 15.7756 15.1268 15.9066 15.6352C16.0376 16.1436 15.9635 16.6832 15.7001 17.1374C15.4368 17.5917 15.0053 17.9241 14.499 18.063C14.0302 18.1874 13.6225 18.4778 13.3516 18.8802C13.0808 19.2826 12.9652 19.7696 13.0265 20.2508C13.0877 20.7319 13.3215 21.1745 13.6845 21.4962C14.0475 21.818 14.515 21.997 15 22C15.5304 22 16.0391 21.7893 16.4142 21.4142C16.7893 21.0391 17 20.5304 17 20V8C17 7.46957 17.2107 6.96086 17.5858 6.58579C17.9609 6.21071 18.4696 6 19 6Z" fill="url(#paint0_linear_1_859)"/>
</g>
<defs>
<filter id="filter0_di_1_859" x="0" y="0" width="34" height="38" filterUnits="userSpaceOnUse" color-interpolation-filters="sRGB">
<feFlood flood-opacity="0" result="BackgroundImageFix"/>
<feColorMatrix in="SourceAlpha" type="matrix" values="0 0 0 0 0 0 0 0 0 0 0 0 0 0 0 0 0 0 127 0" result="hardAlpha"/>
<feOffset dy="3"/>
<feGaussianBlur stdDeviation="4.5"/>
<feComposite in2="hardAlpha" operator="out"/>
<feColorMatrix type="matrix" values="0 0 0 0 1 0 0 0 0 1 0 0 0 0 1 0 0 0 0.2 0"/>
<feBlend mode="normal" in2="BackgroundImageFix" result="effect1_dropShadow_1_859"/>
<feBlend mode="normal" in="SourceGraphic" in2="effect1_dropShadow_1_859" result="shape"/>
<feColorMatrix in="SourceAlpha" type="matrix" values="0 0 0 0 0 0 0 0 0 0 0 0 0 0 0 0 0 0 127 0" result="hardAlpha"/>
<feOffset/>
<feGaussianBlur stdDeviation="1.24444"/>
<feComposite in2="hardAlpha" operator="arithmetic" k2="-1" k3="1"/>
<feColorMatrix type="matrix" values="0 0 0 0 1 0 0 0 0 1 0 0 0 0 1 0 0 0 1 0"/>
<feBlend mode="normal" in2="shape" result="effect2_innerShadow_1_859"/>
</filter>
<linearGradient id="paint0_linear_1_859" x1="17" y1="6" x2="17" y2="25.9997" gradientUnits="userSpaceOnUse">
<stop stop-color="#10DBDB"/>
<stop offset="1" stop-color="#0047A5"/>
</linearGradient>
</defs>
</svg>
