<svg width="25" height="24" viewBox="0 0 25 24" fill="none" xmlns="http://www.w3.org/2000/svg">
<path fill-rule="evenodd" clip-rule="evenodd" d="M11.086 2.09951C11.44 1.74599 11.9136 1.53797 12.4134 1.51649C12.9132 1.49502 13.403 1.66165 13.786 1.98351L13.914 2.10051L15.814 3.99951H18.5C19.0044 3.99961 19.4901 4.19028 19.8599 4.53335C20.2297 4.87642 20.4561 5.34653 20.494 5.84951L20.5 5.99951V8.68551L22.4 10.5855C22.7538 10.9396 22.962 11.4134 22.9834 11.9134C23.0049 12.4135 22.8381 12.9034 22.516 13.2865L22.399 13.4135L20.499 15.3135V17.9995C20.4991 18.5041 20.3086 18.9901 19.9655 19.3601C19.6224 19.73 19.1521 19.9567 18.649 19.9945L18.5 19.9995H15.815L13.915 21.8995C13.5609 22.2533 13.0871 22.4615 12.587 22.483C12.087 22.5045 11.597 22.3377 11.214 22.0155L11.087 21.8995L9.18697 19.9995H6.49997C5.99539 19.9997 5.5094 19.8091 5.13942 19.466C4.76944 19.1229 4.54281 18.6527 4.50497 18.1495L4.49997 17.9995V15.3135L2.59997 13.4135C2.24616 13.0595 2.03797 12.5856 2.01649 12.0856C1.99502 11.5855 2.16182 11.0956 2.48397 10.7125L2.59997 10.5855L4.49997 8.68551V5.99951C4.50006 5.49511 4.69074 5.00937 5.03381 4.6396C5.37687 4.26983 5.84699 4.04334 6.34997 4.00551L6.49997 3.99951H9.18597L11.086 2.09951ZM15.579 8.98251L11.335 13.2265L9.56697 11.4585C9.37933 11.271 9.12489 11.1657 8.85962 11.1658C8.59435 11.1659 8.33998 11.2714 8.15247 11.459C7.96496 11.6467 7.85967 11.9011 7.85977 12.1664C7.85986 12.4316 7.96533 12.686 8.15297 12.8735L10.557 15.2775C10.6591 15.3797 10.7804 15.4608 10.9139 15.5161C11.0474 15.5714 11.1905 15.5999 11.335 15.5999C11.4795 15.5999 11.6226 15.5714 11.756 15.5161C11.8895 15.4608 12.0108 15.3797 12.113 15.2775L16.993 10.3965C17.1751 10.2079 17.2759 9.95531 17.2736 9.69311C17.2714 9.43092 17.1662 9.1801 16.9808 8.99469C16.7954 8.80929 16.5446 8.70412 16.2824 8.70184C16.0202 8.69956 15.7676 8.80036 15.579 8.98251Z" fill="url(#paint0_linear_1_808)"/>
<defs>
<linearGradient id="paint0_linear_1_808" x1="12.5" y1="1.51465" x2="12.5" y2="22.4848" gradientUnits="userSpaceOnUse">
<stop stop-color="#10DBDB"/>
<stop offset="1" stop-color="#0047A5"/>
</linearGradient>
</defs>
</svg>
