<svg width="48" height="48" viewBox="0 0 48 48" fill="none" xmlns="http://www.w3.org/2000/svg">
<rect width="48" height="48" rx="10" fill="url(#paint0_linear_433_748)" fill-opacity="0.05"/>
<g filter="url(#filter0_di_433_748)">
<path d="M25.6499 14.135C24.5581 13.9537 23.4438 13.9537 22.3519 14.135C22.0159 14.591 21.6879 15.18 21.3889 15.899C21.1069 16.575 20.8589 17.345 20.6529 18.19C21.7229 18.066 22.8459 18 24.0009 18C25.1559 18 26.2789 18.066 27.3489 18.19C27.1634 17.4088 26.9177 16.6432 26.6139 15.9C26.3139 15.18 25.9859 14.59 25.6499 14.135ZM27.7429 20.258C26.5032 20.0842 25.2528 19.998 24.0009 20C22.6829 20 21.4249 20.092 20.2589 20.258C20.0851 21.4977 19.9989 22.7481 20.0009 24C20.0009 25.318 20.0929 26.576 20.2589 27.742C21.4249 27.908 22.6829 28 24.0009 28C25.3189 28 26.5769 27.909 27.7429 27.742C27.9089 26.576 28.0009 25.318 28.0009 24C28.0009 22.682 27.9099 21.424 27.7429 20.258ZM29.8109 27.348C29.9349 26.278 30.0009 25.155 30.0009 24C30.0009 22.845 29.9349 21.722 29.8109 20.652C30.5921 20.8379 31.3577 21.0839 32.1009 21.388C32.8209 21.688 33.4109 22.015 33.8659 22.351C34.0472 23.4428 34.0472 24.5571 33.8659 25.649C33.4109 25.985 32.8209 26.313 32.1019 26.613C31.4259 26.894 30.6559 27.143 29.8109 27.348ZM27.3489 29.81C26.2789 29.934 25.1559 30 24.0009 30C22.8459 30 21.7229 29.934 20.6529 29.81C20.8589 30.655 21.1069 31.425 21.3889 32.1C21.6889 32.82 22.0159 33.41 22.3519 33.865C23.4438 34.0462 24.5581 34.0462 25.6499 33.865C25.9859 33.41 26.3139 32.82 26.6139 32.101C26.8949 31.425 27.1439 30.655 27.3489 29.81ZM28.4149 32.976L28.4599 32.87C28.8749 31.874 29.2179 30.727 29.4739 29.473C30.5012 29.2686 31.5099 28.9803 32.4899 28.611L32.9769 28.414C31.9994 30.395 30.396 31.9985 28.4149 32.976ZM19.5869 32.976L19.5419 32.87C19.1269 31.874 18.7839 30.727 18.5279 29.473C17.5007 29.2686 16.492 28.9803 15.5119 28.611L15.0249 28.414C16.0024 30.395 17.6059 31.9985 19.5869 32.976ZM18.1909 27.348C18.0632 26.2365 17.9998 25.1187 18.0009 24C18.0009 22.845 18.0669 21.722 18.1909 20.652C17.3459 20.858 16.5759 21.106 15.9009 21.388C15.1809 21.688 14.5909 22.015 14.1359 22.351C13.9547 23.4428 13.9547 24.5571 14.1359 25.649C14.5919 25.985 15.1809 26.313 15.8999 26.613C16.5759 26.894 17.3459 27.143 18.1909 27.348ZM18.5279 18.528C18.7324 17.5 19.0211 16.4906 19.3909 15.51L19.5879 15.023C17.6069 16.0004 16.0034 17.6039 15.0259 19.585L15.1319 19.54C16.1279 19.125 17.2749 18.782 18.5289 18.526M29.4749 18.526C29.2707 17.4984 28.9824 16.4893 28.6129 15.509L28.4159 15.022C30.397 15.9994 32.0004 17.6029 32.9779 19.584L32.8719 19.539C31.8759 19.124 30.7289 18.782 29.4749 18.526Z" fill="url(#paint1_linear_433_748)"/>
</g>
<defs>
<filter id="filter0_di_433_748" x="5" y="7.99902" width="38.002" height="38.002" filterUnits="userSpaceOnUse" color-interpolation-filters="sRGB">
<feFlood flood-opacity="0" result="BackgroundImageFix"/>
<feColorMatrix in="SourceAlpha" type="matrix" values="0 0 0 0 0 0 0 0 0 0 0 0 0 0 0 0 0 0 127 0" result="hardAlpha"/>
<feOffset dy="3"/>
<feGaussianBlur stdDeviation="4.5"/>
<feComposite in2="hardAlpha" operator="out"/>
<feColorMatrix type="matrix" values="0 0 0 0 1 0 0 0 0 1 0 0 0 0 1 0 0 0 0.2 0"/>
<feBlend mode="normal" in2="BackgroundImageFix" result="effect1_dropShadow_433_748"/>
<feBlend mode="normal" in="SourceGraphic" in2="effect1_dropShadow_433_748" result="shape"/>
<feColorMatrix in="SourceAlpha" type="matrix" values="0 0 0 0 0 0 0 0 0 0 0 0 0 0 0 0 0 0 127 0" result="hardAlpha"/>
<feOffset/>
<feGaussianBlur stdDeviation="1.24444"/>
<feComposite in2="hardAlpha" operator="arithmetic" k2="-1" k3="1"/>
<feColorMatrix type="matrix" values="0 0 0 0 1 0 0 0 0 1 0 0 0 0 1 0 0 0 1 0"/>
<feBlend mode="normal" in2="shape" result="effect2_innerShadow_433_748"/>
</filter>
<linearGradient id="paint0_linear_433_748" x1="24" y1="0" x2="24" y2="48" gradientUnits="userSpaceOnUse">
<stop stop-color="#10DBDB"/>
<stop offset="1" stop-color="#0047A5"/>
</linearGradient>
<linearGradient id="paint1_linear_433_748" x1="24.0009" y1="13.999" x2="24.0009" y2="34.0009" gradientUnits="userSpaceOnUse">
<stop stop-color="#10DBDB"/>
<stop offset="1" stop-color="#0047A5"/>
</linearGradient>
</defs>
</svg>
